<svg xmlns="http://www.w3.org/2000/svg" xmlns:xlink="http://www.w3.org/1999/xlink" id="Livello_2" viewBox="0 0 299.05 299.05"><defs><style>.cls-1{clip-path:url(#clippath);}.cls-2{fill:none;}.cls-2,.cls-3,.cls-4,.cls-5,.cls-6,.cls-7,.cls-8,.cls-9,.cls-10,.cls-11{stroke-width:0px;}.cls-12{stroke:#fff;stroke-width:.21px;}.cls-12,.cls-7{fill:#fff;}.cls-3{fill:#2e3191;}.cls-4{fill:#0e1f4b;}.cls-5{fill:#00a551;}.cls-6{fill:#86288f;}.cls-8{fill:#f6921e;}.cls-9{fill:#fff100;}.cls-10{fill:#ea1d25;}.cls-11{fill:#00adee;}</style><clipPath id="clippath"><rect class="cls-2" width="299.05" height="299.05"></rect></clipPath></defs><g id="Layer_1"><g class="cls-1"><polyline class="cls-4" points="282.14 116.72 58.67 -107.47 -25.38 -23.42 -103.3 54.5 120.73 278.53"></polyline><rect class="cls-10" x="120.84" y="116.69" width="161.44" height="23.1"></rect><rect class="cls-8" x="120.84" y="139.81" width="161.44" height="23.1"></rect><rect class="cls-9" x="120.84" y="162.93" width="161.44" height="23.1"></rect><rect class="cls-5" x="120.84" y="186.06" width="161.44" height="23.1"></rect><rect class="cls-11" x="120.84" y="209.18" width="161.44" height="23.1"></rect><rect class="cls-3" x="120.84" y="232.31" width="161.44" height="23.1"></rect><rect class="cls-6" x="120.84" y="255.43" width="161.44" height="23.1"></rect><path class="cls-7" d="m240.66,116.69l-.08,24.19-37.35,24.75c-3.54-6.6-5.53-14.15-5.51-22.19.04-9.98,3.18-19.19,8.52-26.76h-15.2c-4.05,8.03-6.35,17.11-6.38,26.72-.11,33.04,26.58,59.9,59.62,60.02,14.41.04,27.64-5.01,38-13.46l-.03-26.76-28.58-22.01.08-24.5h-13.07Zm-29.7,59.5l29.57-19.6-.11,33.58c-11.37-.98-21.52-5.98-29.12-13.62-.11-.12-.22-.25-.34-.36m42.52,13.3l.11-31.84,24.26,18.69c-.14.14-.28.3-.43.44-6.45,6.4-14.69,10.92-23.94,12.72"></path><path class="cls-12" d="m132.45,229.69c1.24,1.31,1.86,3.24,1.86,5.79,0,2.68-.61,4.73-1.82,6.13-1.22,1.41-2.78,2.12-4.69,2.12-1.22,0-2.24-.31-3.04-.91-.44-.33-.87-.82-1.29-1.47v7.95h-2.52v-21.25h2.39v2.25c.43-.66.89-1.18,1.38-1.57.89-.68,1.95-1.01,3.18-1.01,1.79,0,3.31.66,4.56,1.97Zm-3.06,2.87c-.54-.91-1.42-1.36-2.63-1.36-1.46,0-2.47.68-3.01,2.06-.28.73-.43,1.65-.43,2.77,0,1.77.48,3.02,1.43,3.73.56.42,1.23.63,2,.63,1.13,0,1.98-.43,2.57-1.29.59-.86.88-2,.88-3.43,0-1.17-.27-2.21-.81-3.12Z"></path><path class="cls-12" d="m147.06,228.36c1.06.48,1.94,1.23,2.63,2.26.63.9,1.03,1.95,1.22,3.15.11.7.15,1.71.13,3.02h-11.1c.06,1.53.59,2.61,1.6,3.22.6.38,1.34.57,2.19.57.91,0,1.65-.23,2.22-.7.3-.24.58-.59.82-1.04h4.07c-.1.91-.6,1.82-1.48,2.75-1.36,1.48-3.28,2.23-5.73,2.23-2.03,0-3.82-.63-5.37-1.88-1.55-1.25-2.33-3.29-2.33-6.1,0-2.64.7-4.67,2.1-6.08,1.4-1.41,3.22-2.11,5.46-2.11,1.32,0,2.52.24,3.58.71Zm-5.96,3.45c-.56.59-.92,1.37-1.06,2.36h6.87c-.07-1.06-.43-1.86-1.06-2.41-.64-.55-1.42-.82-2.36-.82-1.02,0-1.82.29-2.38.87Z"></path><path class="cls-12" d="m161.53,227.7s.16,0,.34.02v4.08c-.25-.03-.47-.05-.67-.06-.19-.01-.35-.01-.47-.01-1.6,0-2.68.53-3.23,1.57-.31.59-.46,1.49-.46,2.71v7.28h-4.02v-15.25h3.8v2.66c.62-1.02,1.15-1.71,1.61-2.08.75-.62,1.71-.93,2.91-.93.07,0,.14,0,.19,0Z"></path><path class="cls-12" d="m168.17,228.05v9.19c0,.86.1,1.52.31,1.95.36.77,1.07,1.17,2.13,1.17,1.35,0,2.28-.55,2.78-1.65.26-.6.39-1.39.39-2.36v-8.3h4.04v15.25h-3.87v-2.15s-.13.18-.28.42c-.15.24-.32.44-.53.62-.63.56-1.22.93-1.81,1.14-.58.21-1.26.31-2.04.31-2.25,0-3.77-.81-4.55-2.43-.44-.9-.65-2.22-.65-3.96v-9.19h4.08Z"></path><path class="cls-12" d="m189.24,228.04c.97.4,1.75,1.13,2.35,2.21v-2.2h3.89v14.47c0,1.97-.33,3.45-.99,4.45-1.14,1.71-3.32,2.58-6.54,2.58-1.95,0-3.54-.38-4.77-1.15-1.23-.76-1.91-1.91-2.04-3.43h4.34c.11.47.29.81.54,1.01.43.36,1.15.55,2.17.55,1.44,0,2.4-.48,2.88-1.44.32-.61.47-1.65.47-3.11v-.98c-.38.65-.79,1.15-1.23,1.47-.79.61-1.82.92-3.09.92-1.96,0-3.52-.69-4.69-2.07-1.17-1.37-1.76-3.24-1.76-5.58s.57-4.17,1.69-5.72c1.13-1.54,2.72-2.31,4.79-2.31.77,0,1.43.11,2,.35Zm1.36,10.92c.64-.7.96-1.83.96-3.36,0-1.45-.3-2.55-.91-3.3-.61-.76-1.42-1.14-2.44-1.14-1.4,0-2.36.66-2.88,1.97-.28.7-.42,1.56-.42,2.59,0,.88.15,1.67.45,2.36.54,1.29,1.5,1.93,2.89,1.93.93,0,1.71-.35,2.36-1.06Z"></path><path class="cls-12" d="m203.29,226.23h-4.04v-3.68h4.04v3.68Zm-4.04,1.82h4.04v15.25h-4.04v-15.25Z"></path><path class="cls-12" d="m213.19,234.02c.74-.09,1.27-.21,1.59-.35.58-.25.86-.62.86-1.14,0-.62-.22-1.05-.66-1.29-.44-.24-1.09-.36-1.93-.36-.96,0-1.63.24-2.03.7-.28.34-.47.81-.57,1.4h-3.85c.08-1.33.46-2.42,1.12-3.29,1.06-1.34,2.88-2.01,5.45-2.01,1.68,0,3.17.33,4.47.99,1.3.67,1.95,1.92,1.95,3.75v6.99c0,.49,0,1.07.03,1.76.02.52.11.88.24,1.06.13.19.33.34.59.46v.58h-4.33c-.12-.31-.2-.6-.25-.87-.05-.27-.09-.58-.11-.92-.55.6-1.19,1.1-1.91,1.53-.86.49-1.84.74-2.93.74-1.38,0-2.53-.4-3.43-1.18-.91-.79-1.36-1.9-1.36-3.36,0-1.87.73-3.22,2.19-4.06.8-.46,1.97-.78,3.52-.98l1.36-.17Zm2.44,1.86c-.26.16-.51.29-.77.38-.26.1-.62.19-1.07.27l-.9.17c-.85.15-1.46.33-1.84.55-.63.36-.94.93-.94,1.69,0,.68.19,1.17.57,1.47.38.3.85.46,1.39.46.87,0,1.68-.25,2.41-.76.73-.5,1.11-1.42,1.14-2.76v-1.48Z"></path><path class="cls-12" d="m226.17,238.43c.08.71.27,1.21.55,1.51.5.53,1.42.8,2.76.8.79,0,1.41-.11,1.88-.35.47-.23.7-.59.7-1.05s-.19-.79-.56-1.02c-.37-.23-1.77-.64-4.17-1.2-1.73-.43-2.95-.97-3.66-1.61-.71-.63-1.06-1.55-1.06-2.74,0-1.41.55-2.62,1.66-3.63,1.11-1.01,2.67-1.51,4.68-1.51,1.9,0,3.46.37,4.66,1.14,1.2.76,1.89,2.07,2.07,3.94h-3.99c-.06-.51-.2-.92-.43-1.22-.45-.54-1.19-.81-2.25-.81-.87,0-1.49.14-1.86.41-.37.27-.55.59-.55.95,0,.45.19.78.59.99.39.22,1.78.58,4.16,1.1,1.59.38,2.78.94,3.57,1.69.78.76,1.18,1.72,1.18,2.86,0,1.51-.56,2.75-1.69,3.7-1.12.95-2.86,1.43-5.22,1.43s-4.17-.51-5.32-1.52c-1.15-1.01-1.72-2.29-1.72-3.86h4.04Z"></path><path class="cls-12" d="m242.1,238.43c.08.71.27,1.21.55,1.51.5.53,1.41.8,2.76.8.78,0,1.41-.11,1.87-.35.46-.23.7-.59.7-1.05s-.18-.79-.56-1.02c-.37-.23-1.77-.64-4.17-1.2-1.74-.43-2.95-.97-3.66-1.61-.71-.63-1.06-1.55-1.06-2.74,0-1.41.55-2.62,1.66-3.63,1.11-1.01,2.67-1.51,4.67-1.51s3.46.37,4.66,1.14c1.2.76,1.89,2.07,2.06,3.94h-3.98c-.06-.51-.2-.92-.44-1.22-.44-.54-1.18-.81-2.24-.81-.87,0-1.49.14-1.86.41-.37.27-.55.59-.55.95,0,.45.2.78.59.99.39.22,1.78.58,4.16,1.1,1.59.38,2.78.94,3.57,1.69.79.76,1.17,1.72,1.17,2.86,0,1.51-.56,2.75-1.68,3.7-1.13.95-2.87,1.43-5.22,1.43s-4.18-.51-5.32-1.52c-1.14-1.01-1.72-2.29-1.72-3.86h4.04Z"></path><path class="cls-12" d="m259.04,226.23h-4.04v-3.68h4.04v3.68Zm-4.04,1.82h4.04v15.25h-4.04v-15.25Z"></path><path class="cls-12" d="m265.99,238.43c.08.71.27,1.21.55,1.51.5.53,1.42.8,2.75.8.79,0,1.41-.11,1.87-.35.47-.23.7-.59.7-1.05s-.19-.79-.57-1.02c-.37-.23-1.76-.64-4.17-1.2-1.73-.43-2.95-.97-3.66-1.61-.71-.63-1.06-1.55-1.06-2.74,0-1.41.55-2.62,1.66-3.63,1.11-1.01,2.67-1.51,4.68-1.51s3.46.37,4.66,1.14c1.21.76,1.89,2.07,2.07,3.94h-3.98c-.05-.51-.2-.92-.43-1.22-.44-.54-1.19-.81-2.25-.81-.87,0-1.49.14-1.86.41-.37.27-.55.59-.55.95,0,.45.2.78.59.99.39.22,1.78.58,4.16,1.1,1.59.38,2.78.94,3.57,1.69.78.76,1.17,1.72,1.17,2.86,0,1.51-.56,2.75-1.69,3.7-1.13.95-2.87,1.43-5.22,1.43s-4.18-.51-5.32-1.52c-1.15-1.01-1.72-2.29-1.72-3.86h4.04Z"></path><path class="cls-12" d="m282.89,226.23h-4.01v-3.68h4.01v3.68Zm-4.01,1.82h4.01v15.25h-4.01v-15.25Z"></path><path class="cls-7" d="m190.55,256.4h-.68v-.73h.78l.14-1.02h-.68v-.73h.78l.23-1.62h.78l-.23,1.62h.8l.23-1.62h.78l-.23,1.62h.68v.73h-.78l-.14,1.02h.68v.73h-.78l-.23,1.63h-.78l.23-1.63h-.8l-.23,1.63h-.78l.23-1.63Zm1.82-1.75h-.8l-.14,1.02h.8l.14-1.02Z"></path><path class="cls-7" d="m194.86,252.3h1.26v5.72h-1.26v-5.72Z"></path><path class="cls-7" d="m197.26,252.3h1.71l2.43,3.98h.02v-3.98h1.26v5.72h-1.65l-2.5-4.07h-.02v4.07h-1.26v-5.72Z"></path><path class="cls-7" d="m206.68,253.7c-.2-.26-.61-.38-.91-.38-.36,0-.85.16-.85.59,0,1.04,2.64.37,2.64,2.38,0,1.28-1.03,1.88-2.21,1.88-.74,0-1.38-.22-1.92-.72l.9-.99c.26.34.68.54,1.1.54s.87-.19.87-.6c0-1.05-2.68-.48-2.68-2.39,0-1.22,1.06-1.86,2.18-1.86.65,0,1.27.17,1.75.6l-.87.95Z"></path><path class="cls-7" d="m208.47,252.3h1.26v5.72h-1.26v-5.72Z"></path><path class="cls-7" d="m210.93,252.3h3.89v1.16h-2.63v1.07h2.48v1.16h-2.48v1.16h2.77v1.16h-4.03v-5.72Z"></path><path class="cls-7" d="m215.97,252.3h1.91l1.32,3.73h.02l1.33-3.73h1.9v5.72h-1.26v-4.39h-.02l-1.5,4.39h-.96l-1.45-4.39h-.02v4.39h-1.26v-5.72Z"></path><path class="cls-7" d="m223.65,252.3h3.89v1.16h-2.63v1.07h2.48v1.16h-2.48v1.16h2.77v1.16h-4.03v-5.72Z"></path><path class="cls-7" d="m228.69,252.3h2.13c1.19,0,2.18.38,2.18,1.74s-.91,1.75-2.12,1.75h-.92v2.23h-1.26v-5.72Zm1.26,2.43h.84c.45,0,.89-.15.89-.69,0-.59-.6-.67-1.08-.67h-.65v1.36Z"></path><path class="cls-7" d="m233.84,252.3h3.89v1.16h-2.63v1.07h2.48v1.16h-2.48v1.16h2.77v1.16h-4.03v-5.72Z"></path><path class="cls-7" d="m238.88,252.3h2.21c1.17,0,2.16.4,2.16,1.74,0,.8-.43,1.42-1.24,1.57l1.46,2.42h-1.51l-1.2-2.29h-.62v2.29h-1.26v-5.72Zm1.26,2.37h.74c.46,0,1.06-.02,1.06-.64,0-.57-.52-.66-.98-.66h-.82v1.3Z"></path><path class="cls-7" d="m244.16,252.3h1.26v4.56h2.34v1.16h-3.6v-5.72Z"></path><path class="cls-7" d="m250.34,252.3h1.04l2.49,5.72h-1.42l-.49-1.21h-2.22l-.48,1.21h-1.39l2.47-5.72Zm.49,1.67l-.7,1.78h1.4l-.7-1.78Z"></path><path class="cls-7" d="m254.44,252.3h2.13c1.19,0,2.17.38,2.17,1.74s-.91,1.75-2.12,1.75h-.92v2.23h-1.26v-5.72Zm1.26,2.43h.84c.44,0,.89-.15.89-.69,0-.59-.6-.67-1.08-.67h-.65v1.36Z"></path><path class="cls-7" d="m260.68,252.3h1.04l2.49,5.72h-1.42l-.49-1.21h-2.22l-.48,1.21h-1.39l2.47-5.72Zm.48,1.67l-.7,1.78h1.4l-.7-1.78Z"></path><path class="cls-7" d="m268.53,253.79c-.25-.3-.61-.47-1.08-.47-.95,0-1.66.78-1.66,1.84s.7,1.84,1.62,1.84c.51,0,.92-.23,1.18-.61l1.05.78c-.48.68-1.28.99-2.07.99-1.79,0-3.09-1.17-3.09-3.01s1.3-3.01,3.09-3.01c.64,0,1.45.22,1.93.84l-.97.79Z"></path><path class="cls-7" d="m270.37,252.3h3.89v1.16h-2.63v1.07h2.48v1.16h-2.48v1.16h2.77v1.16h-4.03v-5.72Z"></path></g></g></svg>