<?xml version="1.0" encoding="UTF-8"?>
<svg id="Livello_2" data-name="Livello 2" xmlns="http://www.w3.org/2000/svg" viewBox="0 0 605.99 241.94">
  <defs>
    <style>
      .cls-1 {
        fill: #ff0;
      }
    </style>
  </defs>
  <g id="Livello_1-2" data-name="Livello 1">
    <g>
      <g>
        <rect width="59.28" height="241.94"/>
        <rect class="cls-1" x="59.28" width="546.72" height="241.94"/>
        <g>
          <path class="cls-1" d="M43.84,169.24H13.49c-.3,0-.54-.24-.54-.54v-4.58c0-.3.24-.54.54-.54h30.35c.3,0,.54.24.54.54v4.58c0,.3-.24.54-.54.54Z"/>
          <path class="cls-1" d="M18.58,154.88v4.08c0,.3-.24.54-.54.54h-4.85c-.3,0-.54-.24-.54-.54v-15.55c0-.3.24-.54.54-.54h4.85c.3,0,.54.24.54.54v4.08c0,.3.24.54.54.54h24.72c.3,0,.54.24.54.54v5.2c0,.3-.24.54-.54.54h-24.72c-.3,0-.54.24-.54.54Z"/>
          <path class="cls-1" d="M44.39,136.3v4.97c0,.34-.31.6-.65.53l-30.79-5.95v-7.04l30.79-5.95c.34-.06.65.19.65.53v4.97c0,.27-.2.5-.47.54l-6.5.94v4.97l6.5.94c.27.04.47.27.47.54ZM32.1,134.09v-3.51l-10.37,1.72.61.07,9.75,1.72Z"/>
          <path class="cls-1" d="M43.84,120.03H13.49c-.3,0-.54-.24-.54-.54v-4.89c0-.3.24-.54.54-.54h25.27v-8.06c0-.3.24-.54.54-.54h4.54c.3,0,.54.24.54.54v13.49c0,.3-.24.54-.54.54Z"/>
          <path class="cls-1" d="M43.84,101.51H13.49c-.3,0-.54-.24-.54-.54v-4.89c0-.3.24-.54.54-.54h30.35c.3,0,.54.24.54.54v4.89c0,.3-.24.54-.54.54Z"/>
          <path class="cls-1" d="M44.39,86.15v4.97c0,.34-.31.6-.65.53l-30.79-5.95v-7.04l30.79-5.95c.34-.06.65.19.65.53v4.97c0,.27-.2.5-.47.54l-6.5.94v4.97l6.5.94c.27.04.47.27.47.54ZM32.1,83.94v-3.51l-10.37,1.72.61.07,9.75,1.72Z"/>
        </g>
      </g>
      <g>
        <path d="M129.11,102.28l4.06-25.71h.16l4.06,25.71h-8.29ZM126.87,64.63l-11.03,59.88h9.95l1.82-13.27h11.28l1.82,13.27h9.96l-11.04-59.88h-12.77Z"/>
        <polygon points="164.68 77.73 164.85 77.73 174.14 124.51 179.12 124.51 188.41 77.73 188.57 77.73 188.57 124.51 197.53 124.51 197.53 64.63 184.01 64.63 176.71 99.63 176.54 99.63 169.25 64.63 155.73 64.63 155.73 124.51 164.68 124.51 164.68 77.73"/>
        <polygon points="229.19 98.88 229.02 98.88 216.51 64.63 206.97 64.63 206.97 124.51 216.25 124.51 216.25 87.11 216.42 87.11 229.52 124.51 238.48 124.51 238.48 64.63 229.19 64.63 229.19 98.88"/>
        <polygon points="276.61 115.55 258.2 115.55 258.2 97.97 271.47 97.97 271.47 89.01 258.2 89.01 258.2 73.58 275.46 73.58 275.46 64.63 247.91 64.63 247.91 124.51 276.61 124.51 276.61 115.55"/>
        <path d="M290.37,78.65c0-3.74,1.82-5.89,5.14-5.89,2.32,0,5.06,1.5,5.48,6.64l9.79-1.08c-.91-8.46-5.89-14.52-14.27-14.52-10.12,0-15.92,5.39-15.92,14.93,0,17.18,20.89,20.32,20.89,32.18,0,3.57-2.41,5.48-5.97,5.48-3.32,0-5.72-2.98-6.14-9.04l-9.79,1.41c.42,8.96,5.89,16.59,15.44,16.59s16.25-5.47,16.25-15.34c0-16.25-20.9-21.15-20.9-31.35"/>
        <polygon points="323.07 124.51 333.35 124.51 333.35 73.59 343.31 73.59 343.31 64.63 313.11 64.63 313.11 73.59 323.07 73.59 323.07 124.51"/>
        <polygon points="363.62 87.43 363.46 87.43 356.24 64.63 345.78 64.63 358.23 99.63 358.23 124.51 368.52 124.51 368.52 99.63 380.95 64.63 370.5 64.63 363.62 87.43"/>
        <path d="M494.09,132.74c-.68-.29-.76-2.42-1.15-2.42-.59,0-.89,1.93-2.03,2.22-1.18.2-2.91-1.25-3.41-.88-.49.4,1.09,3.15-1.52,3.15-.78,0-1.18-.89-1.18-1.56v-21.11s.09-.03,1.26.26c.77.2,1.55.58,1.55,1.65,0,.57-.21,1.74.19,1.94.41.2.68-.2.88-.29,3.58-2.61,4.45,2.03,5.22,2.03.68,0,.59-3.19,1.55-3.19.78-.3,8.24,3.29,8.24,5.62,0,.48-.98.57-1.06,1.06-.09.68,1.74.96,1.45,2.23-.11.78-1.84,1.75-1.36,2.22.5.49,2.82-.48,3.02-.48.48,0,.57.76.57,1.06,0,4.27-9.97,7.47-12.21,6.49M467.55,136.11c-.58-.95-.29-2.61-.87-2.61-.29,0-1.84,2.33-2.72,2.33s-2.32-1.65-2.9-1.65c-.39,0,.39,2.33-.39,3.29-.49.68-5.14,1.18-5.14.59v-32.94c0-1.55,1.17-2.13,2.22-2.13h17.34c2.12,0,3,.66,3,2.89l.02,29.56c0,.96-10.19,1.35-10.57.66M478.11,177.87c0,2.04-.69,2.52-2.42,2.14l-18.5-3.68c-1.07-.19-1.65-.87-1.65-2.03v-33.52c0-.87,3.01-.97,3.49-.58.88.78.58,3.58,1.16,3.58.78,0,2.81-3.39,3.69-3.39,1.84,0,3.09,1.06,3.48.88.39-.2.39-1.75.87-2.14.68-.47,2.71-.47,3.78-.59,1.75-.09,4.95-.38,4.95-.38,1.26,0,1.16.88,1.16,2.72v36.99ZM458.15,80.62c0-13.37,19.76-21.02,21.12-27.81,1.45,1.36,1.65,3.58,1.65,5.52,0,8.14-14.14,21.79-14.14,31.68,0,1.07.09,1.35.09,2.04,0,.96-.39,1.16-.58,1.16-2.34,0-8.14-4.56-8.14-12.59M447.2,164.22c-1.55,0-2.52-3.11-2.91-3-.48.1.11,2.61-.48,3-.48.48-10.75-4.26-11.53-5.03-.68-.68.29-1.65,0-2.33-.19-.58-1.75-.39-2.22-.69-.39-.38.47-2.14-.09-2.51-.5-.29-1.55,1.75-2.24.76-.3-.39-.38-1.06-.38-1.93,0-5.91,6.29-8.33,10.56-9.78,1.74-.59,1.15,1.64,1.74,1.74.68.19.78-1.06,1.55-1.06.59,0,2.82,1.06,3.29.68.39-.29-1.16-1.74-.68-2.32.59-.48,5.08-1.33,5.04-.18v20.7c.01,2.17-1.65,1.95-1.65,1.95M508.05,128.56c1.06-1.84,1.06-4.06,1.45-4.94.57-.96,2.71-.78,2.71-1.45,0-.28-1.55-.67-2.14-1.06-1.15-.68-.76-4.16-1.34-4.16-.88,0-1.75,2.42-2.63,1.36-1.54-1.94-7.94-5.62-10.84-6.69-1.07-.39.78-3.58.29-3.88-.49-.29-1.75,1.95-3.59,1.56-1.45-.29-.78-2.91-1.55-2.91-.39,0-1.85,3.68-2.91,3.39-1.16-.29-2.7-.71-2.7-.71v-9.65c0-1.65-1.11-2.92-2.53-2.91h-10.46c-2.91,0-2.71-2.13-2.71-2.62,0-12.88,18.7-15.01,18.7-31.86,0-7.36-4.65-12.31-10.07-16.67-.3-.19,0,1.07,0,1.55,0,7.85-29.16,11.92-29.16,30.04,0,15.78,15.7,16.46,15.7,18.89,0,.48-.96.68-1.06.68h-12.01c-1.26,0-2.35.78-2.34,2.89v9.71c-1.16.39-2.7-1.36-3.48-1.36-.39,0-.19,3.01-.87,3.4-.58.28-11.52,4.16-12.51,4.26-1.54.29-1.15-2.42-2.02-2.42-.79,0-.79,2.71-2.72,2.71-1.16,0-2.12-1.07-2.99-1.07-.58,0,1.25,2.24,1.25,2.91,0,1.85-3.58,2.52-3.58,3.78,0,.68,3.38-.29,3.87-.29,1.74,0,1.55,2.04,2.22,2.04s1.16-2.34,1.75-2.72c1.15-.68,2.52.48,3.1.48.96,0-.78-2.33.1-2.72,0,0,11.81-5.03,12.59-4.65.68.39.59,1.55,1.36,1.94.77.38,1.94-2.71,1.94-.78v23.74c-1.36.86-4.27,1.36-5.82,1.36-.76,0-.39-2.52-.87-2.52-.78,0-1.55,2.13-2.71,2.13-1.06,0-2.61-2.61-3.67-2.61-.68,0,1.25,3.29.09,3.87-4.46,2.24-11.53,4.36-11.53,11.42,0,1.46.78,3.22.48,3.68-.28.69-1.82,2.04-1.74,2.62,0,.58,2.91.38,3.49,1.26.28.47.48,2.61,1.07,2.61.47,0,1.73-1.64,2.81-1.06,3.38,2.04,9.29,4.26,12.01,5.73.66.39.28,2.51.66,2.71.78.39,2.32-2.04,4.76-.68.49.2.97.98.97,1.85v7.92c-.01,1.45.66,1.84,1.44,2.03l28.88,5.75s2.56.58,3.44.58c1.01.04,2.25,0,2.18-2.44v-18.01c-.01-.18.22-.62.61-.62,1.69,0,.84,4.88,1.22,4.88.77,0,1.26-3.29,2.24-3.29,1.35,0,2.24,1.26,2.8.97.49-.29-.28-1.85-.28-2.82,0-.86,2.51-1.25,5.61-2.42,2.71-.96,4.94-2.03,5.82-2.03.67,0,1.15,1.84,1.74,1.84.48,0,.58-2.41,1.65-2.41.86,0,2.8,1.35,3.29.96.38-.28-.97-2.13.09-2.91.78-.48,2.62-1.64,2.62-2.12,0-.29-3.58-.39-3.78-.39-.68-.19-1.45-2.32-1.95-2.32-.56,0-.56,2.13-1.44,2.81-.78.58-2.71-2.04-3.58-2.04-.49,0,.57,1.94.57,3.5s-9.39,4.55-10.65,4.55c-1.94,0-2.04-2.42-2.43-2.42-.58,0-.56,2.96-2.71,2.96-1.07,0-1.45-.8-1.45-1.38v-23.26c0-.66.19-1.57,1.45-1.62,1.59-.07,1.64,3.54,2.22,3.54,1.06,0,1.65-3.58,3.68-3.58,1.55,0,2.81,2.14,3.78,2.14.68,0-1.16-2.23-1.16-3.3s9.59-.68,13.27-7.17"/>
        <rect x="117.19" y="140.2" width="6.19" height="36.08"/>
        <polygon points="128.82 176.28 128.82 140.2 134.57 140.2 142.12 160.83 142.22 160.83 142.22 140.2 147.82 140.2 147.82 176.28 142.42 176.28 134.52 153.74 134.42 153.74 134.42 176.28 128.82 176.28"/>
        <polygon points="156.78 145.59 150.78 145.59 150.78 140.19 168.97 140.19 168.97 145.59 162.98 145.59 162.98 176.28 156.78 176.28 156.78 145.59"/>
        <polygon points="171.99 176.28 171.99 140.2 188.59 140.2 188.59 145.59 178.19 145.59 178.19 154.89 186.19 154.89 186.19 160.29 178.19 160.29 178.19 170.88 189.29 170.88 189.29 176.28 171.99 176.28"/>
        <path d="M199.48,176.28h-6.19v-36.09h8.69c3.46,0,6.08.82,7.85,2.45,1.76,1.63,2.65,4.36,2.65,8.19,0,1.46-.12,2.72-.37,3.75-.25,1.04-.59,1.91-1,2.62-.42.72-.89,1.29-1.4,1.72-.52.44-1.04.77-1.58,1.01l5.25,16.34h-6.29l-4.4-14.95c-.4.07-.89.11-1.48.12-.58.02-1.15.03-1.72.03v14.79ZM199.04,156.39h2.2c.83,0,1.54-.08,2.12-.25.58-.17,1.06-.46,1.42-.9.36-.44.64-1.01.8-1.72.16-.72.25-1.61.25-2.68,0-2.13-.35-3.59-1.05-4.37-.7-.78-1.88-1.18-3.55-1.18h-2.2v11.09Z"/>
        <polygon points="217.37 176.28 217.37 140.2 223.12 140.2 230.67 160.83 230.77 160.83 230.77 140.2 236.37 140.2 236.37 176.28 230.97 176.28 223.07 153.74 222.97 153.74 222.97 176.28 217.37 176.28"/>
        <path d="M245.81,176.28h-6l6.65-36.08h7.7l6.65,36.08h-6l-1.1-7.99h-6.79l-1.1,7.99ZM247.81,162.89h4.99l-2.45-15.49h-.1l-2.45,15.49Z"/>
        <polygon points="266.35 145.59 260.35 145.59 260.35 140.19 278.55 140.19 278.55 145.59 272.55 145.59 272.55 176.28 266.35 176.28 266.35 145.59"/>
        <rect x="282.43" y="140.2" width="6.19" height="36.08"/>
        <path d="M293.58,148.94c0-1.26.19-2.46.57-3.6.38-1.13.96-2.12,1.75-2.95.78-.84,1.76-1.49,2.95-1.98,1.18-.48,2.59-.72,4.22-.72s3.04.24,4.22.72c1.18.49,2.16,1.14,2.95,1.98.78.83,1.36,1.82,1.75,2.95.38,1.14.58,2.34.58,3.6v18.59c0,1.26-.19,2.46-.58,3.59-.38,1.14-.96,2.12-1.75,2.95-.78.83-1.76,1.49-2.95,1.97-1.18.48-2.59.73-4.22.73s-3.04-.25-4.22-.73c-1.18-.48-2.16-1.14-2.95-1.97-.79-.84-1.37-1.82-1.75-2.95-.38-1.13-.57-2.33-.57-3.59v-18.59ZM299.77,167.38c0,1.37.24,2.38.7,3.02.47.65,1.34.98,2.6.98s2.13-.32,2.6-.98c.46-.65.7-1.65.7-3.02v-18.29c0-1.37-.24-2.38-.7-3.02-.47-.65-1.34-.98-2.6-.98s-2.13.32-2.6.98c-.46.65-.7,1.65-.7,3.02v18.29Z"/>
        <polygon points="316.76 176.28 316.76 140.2 322.51 140.2 330.06 160.83 330.16 160.83 330.16 140.2 335.76 140.2 335.76 176.28 330.36 176.28 322.46 153.74 322.36 153.74 322.36 176.28 316.76 176.28"/>
        <path d="M345.26,176.28h-6l6.65-36.08h7.7l6.65,36.08h-6l-1.1-7.99h-6.79l-1.1,7.99ZM347.26,162.89h4.99l-2.45-15.49h-.1l-2.45,15.49Z"/>
        <polygon points="363.31 176.28 363.31 140.2 369.51 140.2 369.51 170.88 379.25 170.88 379.25 176.28 363.31 176.28"/>
      </g>
      <g>
        <rect x="546.72" width="59.28" height="241.94"/>
        <g>
          <path class="cls-1" d="M580.24,170h2.29c.77,0,1.37-.2,1.82-.59s.67-.92.67-1.58c0-.76-.26-1.36-.77-1.78-.51-.42-1.42-.63-2.71-.63h-6.48c-.92,0-1.59.2-1.99.61-.41.41-.61.89-.61,1.44,0,.76.21,1.34.63,1.74.42.39.93.7,1.54.91v3.79c-1.11-.03-2.17-.07-3.2-.12-1.03-.05-2.11-.09-3.24-.12-1.13-.03-2.37-.05-3.69-.08-1.33-.03-2.84-.04-4.53-.04v-11.9l4.03.16v7.71l6.17.28.08-.08c-.74-.61-1.2-1.19-1.38-1.76-.18-.57-.28-1.23-.28-2,0-1.9.65-3.24,1.96-4.03,1.3-.79,3.16-1.19,5.55-1.19h3.95c3,0,5.23.51,6.68,1.54,1.45,1.03,2.17,2.73,2.17,5.1,0,1-.11,1.93-.34,2.79-.22.86-.59,1.6-1.11,2.23-.51.63-1.19,1.13-2.02,1.48s-1.84.53-3.02.53h-2.17v-4.43Z"/>
          <path class="cls-1" d="M567.39,157.03c-2.71,0-4.7-.54-5.95-1.62-1.25-1.08-1.88-2.86-1.88-5.34s.63-4.25,1.88-5.33c1.25-1.08,3.23-1.62,5.95-1.62h13.67c2.71,0,4.7.54,5.95,1.62,1.25,1.08,1.88,2.86,1.88,5.33s-.63,4.26-1.88,5.34c-1.25,1.08-3.23,1.62-5.95,1.62h-13.67ZM566.17,147.78c-1.82,0-2.73.76-2.73,2.29s.91,2.29,2.73,2.29h16.12c1.82,0,2.73-.76,2.73-2.29s-.91-2.29-2.73-2.29h-16.12Z"/>
          <path class="cls-1" d="M588.5,127.31v4.74l-28.53-5.26v-6.09l28.53-5.26v4.74l-6.32.87v5.38l6.32.87ZM577.9,125.73v-3.95l-12.25,1.94v.08l12.25,1.94Z"/>
          <path class="cls-1" d="M588.5,112.61h-28.53v-4.54l16.32-5.97v-.08h-16.32v-4.43h28.53v4.27l-17.82,6.24v.08h17.82v4.43Z"/>
          <path class="cls-1" d="M588.5,92.85h-28.53v-4.54l16.32-5.97v-.08h-16.32v-4.43h28.53v4.27l-17.82,6.24v.08h17.82v4.43Z"/>
          <path class="cls-1" d="M588.5,72.42h-28.53v-4.9h28.53v4.9Z"/>
        </g>
      </g>
    </g>
  </g>
</svg>