<?xml version="1.0" standalone="no"?>
<!DOCTYPE svg PUBLIC "-//W3C//DTD SVG 20010904//EN" "http://www.w3.org/TR/2001/REC-SVG-20010904/DTD/svg10.dtd">
<svg version="1.0" xmlns="http://www.w3.org/2000/svg"
    width="225.000000pt" height="123.000000pt" viewBox="0 0 225.000000 123.000000"
    preserveAspectRatio="xMidYMid meet">

    <g transform="translate(0.000000,123.000000) scale(0.100000,-0.100000)"
        fill="#fff" stroke="none">
        <path
            d="M1050 1168 c-50 -62 -73 -105 -94 -177 -25 -84 -21 -122 14 -156 l30
-29 0 63 c0 88 26 205 64 284 18 37 31 67 29 67 -1 0 -21 -23 -43 -52z" />
        <path
            d="M1155 1162 c38 -78 65 -194 65 -280 l0 -76 31 30 c30 28 31 32 26 91
-6 75 -56 188 -111 248 l-37 40 26 -53z" />
        <path
            d="M500 1106 c0 -2 26 -23 58 -47 147 -111 302 -284 401 -449 49 -82
131 -272 131 -304 0 -31 -48 -16 -130 39 -155 103 -291 141 -483 132 -143 -6
-252 -34 -378 -98 -77 -38 -103 -61 -45 -39 81 30 265 54 431 54 191 0 287
-14 445 -67 l95 -32 -513 -3 c-504 -2 -512 -3 -512 -22 0 -20 8 -20 555 -20
l555 0 -6 57 c-24 246 -67 367 -181 508 -60 73 -168 166 -248 210 -63 36 -175
87 -175 81z" />
        <path
            d="M1664 1071 c-160 -76 -302 -195 -388 -325 -74 -112 -126 -292 -126
-437 l0 -59 550 0 c543 0 550 0 550 20 0 20 -7 20 -512 21 l-513 0 50 21 c165
67 403 98 614 80 121 -11 270 -37 326 -58 42 -15 -1 15 -71 50 -118 59 -232
87 -371 93 -192 9 -328 -29 -483 -132 -83 -56 -130 -70 -130 -37 0 31 86 228
135 308 94 156 233 313 376 425 105 83 105 83 -7 30z" />
        <path
            d="M481 1025 c-1 -99 29 -250 52 -258 6 -2 3 -2 -8 0 -118 24 -183 32
-254 33 -95 0 -97 -10 -6 -30 270 -57 570 -224 747 -414 51 -54 52 -42 5 39
-87 149 -220 266 -374 330 -32 13 -55 24 -52 25 4 0 -11 42 -33 93 -22 50 -48
124 -58 162 l-19 70 0 -50z" />
        <path
            d="M1749 1001 c-9 -37 -34 -106 -54 -154 -20 -47 -37 -90 -37 -94 -1 -4
-25 -18 -55 -30 -158 -64 -308 -203 -385 -357 l-31 -61 96 92 c104 101 237
193 362 253 95 45 257 103 340 120 33 7 65 18 70 23 15 15 -220 0 -289 -18
-32 -9 -61 -14 -64 -11 -3 3 2 6 11 6 10 0 20 14 27 38 18 63 31 168 28 215
l-3 46 -16 -68z" />
        <path
            d="M166 748 c36 -62 98 -144 147 -195 62 -65 82 -73 145 -55 20 6 11 15
-69 67 -50 33 -123 90 -161 128 -38 37 -66 62 -62 55z" />
        <path
            d="M2004 682 c-39 -37 -109 -92 -154 -122 -75 -49 -81 -55 -59 -61 63
-18 84 -11 135 44 53 55 165 208 152 207 -2 -1 -35 -31 -74 -68z" />
        <path
            d="M8 145 c-14 -30 0 -50 49 -70 36 -15 41 -26 18 -45 -9 -7 -26 -9 -47
-5 -29 7 -31 6 -19 -9 17 -21 65 -21 86 0 25 26 14 57 -27 77 -23 11 -38 26
-38 37 0 23 26 33 51 20 15 -8 19 -7 19 5 0 11 -11 15 -40 15 -33 0 -42 -4
-52 -25z" />
        <path
            d="M172 163 c-7 -3 -19 -18 -28 -35 -39 -75 43 -157 117 -117 30 16 13
29 -21 16 -36 -14 -59 -3 -78 35 -25 53 30 114 80 87 22 -12 34 -6 23 10 -6
11 -69 14 -93 4z" />
        <path
            d="M310 102 c0 -76 16 -102 62 -102 42 0 58 28 58 103 0 87 -18 87 -22
1 -2 -51 -7 -70 -20 -78 -35 -21 -53 4 -56 78 -4 87 -22 85 -22 -2z" />
        <path
            d="M502 163 c-7 -3 -19 -18 -28 -35 -43 -83 56 -165 129 -108 14 11 28
33 32 49 7 33 -15 85 -40 95 -19 7 -74 7 -93 -1z m96 -28 c20 -18 18 -72 -3
-95 -38 -42 -105 -14 -105 45 0 65 62 94 108 50z" />
        <path
            d="M670 85 l0 -85 44 0 c25 0 48 5 51 10 4 6 -10 10 -34 10 l-41 0 0 75
c0 43 -4 75 -10 75 -6 0 -10 -35 -10 -85z" />
        <path
            d="M790 85 l0 -85 49 0 c28 0 53 5 56 10 4 6 -12 10 -39 10 -44 0 -46 1
-46 30 0 28 3 30 34 30 19 0 38 5 41 10 4 6 -10 10 -34 10 -37 0 -41 2 -41 25
0 23 4 25 40 25 22 0 40 5 40 10 0 6 -22 10 -50 10 l-50 0 0 -85z" />
        <path
            d="M920 85 c0 -78 2 -85 20 -85 16 0 20 7 20 35 0 32 2 35 30 35 20 0
35 8 46 25 15 23 15 27 0 50 -14 21 -24 25 -66 25 l-50 0 0 -85z m85 35 c0 -8
-10 -16 -22 -18 -18 -3 -23 2 -23 18 0 16 5 21 23 18 12 -2 22 -10 22 -18z" />
        <path
            d="M1070 85 l0 -85 60 0 c53 0 60 2 60 20 0 17 -7 20 -40 20 -29 0 -40
4 -40 15 0 10 11 15 35 15 28 0 35 4 35 20 0 16 -7 20 -35 20 -24 0 -35 5 -35
15 0 10 11 15 35 15 24 0 35 5 35 15 0 12 -13 15 -55 15 l-55 0 0 -85z" />
        <path
            d="M1220 85 c0 -69 3 -85 15 -85 10 0 15 11 15 35 0 19 5 35 10 35 6 0
20 -16 31 -35 13 -21 29 -35 41 -35 20 0 20 1 -2 37 -19 32 -20 37 -6 45 19
11 21 59 4 76 -7 7 -34 12 -60 12 l-48 0 0 -85z m85 35 c0 -23 -49 -20 -53 3
-3 15 2 18 25 15 17 -2 28 -9 28 -18z" />
        <path
            d="M1370 85 l0 -85 75 1 c64 1 75 4 80 20 9 27 71 27 80 -1 4 -11 15
-20 26 -20 24 0 22 10 -22 108 -37 83 -53 80 -93 -16 -20 -48 -33 -69 -40 -62
-5 5 -23 10 -38 10 -28 0 -28 0 -28 65 0 58 -2 65 -20 65 -18 0 -20 -7 -20
-85z m210 -7 c0 -5 -7 -8 -15 -8 -15 0 -20 21 -8 33 7 7 23 -11 23 -25z" />
        <path
            d="M1670 84 c0 -76 2 -85 18 -82 11 2 18 14 20 36 3 27 7 32 31 32 34 0
51 17 51 50 0 38 -18 50 -72 50 l-48 0 0 -86z m85 36 c0 -8 -10 -16 -22 -18
-18 -3 -23 2 -23 18 0 16 5 21 23 18 12 -2 22 -10 22 -18z" />
        <path
            d="M1835 138 c-7 -18 -23 -55 -34 -81 -25 -59 -25 -57 -2 -57 11 0 23 9
26 20 5 15 15 20 40 20 25 0 35 -5 40 -20 4 -11 15 -20 26 -20 24 0 22 10 -22
107 -32 71 -53 80 -74 31z m45 -54 c0 -8 -7 -14 -15 -14 -15 0 -21 21 -9 33
10 9 24 -2 24 -19z" />
        <path
            d="M1985 146 c-55 -55 -12 -146 69 -146 12 0 30 6 40 13 16 12 16 14 3
26 -11 9 -21 9 -35 2 -26 -14 -62 12 -62 44 0 34 27 56 64 53 22 -2 31 1 31
12 0 10 -13 16 -42 18 -35 3 -48 -2 -68 -22z" />
        <path
            d="M2130 85 l0 -85 60 0 c53 0 60 2 60 20 0 17 -7 20 -40 20 -29 0 -40
4 -40 15 0 10 11 15 35 15 28 0 35 4 35 20 0 16 -7 20 -35 20 -24 0 -35 5 -35
15 0 11 11 15 40 15 29 0 40 4 40 15 0 12 -13 15 -60 15 l-60 0 0 -85z" />
    </g>
</svg>