<?xml version="1.0" standalone="no"?>
<!DOCTYPE svg PUBLIC "-//W3C//DTD SVG 20010904//EN" "http://www.w3.org/TR/2001/REC-SVG-20010904/DTD/svg10.dtd">
<svg version="1.0" xmlns="http://www.w3.org/2000/svg"
    width="2048.000000pt" height="2048.000000pt" viewBox="0 0 2048.000000 2048.000000"
    preserveAspectRatio="xMidYMid meet">

    <g transform="translate(0.000000,2048.000000) scale(0.100000,-0.100000)"
        fill="#fff" stroke="none">
        <path
            d="M10156 17718 c-16 -151 -79 -347 -170 -527 -164 -324 -200 -391 -210
-391 -36 0 -85 117 -101 244 -11 86 -17 86 -78 0 -31 -44 -60 -83 -65 -89 -17
-22 -63 -106 -120 -220 -147 -295 -180 -413 -169 -620 12 -227 106 -453 284
-683 35 -44 282 -221 388 -277 75 -40 112 -51 230 -65 94 -12 177 -5 311 26
33 8 80 14 104 14 28 0 68 12 114 33 39 19 104 49 144 67 81 38 82 39 242 270
104 150 119 187 150 375 25 148 27 394 5 540 -40 267 -160 586 -296 787 -22
32 -39 61 -39 64 0 7 -31 33 -40 34 -3 0 -6 -37 -6 -83 -1 -68 -7 -95 -31
-152 -16 -39 -45 -109 -63 -157 -28 -75 -40 -95 -86 -135 -30 -27 -57 -48 -61
-47 -5 0 -11 13 -14 30 -5 23 -7 18 -8 -22 -1 -66 15 -82 58 -59 89 45 136
116 202 300 23 66 45 124 49 128 13 15 72 -73 112 -165 82 -191 120 -402 121
-673 1 -342 -64 -601 -191 -773 -14 -18 -26 -31 -28 -29 -2 1 7 37 20 78 43
140 60 254 60 409 0 256 -34 445 -99 555 -15 26 -28 45 -30 43 -1 -2 -15 -46
-30 -98 -34 -119 -82 -224 -139 -303 -47 -66 -132 -154 -141 -146 -2 3 -9 49
-15 102 -5 53 -19 140 -31 194 -20 94 -97 330 -125 385 -8 15 -26 60 -40 100
-14 40 -36 94 -49 119 -13 26 -31 77 -40 114 -28 124 -46 131 -59 25 -16 -125
-59 -263 -185 -580 -66 -166 -119 -336 -128 -412 -3 -27 -9 -48 -12 -47 -19 1
-143 203 -188 305 -15 35 -30 64 -34 64 -3 0 -14 -19 -24 -42 -12 -31 -19 -80
-22 -168 -4 -109 -1 -149 26 -305 37 -212 49 -325 33 -325 -20 0 -145 146
-188 220 -52 88 -68 135 -89 254 -53 308 48 668 249 883 l30 33 21 -69 c12
-37 39 -93 61 -125 21 -31 55 -84 75 -117 l36 -59 -5 69 c-8 120 13 177 133
352 85 124 107 175 184 422 44 141 71 200 85 187 21 -17 152 -287 242 -500 47
-113 89 -207 91 -210 10 -11 -10 149 -29 235 -28 129 -54 206 -108 321 -56
121 -109 200 -181 274 -89 91 -86 90 -93 18z m97 -900 c142 -323 200 -560 201
-825 1 -90 4 -163 7 -163 4 0 19 10 35 22 95 71 172 168 278 351 38 64 70 116
72 115 1 -2 12 -39 23 -82 63 -240 43 -538 -50 -732 -43 -92 -108 -158 -193
-198 -265 -125 -610 -101 -749 53 -98 109 -181 366 -221 691 l-6 45 25 -30
c13 -16 46 -59 73 -95 47 -63 134 -134 156 -127 31 10 47 68 58 213 l11 149
68 170 c70 175 128 354 150 463 7 34 16 62 19 62 4 0 23 -37 43 -82z" />
        <path
            d="M13650 17209 c-87 -170 -201 -284 -576 -578 -39 -31 -88 -69 -109
-86 -21 -16 -41 -31 -46 -33 -28 -11 -22 159 9 268 11 41 19 76 17 78 -9 9
-193 -96 -243 -138 -9 -9 -43 -33 -75 -54 -31 -21 -60 -43 -65 -50 -4 -6 -25
-25 -47 -41 -51 -38 -222 -209 -256 -255 -75 -102 -143 -266 -164 -390 -13
-80 -16 -261 -7 -340 14 -109 46 -248 60 -262 7 -7 12 -19 12 -28 0 -9 9 -25
20 -35 11 -10 20 -22 20 -28 0 -5 24 -50 53 -99 28 -49 57 -99 63 -110 23 -40
120 -146 144 -158 14 -6 48 -26 75 -44 84 -55 148 -91 194 -109 42 -17 171
-30 411 -42 58 -3 115 -8 127 -10 24 -6 109 33 197 90 78 50 208 125 216 125
4 0 20 17 36 38 16 20 37 46 47 57 49 53 217 331 217 359 0 7 4 16 8 22 9 10
39 87 70 179 70 207 107 541 83 755 -17 150 -28 216 -39 236 -8 14 -11 11 -22
-22 -17 -52 -57 -112 -99 -149 -37 -34 -84 -80 -145 -143 -47 -50 -70 -63
-141 -82 -27 -8 -54 -18 -58 -24 -5 -6 -5 5 -2 24 6 33 5 34 -10 15 -20 -25
-29 -60 -21 -81 5 -14 16 -16 59 -11 88 9 150 49 279 182 65 66 118 118 119
115 0 -3 3 -14 5 -25 32 -142 18 -347 -37 -540 -38 -130 -141 -390 -173 -435
-6 -8 -20 -31 -30 -50 -99 -184 -237 -340 -374 -424 -34 -22 -64 -37 -67 -35
-2 3 11 20 29 39 110 118 217 287 272 430 14 36 34 85 44 110 43 108 63 204
64 309 1 62 -3 105 -9 107 -5 1 -36 -29 -68 -67 -116 -139 -301 -268 -406
-285 -41 -7 -43 -6 -33 13 17 31 49 131 71 218 36 145 56 332 66 617 3 92 10
182 16 200 11 41 12 111 0 104 -4 -3 -35 -45 -67 -93 -42 -64 -134 -164 -329
-363 -149 -151 -295 -308 -324 -349 -47 -62 -56 -70 -62 -54 -14 39 -30 170
-33 288 -2 66 -9 121 -14 123 -15 5 -99 -107 -133 -178 -17 -36 -51 -137 -75
-225 -50 -184 -105 -355 -116 -361 -11 -7 -44 72 -68 161 -21 80 -29 238 -15
301 51 226 148 405 305 565 47 47 112 104 145 126 60 40 177 103 192 103 5 0
7 -46 5 -102 -3 -71 1 -124 12 -171 9 -38 16 -85 17 -105 l0 -37 18 50 c38
112 113 195 230 255 123 62 200 130 414 363 60 64 114 117 121 117 18 0 22
-94 18 -480 -2 -295 -1 -313 14 -280 64 141 110 497 85 657 -19 120 -70 285
-92 299 -4 2 -18 -14 -29 -37z m-292 -966 c-15 -334 -69 -576 -178 -796 l-49
-97 32 4 c87 12 257 91 352 163 6 5 37 26 70 48 33 21 70 48 83 59 l22 19 0
-34 c0 -19 -11 -76 -25 -127 -86 -321 -270 -579 -467 -654 -84 -32 -253 -21
-398 25 -137 44 -189 74 -282 167 -95 96 -110 127 -123 261 -12 114 33 382 97
578 24 74 32 69 48 -34 6 -38 16 -86 22 -105 16 -51 66 -120 87 -120 30 0 85
71 137 176 47 95 56 106 234 284 102 102 219 227 260 279 52 65 76 88 80 77 3
-8 2 -86 -2 -173z" />
        <path
            d="M6493 16961 c19 -23 46 -86 74 -171 47 -144 58 -224 78 -545 19 -317
19 -315 0 -315 -46 0 -143 82 -215 183 -23 32 -36 43 -41 35 -14 -26 -25 -278
-18 -403 18 -318 68 -524 155 -648 19 -26 34 -50 34 -55 0 -11 139 -153 195
-199 86 -70 253 -165 355 -202 164 -60 500 -59 683 0 31 11 66 19 78 19 11 0
39 13 62 28 23 16 65 41 94 57 54 29 124 97 203 197 60 77 130 174 130 182 0
4 9 19 20 34 17 22 23 53 31 152 5 69 14 169 18 222 9 95 8 100 -24 200 -37
117 -83 238 -95 253 -4 6 -25 43 -45 83 -20 40 -57 102 -83 138 -26 36 -56 79
-67 94 -58 82 -223 251 -319 325 -21 17 -50 40 -65 52 -14 13 -31 23 -38 23
-6 0 -13 4 -15 9 -2 7 -75 57 -140 96 -82 50 -218 111 -218 98 0 -3 14 -28 30
-55 32 -52 38 -71 70 -244 24 -134 25 -199 3 -267 -9 -29 -18 -54 -20 -56 -1
-2 -14 9 -28 25 l-26 29 19 -44 c33 -80 66 -81 103 -4 32 66 38 203 14 299
-21 85 -34 174 -25 174 81 0 309 -181 446 -355 90 -114 95 -120 155 -220 154
-251 235 -478 245 -680 7 -122 -7 -197 -21 -115 -11 70 -74 247 -118 335 -32
66 -157 267 -177 285 -3 3 -23 27 -45 54 -62 77 -130 140 -186 170 -53 30 -67
29 -51 -1 6 -10 20 -65 33 -123 36 -163 31 -342 -13 -452 -6 -16 -13 -28 -17
-28 -3 0 -19 21 -36 48 -34 53 -138 177 -200 237 -55 54 -199 175 -315 265
-52 41 -97 77 -100 80 -3 4 -23 17 -45 29 -22 13 -56 42 -75 65 -32 39 -78 71
-87 62 -3 -2 4 -21 15 -43 21 -40 59 -164 86 -273 15 -63 20 -91 51 -300 24
-165 65 -349 95 -433 17 -44 28 -82 26 -84 -9 -9 -198 89 -289 150 l-99 66 7
-42 c17 -104 90 -238 204 -372 100 -117 197 -240 221 -279 l23 -39 -39 7 c-73
14 -187 57 -256 97 -268 157 -466 568 -445 924 4 55 13 118 20 139 l13 39 22
-27 c21 -28 148 -116 166 -116 15 0 98 -41 125 -62 34 -26 37 -15 8 24 -14 18
-37 56 -51 85 -30 59 -35 130 -22 328 9 128 0 191 -58 437 -14 56 -26 126 -29
155 l-4 52 46 -27 c25 -14 48 -30 49 -34 2 -4 8 -8 14 -8 15 0 356 -234 378
-260 3 -3 21 -17 40 -30 19 -14 43 -31 52 -40 28 -26 82 -55 73 -39 -26 45
-120 155 -193 226 -187 185 -365 289 -560 327 -57 12 -61 11 -49 -3z m596
-793 c198 -148 327 -268 435 -403 68 -84 186 -265 186 -283 0 -4 6 -17 14 -27
13 -18 15 -16 34 25 39 87 55 187 61 387 l6 191 30 -27 c86 -77 193 -223 255
-349 124 -249 138 -476 37 -607 -171 -224 -380 -344 -602 -345 -35 0 -69 9
-117 32 -38 17 -68 35 -68 40 0 4 -5 8 -11 8 -16 0 -83 54 -168 135 -74 70
-275 304 -268 311 6 6 82 -22 109 -40 38 -24 134 -47 185 -44 l48 3 -1 47 c0
37 -13 71 -61 165 -60 117 -67 138 -93 308 -29 189 -71 387 -101 474 -21 58
-23 71 -12 71 3 0 49 -32 102 -72z" />
        <path
            d="M9970 13554 c-456 -25 -695 -52 -1003 -115 -365 -73 -648 -175 -854
-306 -77 -48 -196 -169 -226 -230 -65 -128 -55 -297 22 -374 14 -15 51 -53 83
-86 31 -32 79 -74 107 -93 27 -19 52 -45 56 -57 3 -13 8 -71 10 -130 3 -60 12
-164 20 -233 8 -69 35 -312 61 -540 25 -228 50 -417 55 -420 4 -3 11 -59 15
-125 4 -66 11 -123 16 -126 5 -3 10 -48 11 -100 1 -52 5 -96 9 -99 4 -3 9 -43
10 -88 2 -45 6 -82 11 -82 4 0 7 -12 7 -27 0 -16 13 -138 29 -273 52 -430 82
-720 76 -730 -3 -6 -2 -10 3 -10 12 0 19 -47 31 -195 12 -138 49 -472 56 -505
16 -69 51 -118 122 -171 40 -30 73 -57 73 -61 0 -5 6 -8 13 -8 8 0 49 -17 93
-39 43 -21 99 -44 124 -51 25 -8 50 -17 55 -20 10 -7 33 -13 110 -29 22 -5 92
-20 155 -34 63 -14 158 -31 210 -37 52 -6 127 -16 165 -21 251 -33 717 -39
987 -14 185 18 470 60 563 83 22 6 69 18 105 27 36 9 74 20 85 25 11 5 38 14
60 21 22 7 53 20 70 30 16 11 38 19 48 19 10 0 26 8 37 18 10 9 40 28 66 42
26 14 76 53 110 87 76 76 87 108 109 313 9 80 34 300 55 490 22 190 44 388 50
440 6 52 26 232 46 400 19 168 39 346 44 395 5 50 21 189 35 310 40 350 64
560 80 700 8 72 21 191 30 265 8 74 24 214 35 310 11 96 23 184 25 196 3 12
32 39 70 63 109 70 200 196 223 306 48 232 -105 420 -475 585 -325 144 -836
252 -1378 290 -155 11 -691 20 -805 14z m571 -275 c129 -6 236 -12 238 -14 4
-5 -61 -95 -69 -95 -3 0 -108 -101 -232 -225 -125 -124 -229 -225 -232 -225
-11 0 -536 530 -536 540 0 5 19 11 43 11 23 1 107 5 187 9 233 11 352 11 601
-1z m-652 -324 l294 -295 -19 -22 c-10 -13 -115 -119 -233 -237 l-214 -214
-86 7 c-110 8 -248 23 -331 36 -36 5 -85 13 -109 17 -41 5 -57 18 -190 150
l-144 145 354 354 c195 195 361 354 369 354 9 0 148 -133 309 -295z m1387 -55
c192 -193 350 -353 352 -358 1 -4 -62 -71 -140 -148 l-143 -141 -77 -11 c-205
-31 -385 -52 -444 -52 l-49 0 -227 228 c-125 125 -230 230 -234 234 -9 10 578
598 597 598 10 0 174 -158 365 -350z m-16 310 c36 -6 92 -15 125 -20 56 -9 85
-15 183 -39 20 -5 68 -16 105 -25 65 -14 229 -66 272 -86 11 -5 36 -14 56 -21
88 -29 92 -21 -111 -224 -102 -102 -190 -185 -195 -185 -6 0 -49 38 -96 85
-46 47 -115 116 -153 153 -38 37 -74 73 -80 80 -6 6 -42 43 -81 82 -38 38 -74
74 -80 80 -5 6 -38 38 -72 72 -34 33 -60 64 -58 68 4 7 68 0 185 -20z m-1840
17 c0 -6 -611 -612 -620 -615 -6 -2 -94 80 -196 183 -169 169 -184 188 -168
199 25 16 201 83 239 91 17 4 39 10 50 15 21 10 234 60 325 78 212 41 263 49
323 51 26 0 47 0 47 -2z m-886 -484 c108 -108 196 -199 196 -203 0 -14 -136
-140 -151 -140 -31 0 -234 95 -319 149 -96 61 -159 144 -147 194 8 31 82 126
105 134 9 3 24 12 32 19 17 14 72 44 82 44 3 0 95 -88 202 -197z m3696 160
c123 -83 161 -147 131 -225 -10 -27 -80 -96 -132 -131 -57 -38 -256 -130 -304
-141 -27 -6 -36 0 -99 63 -39 39 -67 74 -63 78 74 80 394 393 402 393 6 0 35
-17 65 -37z m-1775 -513 c109 -110 195 -203 191 -207 -11 -11 -737 -16 -777
-5 l-34 8 201 202 c111 111 206 202 211 202 4 0 98 -90 208 -200z m-1634 68
c8 -7 49 -48 90 -92 l74 -78 -35 5 c-19 3 -53 10 -75 16 -22 5 -69 17 -105 26
-36 9 -69 20 -74 25 -10 10 81 110 100 110 5 0 17 -6 25 -12z m2932 -34 c23
-25 42 -51 42 -58 0 -6 -56 -25 -125 -43 -140 -35 -153 -37 -148 -23 6 20 162
170 176 170 7 0 32 -21 55 -46z m-3437 -201 c31 -14 58 -32 61 -39 5 -14 -95
-114 -114 -114 -7 0 -13 6 -13 13 0 6 -5 43 -10 80 -14 98 -11 101 76 60z
m3929 -45 c-8 -73 -14 -98 -24 -98 -4 0 -29 22 -56 50 -35 35 -46 53 -39 60
20 20 79 48 102 49 23 1 24 0 17 -61z m-3530 -109 c108 -30 176 -43 408 -84
199 -34 224 -43 260 -92 17 -22 17 -23 -328 -368 -190 -190 -350 -357 -355
-370 -13 -35 -54 -53 -74 -32 -9 9 -16 21 -16 29 0 7 -63 76 -141 154 l-141
141 -28 254 -28 253 26 30 c15 17 59 61 98 98 l71 67 84 -29 c46 -16 120 -39
164 -51z m3403 -10 c87 -86 92 -93 92 -133 0 -35 -24 -259 -46 -432 -6 -51 -9
-55 -165 -210 -87 -87 -162 -155 -166 -151 -4 4 -173 173 -376 375 l-367 367
39 39 c37 36 47 41 123 52 46 7 135 23 198 34 63 12 137 26 165 31 55 10 106
24 280 79 66 21 122 39 125 39 3 1 47 -40 98 -90z m-2300 -149 c201 -13 652
-13 903 1 186 10 202 10 220 -7 10 -9 19 -23 19 -31 0 -7 -160 -174 -356 -369
-352 -353 -355 -356 -376 -338 -64 58 -698 699 -698 706 0 5 11 19 23 32 20
20 32 23 68 20 24 -2 113 -8 197 -14z m2 -456 c195 -195 357 -357 360 -360 6
-7 -732 -744 -745 -744 -6 0 -170 159 -364 354 l-355 355 49 53 c73 78 689
696 695 697 3 1 165 -159 360 -355z m1583 -13 c202 -203 367 -372 367 -377 0
-11 -702 -714 -713 -714 -18 0 -738 731 -735 746 3 14 697 714 708 714 3 0
171 -166 373 -369z m-3013 -156 c12 -13 28 -34 34 -47 6 -12 21 -28 34 -34 30
-15 62 -45 62 -58 0 -5 16 -27 36 -47 l36 -37 -55 -59 c-30 -32 -70 -75 -87
-95 -18 -21 -41 -38 -51 -38 -16 0 -18 7 -18 48 2 66 -22 275 -33 287 -4 5 -8
31 -8 57 0 55 14 62 50 23z m3746 -37 c-4 -24 -11 -88 -17 -143 -15 -147 -24
-214 -29 -219 -7 -7 -180 161 -180 175 0 13 210 229 223 229 5 0 6 -19 3 -42z
m-1153 -956 c5 -8 7 -15 5 -17 -1 -2 -169 -171 -373 -375 l-370 -370 -374 374
c-358 358 -373 375 -357 393 10 10 178 179 374 376 l357 357 365 -362 c200
-200 368 -369 373 -376z m-1908 289 c160 -160 290 -295 290 -301 0 -5 -158
-168 -351 -362 -192 -194 -355 -365 -362 -380 -8 -19 -19 -28 -33 -28 -27 0
-59 27 -59 50 0 9 -5 21 -11 27 -5 5 -23 127 -39 269 -17 142 -39 333 -49 424
-11 91 -28 236 -37 323 l-16 157 122 120 123 120 66 -64 c36 -35 197 -195 356
-355z m2894 293 l112 -115 -6 -57 c-3 -31 -10 -91 -15 -132 -5 -41 -16 -138
-25 -215 -8 -77 -22 -198 -31 -270 -8 -71 -19 -173 -24 -227 -20 -219 -31
-271 -63 -300 -16 -16 -34 -28 -40 -28 -16 0 -747 734 -747 750 0 19 691 710
710 710 9 0 66 -52 129 -116z m-2154 -1034 c201 -200 364 -368 363 -372 -2 -5
-66 -71 -142 -148 l-138 -138 -97 -6 c-113 -7 -205 -19 -396 -52 -139 -24
-161 -29 -265 -57 -42 -12 -59 -13 -70 -4 -41 31 -391 390 -388 398 7 21 744
749 756 747 7 -2 177 -167 377 -368z m1620 0 c204 -204 372 -375 373 -380 2
-6 -87 -101 -197 -212 l-201 -201 -92 26 c-172 49 -333 76 -598 101 l-135 13
-125 127 c-69 70 -129 136 -134 147 -8 18 37 67 355 385 200 200 369 364 374
364 6 0 177 -167 380 -370z m-1038 -580 c29 -30 53 -58 53 -62 0 -5 -93 -8
-207 -8 l-206 0 19 23 c10 12 56 61 103 109 l85 88 50 -48 c28 -26 74 -72 103
-102z m-1745 107 c14 -18 93 -101 177 -185 141 -142 166 -172 141 -172 -16 0
-203 -94 -239 -120 -19 -14 -48 -37 -65 -53 l-31 -27 -8 27 c-4 16 -12 69 -16
118 -23 227 -35 315 -42 315 -16 0 -10 93 8 112 24 27 47 22 75 -15z m3253 3
c15 -16 17 -29 11 -77 -4 -32 -13 -112 -21 -178 -29 -243 -35 -288 -39 -292
-2 -3 -24 9 -48 27 -71 52 -141 93 -222 130 -41 19 -75 38 -73 42 3 12 360
368 367 368 4 0 15 -9 25 -20z m-1437 -266 l92 -7 217 -219 c120 -120 220
-223 222 -229 2 -6 -97 -111 -220 -235 l-224 -224 -309 0 -309 0 -223 224
c-123 124 -224 228 -224 233 0 4 99 107 220 228 l220 220 78 6 c114 9 356 10
460 3z m-688 -39 c-12 -15 -282 -285 -328 -328 l-30 -29 -127 126 c-126 124
-146 156 -96 156 11 0 46 7 78 16 32 9 99 23 148 30 50 8 109 19 133 24 23 6
61 10 85 11 23 0 60 4 82 8 50 9 70 4 55 -14z m1060 5 c112 -11 214 -26 273
-40 23 -6 73 -18 112 -26 123 -28 124 -20 -18 -160 -68 -68 -130 -124 -138
-124 -7 0 -93 80 -190 177 -161 159 -199 206 -151 188 10 -3 60 -10 112 -15z
m-1617 -284 c76 -76 135 -141 132 -145 -76 -84 -295 -291 -308 -291 -24 0
-196 78 -276 125 -32 19 -93 80 -107 107 -17 33 -18 91 -3 121 20 38 71 91
108 114 125 76 278 136 301 119 8 -6 77 -73 153 -150z m2282 134 c93 -36 205
-92 205 -102 0 -4 6 -8 13 -8 14 0 73 -59 101 -100 44 -66 -8 -179 -106 -231
-12 -6 -25 -15 -28 -18 -8 -11 -151 -77 -207 -97 l-51 -17 -34 29 c-18 16 -86
83 -151 150 l-118 120 152 151 c144 142 154 150 178 141 14 -6 35 -14 46 -18z
m-1892 -522 c160 -162 178 -183 156 -187 -53 -8 -504 68 -583 99 l-30 11 129
129 c72 72 134 130 139 130 4 0 90 -82 189 -182z m1592 52 c69 -68 121 -128
117 -132 -30 -30 -647 -134 -622 -105 41 49 366 367 372 365 5 -2 64 -59 133
-128z" />
        <path
            d="M5125 7030 c-4 -22 -4 -53 0 -69 l6 -29 94 -4 c51 -1 96 -6 99 -9 14
-14 28 -281 23 -454 -3 -104 -3 -196 0 -202 3 -8 25 -13 58 -13 41 0 55 4 61
18 4 9 9 118 9 242 1 124 5 269 10 323 l8 97 82 0 c78 0 82 1 93 25 7 14 12
41 12 60 0 28 -4 35 -20 35 -11 0 -20 5 -20 10 0 6 -91 10 -254 10 l-254 0 -7
-40z m313 -20 c140 0 193 -3 190 -11 -3 -8 -37 -11 -107 -10 l-103 2 3 -345
c2 -259 0 -349 -9 -358 -9 -9 -12 53 -13 283 -1 161 -4 321 -8 354 l-6 60
-112 3 c-62 1 -113 6 -113 11 0 17 16 23 50 17 19 -3 122 -6 228 -6z" />
        <path
            d="M5863 7055 c-10 -11 -13 -92 -13 -333 0 -175 3 -353 6 -395 l7 -77
57 0 57 0 7 78 c3 43 3 93 0 110 l-6 32 74 0 c70 0 77 -2 107 -30 17 -17 31
-34 31 -39 0 -13 36 -51 49 -51 6 0 11 -9 11 -20 0 -11 7 -20 15 -20 8 0 15
-4 15 -8 0 -5 8 -19 19 -30 15 -18 29 -22 78 -22 l60 0 -5 28 c-3 15 -13 34
-24 43 -10 9 -18 20 -18 25 0 5 -13 23 -28 39 -41 44 -82 107 -82 127 0 9 29
47 64 84 70 72 86 112 86 215 0 64 -20 107 -73 155 -39 36 -63 51 -119 73 -13
5 -36 14 -51 20 -43 17 -309 14 -324 -4z m349 -54 c55 -14 73 -24 106 -61 23
-24 46 -62 52 -86 16 -55 9 -138 -15 -187 -22 -46 -90 -115 -122 -123 -28 -7
-29 -15 -3 -32 11 -7 20 -20 20 -30 0 -9 25 -51 55 -92 30 -41 55 -81 55 -90
-1 -10 -8 -6 -23 12 -40 49 -85 113 -86 122 0 5 -10 14 -23 20 -13 6 -27 22
-33 34 -9 20 -17 23 -60 22 -27 -1 -75 1 -105 3 -98 8 -100 5 -100 -120 0 -68
-3 -104 -10 -97 -11 11 -17 695 -6 713 12 18 219 13 298 -8z" />
        <path
            d="M5934 6977 c-3 -8 -3 -108 -1 -223 l5 -209 128 3 c83 3 136 8 149 17
35 22 94 85 112 118 42 78 8 230 -57 257 -17 7 -30 16 -30 21 0 28 -295 43
-306 16z m251 -50 c60 -17 84 -48 92 -117 3 -32 3 -74 -1 -93 -14 -73 -104
-130 -218 -139 -51 -4 -57 -2 -62 16 -3 12 -5 96 -6 188 0 165 0 167 22 170
28 4 118 -9 173 -25z" />
        <path
            d="M6805 7057 c-27 -16 -35 -28 -35 -53 0 -12 -9 -50 -20 -84 -11 -34
-20 -77 -20 -95 0 -18 -9 -42 -20 -55 -12 -14 -20 -37 -20 -61 0 -21 -8 -53
-19 -71 -10 -18 -22 -52 -25 -76 -3 -23 -18 -76 -31 -117 -24 -70 -32 -146
-19 -179 4 -11 19 -16 43 -16 41 0 54 16 66 84 l7 36 123 0 c132 0 135 -1 135
-54 0 -39 32 -66 78 -66 51 0 60 20 38 93 -8 29 -17 64 -20 79 -4 15 -13 33
-21 42 -8 8 -15 31 -15 50 0 20 -4 36 -10 36 -5 0 -10 10 -10 23 0 32 -27 129
-38 136 -5 3 -12 24 -15 46 -8 47 -43 167 -62 211 -8 18 -17 48 -20 68 -8 39
-30 47 -70 23z m45 -121 c0 -12 4 -26 9 -31 4 -6 13 -28 19 -50 5 -22 15 -53
21 -70 14 -39 93 -299 120 -394 21 -76 15 -121 -8 -59 -33 87 -14 78 -175 78
l-144 0 -23 -55 c-18 -43 -25 -52 -32 -40 -5 10 -5 21 1 28 11 13 38 110 48
172 3 22 8 44 11 48 3 5 18 54 33 110 30 110 78 273 85 296 8 20 35 -6 35 -33z" />
        <path
            d="M6810 6865 c0 -10 -13 -60 -29 -113 -16 -54 -35 -122 -41 -152 -7
-30 -18 -73 -26 -95 -25 -71 -24 -72 69 -73 45 -1 107 2 139 6 l56 7 -24 75
c-13 41 -28 84 -33 95 -6 11 -20 56 -32 100 -12 44 -27 98 -33 120 -11 41 -46
63 -46 30z m51 -220 c4 -11 16 -49 24 -84 19 -73 14 -81 -47 -81 -61 0 -66 5
-56 53 5 23 13 62 17 87 5 25 11 53 15 63 3 9 9 25 12 35 5 13 9 9 16 -18 6
-19 14 -44 19 -55z" />
        <path
            d="M7445 7060 c-3 -5 -19 -10 -35 -10 -22 0 -42 -14 -87 -61 -32 -33
-64 -72 -72 -86 -29 -56 14 -186 73 -223 20 -12 44 -19 52 -16 37 14 219 -60
262 -107 31 -33 40 -98 18 -132 -38 -58 -137 -81 -215 -49 -40 16 -100 78
-122 128 -14 30 -60 36 -85 12 -15 -16 -19 -66 -5 -66 5 0 12 -15 16 -32 8
-42 98 -120 157 -137 24 -7 57 -17 74 -22 40 -12 101 -12 109 1 3 6 22 10 41
10 42 0 72 27 108 98 54 107 21 302 -51 302 -10 0 -29 9 -41 20 -13 12 -35 20
-56 20 -19 0 -38 5 -41 10 -3 6 -17 10 -31 10 -13 0 -24 5 -24 10 0 6 -11 10
-25 10 -14 0 -25 5 -25 10 0 6 -7 10 -15 10 -8 0 -15 5 -15 10 0 6 -5 10 -11
10 -19 0 -39 28 -39 54 0 14 4 26 9 26 5 0 12 8 16 19 13 42 41 61 89 61 25 0
46 -4 46 -10 0 -5 11 -10 25 -10 14 0 25 -4 25 -10 0 -5 6 -10 14 -10 8 0 18
-9 21 -21 22 -67 120 -105 143 -55 23 51 -49 188 -101 194 -15 2 -27 7 -27 12
0 8 -108 30 -148 30 -11 0 -24 -4 -27 -10z m123 -52 c26 -6 60 -20 76 -31 29
-20 63 -84 50 -96 -4 -3 -9 1 -12 9 -3 8 -21 31 -41 51 -57 57 -148 71 -248
36 -44 -15 -89 -99 -80 -152 7 -46 25 -66 80 -93 35 -17 143 -52 162 -53 22 0
103 -45 126 -70 37 -39 43 -66 35 -141 -10 -102 -67 -157 -169 -165 -79 -7
-183 19 -214 51 -26 28 -73 123 -65 130 13 14 30 4 35 -21 3 -16 19 -46 35
-68 24 -33 40 -43 93 -59 55 -16 72 -17 119 -7 66 13 98 35 127 87 27 46 31
128 8 161 -15 21 -90 63 -114 63 -7 0 -31 8 -54 19 -23 10 -67 25 -97 32 -93
23 -133 74 -129 166 3 66 7 83 21 83 6 0 19 11 30 25 21 27 92 53 146 54 18 1
54 -4 80 -11z" />
        <path
            d="M7961 7044 c-9 -20 -11 -122 -10 -377 1 -410 3 -417 73 -417 41 0 44
2 50 31 3 17 6 102 6 188 0 86 4 161 8 167 17 26 56 33 199 35 124 2 153 0
166 -13 12 -12 16 -50 19 -195 3 -196 8 -213 58 -213 55 0 55 1 57 407 2 279
-1 379 -10 394 -14 23 -54 25 -85 3 -20 -14 -22 -23 -22 -108 0 -51 -5 -107
-11 -124 l-10 -30 -172 -4 c-95 -2 -177 -2 -183 0 -23 7 -34 56 -34 152 0 91
-2 100 -22 114 -34 24 -63 20 -77 -10z m581 -326 c5 -303 0 -432 -17 -395 -4
11 -5 63 -2 116 3 54 3 138 0 187 l-6 89 -191 -1 c-197 -1 -276 -8 -288 -28
-4 -6 -8 -96 -8 -199 0 -147 -3 -188 -12 -184 -13 4 -16 87 -9 272 2 50 0 150
-4 223 -6 120 -1 201 12 189 2 -3 8 -58 13 -122 4 -64 10 -119 14 -122 3 -4
41 -6 83 -5 43 0 149 1 236 1 l157 1 0 140 c0 77 4 140 8 140 5 0 11 -136 14
-302z" />
        <path
            d="M9545 7060 c-71 -10 -147 -34 -192 -62 -38 -23 -127 -152 -143 -206
-33 -114 -17 -248 41 -349 73 -128 235 -202 415 -191 98 7 128 27 132 89 4 67
-5 74 -68 55 -68 -20 -154 -20 -212 0 -58 19 -142 105 -157 160 -14 51 -14
152 1 195 31 94 115 165 206 176 52 6 137 -10 184 -33 25 -13 28 -12 38 5 13
26 13 74 -1 105 -21 46 -131 71 -244 56z m168 -66 c54 -18 66 -42 15 -28 -18
5 -78 9 -133 9 -91 0 -104 -3 -146 -27 -97 -57 -158 -153 -167 -265 -15 -191
113 -337 307 -350 53 -4 89 -1 119 10 48 17 65 6 29 -18 -57 -37 -204 -27
-297 20 -60 31 -114 85 -148 148 -24 47 -27 62 -27 157 0 98 2 110 32 170 31
62 82 116 143 151 67 38 198 49 273 23z" />
        <path
            d="M10490 7061 l-25 -7 0 -129 0 -130 -120 -7 c-66 -4 -150 -5 -186 -2
l-66 6 -7 126 c-4 69 -9 129 -12 134 -3 4 -29 8 -59 8 -41 0 -54 -4 -60 -17
-10 -28 6 -766 17 -780 6 -8 33 -13 64 -13 l54 0 2 203 3 202 190 0 189 0 -3
-175 c-1 -106 2 -186 8 -202 9 -25 15 -28 60 -28 27 0 53 6 59 13 15 19 8 773
-8 792 -13 16 -57 18 -100 6z m60 -281 c1 -427 0 -480 -10 -480 -6 0 -10 75
-10 205 l0 205 -244 0 -243 0 -7 -123 c-4 -68 -4 -161 0 -207 6 -69 5 -82 -7
-78 -12 4 -14 64 -16 356 -2 353 8 467 20 221 4 -73 8 -133 9 -135 6 -5 94 -7
297 -5 l193 1 -2 128 c-3 155 -3 159 10 146 5 -5 10 -104 10 -234z" />
        <path
            d="M10985 7056 c-8 -6 -35 -83 -61 -171 -86 -295 -153 -537 -159 -578
-9 -47 2 -57 62 -57 47 0 56 10 67 71 l6 36 105 6 c57 4 111 4 119 1 9 -3 21
-25 27 -48 6 -22 16 -47 21 -53 15 -18 107 -17 114 1 3 8 -12 70 -34 138 -22
68 -46 146 -52 173 -7 28 -23 79 -35 115 -13 36 -42 133 -65 216 -41 149 -42
152 -71 156 -16 3 -36 0 -44 -6z m75 -208 c23 -73 52 -164 66 -203 29 -85 94
-314 94 -333 0 -30 -25 -3 -39 44 l-16 49 -147 3 -146 3 -16 -56 c-9 -30 -21
-55 -26 -55 -15 0 -12 20 15 122 14 51 43 158 65 238 22 80 51 183 65 229 14
47 25 86 25 88 0 2 4 3 10 3 5 0 28 -60 50 -132z" />
        <path
            d="M11006 6901 c-4 -6 -13 -32 -20 -58 -7 -27 -31 -113 -54 -193 -22
-80 -43 -162 -47 -182 l-7 -38 141 0 c165 0 157 -10 111 126 -17 49 -44 134
-60 190 -37 127 -55 170 -64 155z m53 -292 c17 -64 31 -119 31 -122 0 -4 -31
-7 -70 -7 -38 0 -70 4 -70 9 0 13 27 123 47 194 9 32 20 54 24 50 4 -4 21 -60
38 -124z" />
        <path
            d="M13712 7058 c-8 -8 -10 -84 -5 -290 4 -165 3 -278 -3 -278 -13 1
-228 304 -343 486 l-54 85 -46 -3 -46 -3 -2 -155 c-2 -85 0 -265 5 -400 l7
-244 30 -6 c17 -3 44 -3 60 0 l30 5 -3 228 c-1 136 1 227 7 227 5 0 20 -17 32
-37 38 -63 174 -239 310 -400 15 -18 29 -23 66 -23 27 0 54 4 60 8 19 12 30
791 12 803 -20 13 -103 11 -117 -3z m72 -402 c-1 -191 -6 -352 -10 -356 -13
-13 -26 -2 -61 50 -17 25 -69 91 -115 146 -45 56 -130 174 -188 262 -58 88
-107 161 -110 161 -3 1 -4 -138 -3 -309 1 -281 -3 -341 -21 -294 -3 9 -6 162
-6 340 0 269 2 324 14 324 15 0 24 -12 112 -157 64 -104 162 -240 253 -348 28
-33 63 -77 77 -98 15 -20 28 -36 30 -34 2 2 4 153 4 336 1 250 4 331 13 328 9
-3 12 -92 11 -351z" />
        <path
            d="M14377 7060 c-130 -21 -259 -117 -323 -241 -25 -49 -28 -64 -28 -159
-1 -149 16 -195 108 -285 96 -95 163 -120 321 -120 71 0 122 5 143 14 l32 14
-2 206 -3 206 -115 0 -115 0 0 -55 0 -55 50 -5 50 -5 3 -93 c3 -88 2 -93 -20
-103 -39 -17 -161 13 -213 53 -117 90 -146 243 -69 369 39 65 85 104 150 126
42 14 84 14 229 1 30 -3 30 -3 33 53 3 52 1 56 -24 68 -37 16 -136 22 -207 11z
m161 -46 c47 -13 19 -24 -61 -24 -178 0 -304 -77 -357 -217 -40 -106 -11 -255
68 -345 44 -49 130 -85 224 -94 42 -3 92 -4 113 0 l36 7 -2 132 c0 72 -3 137
-6 144 -3 9 -25 13 -64 13 -77 0 -76 16 2 24 91 11 90 12 87 -178 l-3 -161
-45 -5 c-144 -16 -289 27 -358 105 -66 75 -84 120 -89 220 -4 75 -2 99 16 146
39 103 132 186 244 219 62 19 153 25 195 14z" />
        <path
            d="M11447 7054 c-9 -9 -10 -766 -1 -788 5 -14 30 -16 174 -16 186 0 180
-2 180 70 0 57 -14 63 -130 55 l-100 -7 -2 343 -3 344 -55 3 c-31 2 -59 0 -63
-4z m68 -282 c1 -125 2 -278 3 -340 l2 -114 108 2 c131 3 135 2 127 -10 -4 -6
-58 -10 -129 -10 l-123 0 -8 170 c-7 166 -5 517 3 533 13 26 16 -27 17 -231z" />
        <path
            d="M11983 7054 c-10 -4 -13 -88 -12 -372 1 -202 4 -380 8 -397 l6 -30
170 0 170 0 0 60 0 60 -112 -3 -113 -3 -2 343 -3 343 -50 2 c-27 1 -56 0 -62
-3z m67 -390 l0 -346 108 2 c133 2 132 2 132 -10 0 -6 -50 -10 -130 -10 l-130
0 0 355 c0 230 4 355 10 355 6 0 10 -122 10 -346z" />
        <path
            d="M12558 7053 l-58 -4 -1 -327 c-1 -384 0 -455 11 -462 4 -3 122 -5
262 -5 l253 0 3 49 c2 32 -1 52 -10 57 -7 5 -97 9 -200 9 l-188 0 0 145 0 145
38 1 c20 0 98 1 172 2 l135 2 3 44 c2 24 -1 48 -7 54 -10 10 -61 13 -243 16
l-98 1 0 63 c0 114 -15 106 192 105 103 0 184 4 190 10 5 5 8 29 6 53 l-3 44
-200 1 c-110 0 -226 -1 -257 -3z m385 -42 c20 -1 37 -5 37 -11 0 -6 -73 -10
-199 -10 l-200 0 -3 -52 c-2 -29 -2 -88 0 -130 l4 -78 174 0 c148 0 174 -2
174 -15 0 -13 -18 -14 -122 -10 -68 3 -147 2 -175 -1 l-53 -6 0 -183 0 -182
128 -6 c70 -4 160 -7 200 -7 43 0 72 -4 72 -10 0 -7 -70 -10 -212 -8 l-213 3
-3 320 c-1 176 0 334 3 352 l6 32 107 3 c59 2 136 2 172 1 36 -1 82 -2 103 -2z" />
        <path
            d="M14878 7053 l-58 -4 -1 -327 c-1 -404 0 -455 11 -462 4 -3 122 -5
262 -5 l253 0 3 49 c2 32 -1 52 -10 57 -7 5 -97 9 -200 9 l-188 0 0 145 0 145
38 1 c20 0 98 1 172 2 l135 2 3 44 c2 24 -1 48 -7 54 -10 10 -52 13 -243 16
l-98 1 0 63 c0 114 -15 106 192 106 99 0 185 4 190 9 5 5 8 29 6 53 l-3 44
-200 1 c-110 0 -226 -1 -257 -3z m385 -42 c20 -1 37 -5 37 -11 0 -6 -73 -10
-200 -10 l-200 0 0 -130 0 -130 175 -2 c108 -2 175 -7 175 -13 0 -6 -43 -9
-113 -7 -61 1 -140 0 -174 -4 l-63 -6 0 -182 0 -183 128 -6 c70 -4 160 -7 200
-7 43 0 72 -4 72 -10 0 -7 -70 -10 -212 -8 l-213 3 -3 320 c-1 176 0 334 3
352 l6 32 112 3 c62 2 139 2 172 1 33 -1 77 -2 98 -2z" />
        <path
            d="M10370 5367 c-3 -3 -60 -13 -128 -22 -258 -33 -444 -123 -611 -293
-176 -178 -251 -304 -289 -485 -34 -162 -36 -340 -4 -436 12 -36 19 -68 16
-73 -8 -13 33 -132 71 -207 18 -36 59 -95 92 -130 84 -93 268 -248 311 -262
20 -6 58 -23 83 -36 57 -29 232 -70 364 -84 148 -16 332 -1 474 38 97 27 90
-16 90 536 0 451 -2 486 -19 514 -24 40 -61 44 -319 32 -244 -11 -255 -14
-259 -84 -2 -28 -1 -87 3 -132 l7 -82 34 -11 c23 -8 63 -10 112 -5 113 9 110
15 113 -190 3 -250 3 -252 -26 -280 -21 -22 -33 -25 -98 -25 -78 0 -222 27
-325 61 -59 20 -131 67 -214 141 -41 38 -137 204 -169 293 -43 124 -30 376 26
469 13 23 38 68 56 101 20 36 67 93 119 143 121 119 203 157 400 187 124 18
254 9 360 -26 129 -43 138 -35 142 128 l3 121 -30 31 c-17 18 -51 38 -80 47
-49 15 -295 32 -305 21z m263 -150 c27 -12 38 -22 35 -34 -3 -14 -12 -17 -43
-15 -22 2 -110 4 -195 4 -132 0 -171 -4 -261 -25 -122 -30 -200 -62 -263 -109
-25 -18 -69 -51 -98 -73 -161 -120 -274 -326 -285 -520 -6 -109 9 -272 32
-340 10 -27 40 -97 68 -155 43 -88 64 -118 128 -182 66 -65 93 -84 200 -137
68 -34 147 -66 174 -71 28 -5 134 -13 236 -16 188 -7 274 2 291 29 17 27 5
695 -12 710 -3 2 -65 1 -138 -2 -143 -6 -175 -1 -170 26 3 16 23 19 167 27
152 7 165 7 181 -10 17 -17 19 -56 28 -414 5 -217 6 -398 3 -402 -3 -3 -51
-13 -106 -21 -139 -19 -419 -7 -519 23 -101 31 -254 111 -325 170 -116 97
-228 277 -273 440 -31 116 -31 325 1 445 24 89 75 203 120 267 54 79 175 195
261 251 113 73 220 109 450 151 59 11 275 -1 313 -17z" />
        <path
            d="M12340 5367 c-3 -4 -63 -13 -133 -22 -187 -23 -344 -82 -482 -180
-124 -89 -282 -275 -357 -420 -37 -70 -46 -103 -68 -240 -27 -166 -26 -253 8
-395 6 -25 18 -76 27 -115 24 -103 79 -198 165 -289 99 -105 254 -232 299
-247 20 -6 57 -22 84 -36 62 -31 226 -69 357 -83 234 -26 547 27 563 93 3 12
5 236 4 497 -2 358 -5 480 -15 497 -21 38 -65 42 -314 32 -192 -8 -235 -12
-250 -26 -15 -14 -18 -32 -18 -122 0 -58 3 -116 6 -128 9 -34 51 -45 146 -39
46 2 90 1 98 -4 12 -8 15 -47 15 -229 0 -259 3 -252 -101 -261 -117 -10 -362
52 -446 112 -97 71 -148 123 -191 197 -103 177 -122 245 -114 410 6 130 27
220 61 266 12 16 38 58 56 93 46 88 166 200 269 251 67 34 100 44 213 61 153
23 276 17 382 -20 76 -26 122 -26 136 -1 5 11 10 74 10 139 l0 120 -30 26
c-17 14 -54 33 -83 41 -51 16 -287 33 -297 22z m209 -137 c75 -11 104 -31 80
-56 -14 -13 -25 -14 -85 -3 -139 24 -378 -4 -538 -62 -71 -27 -197 -109 -293
-192 -81 -71 -188 -264 -214 -389 -16 -72 -4 -341 17 -406 9 -26 42 -101 74
-167 47 -97 69 -131 117 -178 77 -75 110 -97 246 -162 104 -50 119 -55 221
-65 60 -5 170 -10 243 -10 154 0 198 12 209 56 8 30 -4 596 -13 657 -6 37 -7
38 -42 33 -20 -3 -85 -7 -145 -8 -94 -3 -110 -1 -120 14 -7 11 -7 21 -1 27 6
5 84 11 175 13 l164 3 13 -26 c10 -20 13 -104 13 -330 0 -166 5 -334 10 -372
6 -39 8 -78 5 -87 -8 -25 -191 -49 -330 -44 -242 9 -329 29 -485 112 -167 89
-262 190 -357 382 -63 126 -86 242 -80 400 10 240 81 413 236 573 72 75 195
167 263 197 61 26 218 70 307 85 92 16 223 18 310 5z" />
        <path
            d="M5940 5350 c-52 -4 -189 -9 -305 -10 -277 -3 -316 -7 -332 -41 -10
-19 -13 -233 -14 -910 -1 -827 2 -1009 21 -1039 12 -19 80 -29 133 -19 27 5
73 9 102 9 35 0 57 5 65 15 21 25 33 291 20 415 -15 129 -1 493 19 513 9 9 94
12 334 14 322 1 452 7 476 22 19 12 29 265 10 287 -12 14 -53 16 -416 13 -349
-3 -405 -2 -413 11 -6 9 -9 99 -7 210 l2 195 100 7 c55 4 247 9 427 10 394 4
366 -7 375 139 6 92 5 95 -22 127 l-28 34 -101 -3 c-56 -1 -157 1 -226 4 -69
2 -168 1 -220 -3z m481 -143 c6 -9 7 -22 4 -27 -4 -6 -159 -10 -428 -10 -232
-1 -440 -4 -462 -8 l-40 -7 -3 -260 c-2 -143 0 -293 3 -334 l7 -74 271 8 c628
17 617 17 617 -24 0 -26 -30 -31 -158 -31 -59 0 -246 -4 -415 -8 -231 -6 -310
-11 -316 -21 -13 -20 -20 -323 -15 -626 2 -154 2 -292 -2 -307 -6 -32 -39 -39
-48 -10 -8 23 1 1733 9 1740 11 11 228 17 603 17 336 0 364 -1 373 -18z" />
        <path
            d="M14542 5345 c-13 -10 -28 -38 -38 -73 -9 -31 -33 -111 -54 -177 -21
-66 -59 -200 -84 -297 -25 -97 -59 -214 -76 -260 -27 -73 -52 -160 -166 -583
-14 -49 -40 -139 -59 -200 -19 -60 -41 -150 -50 -200 -8 -49 -19 -106 -24
-125 -15 -64 -2 -77 81 -85 40 -3 102 -5 138 -3 63 3 65 4 83 39 9 19 22 73
29 118 6 46 17 89 24 96 9 9 84 14 267 19 326 10 317 13 352 -134 34 -139 39
-143 191 -142 63 0 121 5 133 11 32 18 27 55 -33 218 -78 213 -186 590 -201
698 -4 27 -20 75 -35 105 -16 31 -36 83 -44 116 -9 32 -27 90 -41 129 -14 38
-41 133 -61 210 -36 146 -102 379 -132 468 -19 58 -31 64 -122 66 -35 1 -64
-5 -78 -14z m93 -227 c8 -13 25 -54 36 -93 25 -87 137 -439 191 -600 22 -66
53 -165 70 -220 17 -55 46 -148 64 -208 19 -59 34 -115 34 -124 0 -10 22 -90
49 -178 28 -88 51 -173 53 -190 3 -26 -1 -30 -23 -33 -22 -3 -29 3 -41 35 -8
21 -23 71 -33 111 -30 127 4 117 -410 117 -348 0 -358 -1 -365 -20 -4 -11 -17
-54 -29 -95 -46 -168 -45 -165 -66 -162 -36 6 -38 19 -17 89 12 37 39 140 61
228 22 88 54 204 70 258 17 53 44 154 61 225 43 174 88 337 109 397 10 28 28
91 40 141 11 51 28 108 36 127 8 20 24 71 36 114 29 107 44 123 74 81z" />
        <path
            d="M14597 4943 c-13 -34 -115 -362 -132 -423 -3 -14 -19 -74 -35 -135
-16 -60 -45 -171 -65 -245 -20 -74 -43 -162 -50 -195 -7 -33 -18 -80 -24 -104
-7 -23 -9 -46 -6 -50 11 -11 705 -13 705 -2 0 46 -70 286 -155 531 -14 41 -46
145 -71 230 -68 232 -134 430 -144 430 -4 0 -15 -17 -23 -37z m108 -618 c32
-115 70 -255 86 -310 20 -74 24 -102 16 -107 -7 -5 -84 -7 -172 -5 l-160 2 -3
38 c-2 21 6 64 16 95 11 31 29 107 41 167 22 117 60 255 87 320 12 29 18 35
24 25 4 -8 33 -109 65 -225z" />
        <path
            d="M7655 5336 c-126 -28 -312 -118 -393 -190 -32 -28 -92 -79 -134 -113
-58 -47 -88 -82 -130 -150 -31 -48 -59 -99 -63 -113 -4 -14 -18 -45 -30 -70
-13 -25 -26 -61 -28 -80 -3 -19 -15 -82 -27 -140 -17 -84 -20 -121 -15 -185 4
-44 9 -96 10 -115 2 -19 15 -83 29 -142 37 -155 106 -278 211 -381 44 -43 107
-94 140 -114 33 -20 83 -53 111 -74 62 -48 94 -61 225 -95 100 -26 167 -36
332 -50 209 -18 484 90 685 270 111 99 152 156 236 326 73 150 91 245 82 439
-8 158 -14 188 -66 328 -51 135 -93 210 -174 309 -123 152 -283 255 -491 317
-91 26 -116 29 -275 33 -121 2 -193 -1 -235 -10z m365 -120 c42 -8 136 -37
210 -66 l135 -53 98 -100 c122 -124 165 -180 215 -282 85 -174 106 -286 83
-457 -33 -249 -117 -396 -319 -562 -150 -122 -315 -192 -509 -216 -192 -24
-321 2 -482 97 -257 152 -372 295 -423 528 -41 187 -31 440 24 579 23 61 110
194 167 258 71 79 289 211 391 236 66 16 218 42 270 45 25 2 50 4 55 5 6 1 44
-5 85 -12z" />
        <path
            d="M7792 5159 c-198 -21 -414 -131 -550 -280 -122 -134 -156 -204 -179
-363 -36 -256 28 -540 151 -675 53 -57 214 -191 246 -204 14 -5 63 -28 110
-51 84 -40 87 -41 213 -44 205 -6 327 20 495 106 105 54 242 184 328 311 50
75 80 175 105 345 22 155 -17 291 -137 478 -48 75 -198 236 -248 267 -75 47
-342 123 -418 120 -18 -1 -71 -6 -116 -10z m313 -159 c162 -51 301 -171 374
-322 82 -172 112 -387 75 -537 -45 -181 -196 -355 -380 -437 -133 -59 -369
-82 -499 -49 -158 40 -298 146 -404 304 -81 123 -102 187 -108 338 -6 141 9
209 78 347 61 122 121 197 213 265 69 51 121 75 218 101 103 28 330 23 433
-10z" />
        <path
            d="M13344 5340 c-12 -5 -27 -24 -33 -42 -10 -34 -8 -1041 4 -1628 7
-315 7 -316 88 -337 63 -16 192 -6 220 17 31 26 35 96 26 545 -4 215 -8 620
-9 900 0 295 -4 516 -10 525 -14 23 -240 39 -286 20z m164 -981 c2 -462 1
-852 -2 -865 -7 -25 -46 -35 -46 -11 1 6 -1 400 -4 874 -5 889 -5 893 33 857
13 -11 15 -140 19 -855z" />
    </g>
</svg>