<svg version="1.0" xmlns="http://www.w3.org/2000/svg"
    width="1094.000000pt" height="725.000000pt" viewBox="0 0 1094.000000 725.000000"
    preserveAspectRatio="xMidYMid meet">

    <g transform="translate(0.000000,725.000000) scale(0.100000,-0.100000)"
        fill="#fff" stroke="none">
        <path
            d="M5190 5980 c0 -5 -15 -10 -34 -10 -26 0 -36 -5 -41 -20 -3 -11 -11
-20 -16 -20 -13 0 1 -109 18 -144 8 -16 25 -39 37 -52 26 -29 35 -40 66 -86
14 -21 31 -38 38 -38 6 0 12 -4 12 -9 0 -5 12 -22 28 -39 15 -16 34 -39 42
-51 8 -12 20 -21 26 -21 6 0 17 -13 24 -30 7 -16 19 -30 26 -30 8 0 14 -4 14
-10 0 -5 5 -10 11 -10 6 0 24 -13 39 -30 15 -16 31 -30 35 -30 5 0 21 -13 37
-30 15 -16 32 -30 36 -30 8 0 32 -43 32 -55 0 -10 -329 -5 -335 5 -3 6 -52 10
-111 10 -63 0 -104 -4 -104 -10 0 -5 -6 -10 -14 -10 -9 0 -18 -19 -25 -50 -14
-67 -15 -66 12 -119 30 -63 167 -192 223 -212 7 -2 33 -24 59 -47 43 -41 45
-45 28 -58 -10 -7 -30 -14 -44 -14 -14 0 -52 -9 -85 -20 -32 -11 -66 -20 -75
-20 -9 0 -33 -18 -53 -40 -41 -46 -47 -93 -21 -158 17 -38 52 -82 67 -82 5 0
18 -9 30 -20 12 -11 30 -20 40 -20 9 0 33 -9 53 -20 20 -11 44 -20 55 -20 11
0 20 -4 20 -9 0 -5 15 -14 33 -20 l32 -12 -25 -19 c-14 -11 -31 -20 -37 -20
-7 0 -13 -4 -13 -10 0 -5 -9 -10 -20 -10 -13 0 -22 -9 -26 -25 -8 -33 3 -75
21 -75 7 0 17 -9 20 -20 3 -11 12 -20 18 -20 7 0 19 -9 27 -20 8 -11 20 -20
26 -20 7 0 14 -4 16 -8 4 -9 80 -61 120 -81 15 -8 25 -18 22 -23 -3 -4 3 -8
12 -8 10 0 14 -3 11 -6 -4 -4 2 -14 12 -23 10 -9 23 -26 30 -39 10 -18 9 -25
-4 -38 -23 -24 -10 -30 20 -10 60 40 46 79 -57 155 -44 34 -87 61 -94 61 -7 0
-17 6 -21 13 -4 7 -25 23 -45 36 -41 24 -78 70 -78 95 0 18 35 38 97 56 24 7
50 22 60 32 16 18 16 20 -3 38 -11 11 -49 31 -84 44 -118 43 -257 114 -284
147 -31 36 -35 88 -8 112 31 28 111 58 204 77 92 19 128 39 128 71 0 19 -71
80 -170 146 -63 43 -179 161 -197 201 -36 80 -15 85 310 79 278 -5 308 -2 316
38 5 27 -24 76 -65 107 -19 14 -65 54 -102 88 -37 34 -87 81 -112 104 -25 22
-70 70 -100 106 -30 35 -70 80 -89 100 -35 37 -74 106 -85 153 -11 46 7 57 88
56 196 -1 375 -68 748 -277 86 -48 296 -216 377 -302 70 -73 190 -239 260
-358 66 -112 107 -178 128 -207 11 -14 43 -84 83 -175 38 -90 50 -117 85 -195
34 -76 85 -233 85 -262 0 -12 4 -24 9 -27 4 -3 11 -20 15 -38 3 -18 11 -55 17
-83 10 -51 15 -76 24 -130 8 -51 9 -249 1 -273 -4 -13 -19 -27 -32 -32 -35
-14 -31 -40 6 -40 18 0 39 10 57 28 l28 27 -1 145 c-1 145 -14 276 -33 338 -5
18 -7 40 -4 48 3 8 -1 14 -8 14 -13 0 -69 121 -69 149 0 18 -39 150 -56 188
-8 17 -14 37 -14 45 0 8 -4 18 -9 23 -5 6 -21 39 -36 75 -39 92 -107 234 -115
240 -16 13 -93 135 -111 177 -11 27 -28 57 -38 68 -10 11 -29 41 -41 68 -13
26 -27 47 -30 47 -4 0 -15 18 -25 40 -10 22 -22 40 -26 40 -4 0 -11 9 -14 20
-3 11 -12 20 -20 20 -8 0 -17 9 -20 20 -3 11 -11 20 -17 20 -13 0 -108 97
-108 111 0 5 -7 9 -15 9 -8 0 -20 9 -27 20 -7 11 -18 20 -24 20 -7 0 -22 13
-35 30 -13 16 -32 30 -41 30 -10 0 -18 5 -18 10 0 6 -7 10 -15 10 -8 0 -15 5
-15 10 0 6 -7 10 -15 10 -8 0 -15 5 -15 10 0 6 -7 10 -15 10 -8 0 -20 9 -27
20 -7 11 -18 20 -25 20 -7 0 -13 4 -13 9 0 5 -13 11 -29 14 -16 3 -35 12 -43
19 -20 19 -56 38 -71 38 -7 0 -19 9 -27 20 -8 11 -21 20 -30 20 -9 0 -22 9
-30 20 -8 11 -25 20 -37 20 -13 0 -23 5 -23 10 0 6 -13 10 -30 10 -16 0 -30 5
-30 10 0 6 -9 10 -20 10 -11 0 -20 5 -20 10 0 6 -9 10 -19 10 -11 0 -23 5 -26
10 -3 6 -22 10 -41 10 -19 0 -34 5 -34 10 0 6 -22 10 -49 10 -28 0 -53 5 -56
10 -3 6 -24 10 -45 10 -21 0 -42 5 -45 10 -3 6 -37 10 -76 10 -39 0 -69 -4
-69 -10z" />
        <path
            d="M3671 5078 c-22 -23 -31 -61 -31 -137 0 -69 37 -153 105 -238 45 -55
151 -153 167 -153 15 0 8 -28 -8 -34 -9 -3 -95 -6 -192 -6 -96 0 -189 -4 -206
-9 -17 -5 -51 -15 -76 -21 -25 -7 -53 -16 -62 -21 -10 -5 -25 -9 -33 -9 -8 0
-15 -4 -15 -9 0 -5 -6 -16 -12 -23 -22 -23 -35 -72 -27 -103 9 -31 82 -105
105 -105 8 0 14 -3 14 -8 0 -4 15 -14 33 -22 17 -7 41 -22 51 -32 22 -20 36
-23 36 -8 0 6 7 10 15 10 8 0 15 -4 15 -10 0 -5 14 -10 30 -10 17 0 30 -4 30
-10 0 -5 16 -10 36 -10 29 0 35 -3 30 -16 -3 -9 -6 -18 -6 -20 0 -2 -16 -4
-35 -4 -19 0 -35 -4 -35 -8 0 -4 -17 -9 -37 -10 -21 -2 -41 -8 -45 -15 -4 -7
-8 -9 -8 -4 0 4 -16 0 -36 -8 -20 -8 -52 -15 -70 -15 -23 0 -38 -6 -46 -20 -7
-11 -21 -20 -31 -20 -10 0 -15 -4 -12 -10 3 -5 -1 -10 -9 -10 -32 0 -18 -106
18 -147 30 -34 36 -43 36 -58 0 -9 9 -15 25 -15 14 0 25 -4 25 -10 0 -5 9 -10
20 -10 11 0 20 -4 20 -10 0 -5 9 -10 20 -10 11 0 20 -4 20 -10 0 -5 7 -10 15
-10 8 0 15 -4 15 -10 0 -5 14 -10 30 -10 17 0 30 -4 30 -10 0 -5 9 -10 19 -10
11 0 23 -4 26 -10 3 -5 35 -10 70 -10 35 0 67 -4 70 -10 3 -5 42 -10 86 -10
46 0 79 -4 79 -10 0 -6 27 -10 60 -10 33 0 60 -4 60 -10 0 -5 20 -10 44 -10
25 0 48 -4 51 -10 3 -5 17 -10 31 -10 13 0 24 -4 24 -10 0 -5 9 -10 20 -10 11
0 20 -4 20 -10 0 -5 7 -10 15 -10 8 0 15 -4 15 -10 0 -5 7 -10 15 -10 8 0 15
-4 15 -10 0 -15 37 -12 43 4 3 8 -1 17 -9 20 -8 3 -14 12 -14 19 0 8 -8 21
-17 29 -40 35 -244 100 -328 104 -174 9 -254 16 -280 24 -225 68 -313 114
-350 182 -17 32 -18 39 -5 63 14 26 86 65 122 65 10 0 35 7 56 16 20 8 73 22
118 29 44 8 97 21 117 30 35 15 63 47 53 63 -10 16 -82 40 -186 62 -87 18
-118 29 -180 69 -52 32 -81 58 -95 84 l-20 37 30 25 c17 13 37 24 45 25 8 0
28 7 43 15 43 22 172 35 380 36 l188 1 17 25 c17 28 17 28 -69 97 -191 154
-269 268 -269 390 0 62 9 70 61 56 57 -15 210 -92 274 -138 138 -99 245 -183
319 -251 248 -229 383 -378 446 -492 14 -26 35 -64 47 -86 28 -51 111 -143
129 -143 8 0 14 -4 14 -9 0 -13 118 -63 143 -59 20 3 19 5 -12 21 -19 9 -42
17 -53 17 -10 0 -18 5 -18 10 0 6 -6 10 -14 10 -18 0 -126 101 -126 118 0 7
-9 22 -20 34 -11 12 -20 30 -20 40 0 18 -33 90 -51 112 -12 15 -89 116 -114
151 -24 32 -139 148 -222 223 -32 29 -89 82 -128 118 -38 36 -89 79 -112 95
-24 16 -43 34 -43 39 0 6 -5 10 -10 10 -6 0 -20 8 -31 18 -10 11 -32 25 -47
33 -15 8 -31 20 -37 27 -5 7 -30 23 -55 36 -25 12 -70 37 -100 53 -55 31 -126
59 -188 73 -27 7 -37 4 -51 -12z" />
        <path
            d="M5180 3838 c19 -6 59 -19 88 -29 58 -21 86 -24 77 -9 -3 6 -15 10
-26 10 -10 0 -19 5 -19 10 0 6 -11 10 -24 10 -14 0 -28 5 -31 10 -3 6 -27 10
-53 9 l-47 -1 35 -10z" />
        <path
            d="M6834 3545 c-20 -30 -14 -39 44 -68 26 -12 67 -35 91 -51 24 -15 64
-37 90 -48 25 -10 53 -26 61 -33 8 -7 47 -22 86 -33 39 -11 79 -24 90 -30 10
-6 37 -15 60 -21 100 -27 164 -116 164 -230 0 -53 4 -69 22 -88 26 -28 21 -34
-50 -59 -29 -10 -60 -26 -69 -36 -27 -30 8 -32 84 -5 65 24 167 51 225 60 16
2 33 -2 39 -9 13 -16 73 -29 95 -20 15 6 15 8 -1 26 -21 24 -12 40 24 40 15 0
31 3 35 7 3 4 14 8 24 9 9 1 59 9 111 18 51 9 120 17 152 17 58 1 80 12 61 31
-5 5 -43 12 -83 14 -50 3 -78 9 -85 19 -6 8 -19 15 -29 15 -17 0 -55 -35 -55
-52 0 -4 -9 -8 -20 -8 -11 0 -20 -4 -20 -10 0 -5 -25 -10 -55 -10 -30 0 -55 3
-55 6 0 3 16 20 35 38 19 19 35 43 35 55 0 20 9 25 37 22 7 -1 15 10 19 24 5
19 1 30 -12 40 -11 8 -14 15 -8 15 19 0 25 30 10 46 -8 8 -28 14 -44 14 -25 0
-30 -5 -36 -31 -3 -17 -3 -42 0 -54 13 -51 -85 -104 -101 -55 -8 24 -59 28
-81 6 -18 -19 -18 -26 1 -26 8 0 15 -7 15 -16 0 -11 6 -15 20 -11 15 4 22 -1
26 -17 8 -33 -40 -78 -105 -99 l-55 -18 -28 33 c-22 26 -28 43 -28 80 0 25 5
48 10 50 12 4 -25 111 -40 116 -6 2 -10 10 -10 18 0 20 -45 64 -65 64 -8 0
-15 5 -15 10 0 6 -11 10 -25 10 -14 0 -25 5 -25 10 0 6 -16 10 -35 10 -19 0
-35 5 -35 10 0 6 -13 10 -30 10 -16 0 -30 5 -30 10 0 6 -10 10 -22 10 -28 0
-88 22 -88 32 0 4 -8 8 -18 8 -10 0 -28 9 -40 20 -12 11 -28 20 -37 20 -8 0
-15 5 -15 10 0 6 -7 10 -16 10 -18 0 -44 23 -44 39 0 6 -15 11 -33 11 -20 0
-47 10 -67 25 -19 14 -35 25 -37 25 -1 0 -10 -11 -19 -25z m1013 -476 c-14 -8
-22 -8 -30 0 -8 8 -3 11 19 11 25 -1 27 -2 11 -11z" />
        <path
            d="M4635 3220 c4 -6 -8 -10 -29 -10 -20 0 -36 -4 -36 -10 0 -5 -20 -10
-44 -10 -25 0 -48 -4 -51 -10 -3 -5 -15 -10 -26 -10 -10 0 -19 -4 -19 -10 0
-5 -7 -10 -15 -10 -8 0 -15 -4 -15 -10 0 -5 -9 -10 -20 -10 -11 0 -20 -4 -20
-10 0 -5 -11 -10 -25 -10 -14 0 -25 -4 -25 -10 0 -5 -11 -10 -25 -10 -14 0
-25 -4 -25 -10 0 -5 -6 -10 -14 -10 -8 0 -22 -20 -31 -44 -14 -36 -15 -51 -6
-77 6 -18 11 -44 11 -59 0 -35 64 -114 119 -147 23 -13 41 -28 41 -32 0 -12
-26 -21 -60 -21 -16 0 -32 -4 -35 -10 -3 -5 -41 -10 -83 -10 -210 -1 -452 -45
-624 -115 -10 -4 -18 -17 -18 -29 0 -23 78 -106 101 -106 8 0 31 -11 52 -25
33 -23 148 -66 187 -71 8 -1 42 -8 75 -17 33 -8 86 -18 118 -22 61 -7 72 -24
26 -37 -13 -4 -60 -19 -104 -33 -44 -14 -114 -34 -156 -45 -42 -11 -116 -37
-163 -60 -48 -22 -91 -40 -97 -40 -5 0 -27 -9 -47 -19 -20 -11 -73 -35 -117
-53 -93 -40 -145 -94 -145 -154 0 -53 64 -116 175 -171 91 -47 116 -55 355
-117 147 -39 136 -38 515 -38 288 1 492 21 660 66 50 14 133 36 185 50 52 15
104 26 116 26 11 0 25 5 31 11 6 6 26 14 44 19 19 4 88 29 153 54 65 25 123
46 128 46 4 0 50 20 101 44 50 24 146 65 212 91 66 26 124 51 130 56 5 5 15 9
23 9 8 0 67 25 131 56 272 130 345 176 446 278 131 134 219 355 174 438 -17
33 9 48 97 59 89 11 118 22 263 102 47 26 64 30 119 29 36 -1 71 -7 78 -13 17
-14 34 -3 34 22 0 28 -42 41 -129 40 -59 -1 -84 -6 -120 -25 -147 -79 -222
-104 -326 -108 l-59 -3 -32 48 c-43 66 -67 90 -151 153 -64 49 -113 68 -113
46 0 -5 21 -23 48 -40 138 -92 242 -251 242 -371 0 -92 -99 -270 -205 -369
-71 -67 -305 -195 -520 -287 -183 -77 -290 -122 -320 -132 -51 -19 -297 -113
-362 -140 -59 -24 -176 -58 -238 -70 -16 -3 -35 -9 -40 -14 -13 -10 -195 -54
-285 -70 -36 -6 -76 -13 -90 -15 -89 -17 -202 -25 -393 -29 -120 -3 -221 -7
-225 -9 -13 -8 -223 13 -296 29 -38 9 -95 27 -127 40 -32 14 -65 25 -74 25
-22 0 -122 35 -167 58 -20 11 -60 38 -88 62 -62 52 -67 84 -17 116 85 56 237
123 387 171 25 8 53 19 62 24 10 5 27 9 37 9 11 0 22 4 26 9 3 6 27 13 53 17
26 3 55 11 65 16 10 5 62 21 114 34 96 25 166 54 178 74 17 27 -59 65 -167 84
-15 2 -33 8 -40 13 -7 4 -38 11 -68 14 -133 17 -304 73 -360 119 -33 26 -25
31 108 63 149 35 215 45 382 57 80 6 161 13 180 15 19 3 63 7 98 10 70 7 112
19 112 34 0 26 -18 45 -79 78 -101 57 -132 80 -159 119 -33 48 -28 132 9 170
30 30 215 114 251 114 15 0 29 4 33 9 9 16 91 24 240 25 125 1 140 3 143 19 3
13 -3 17 -27 17 -17 0 -31 5 -31 10 0 6 -55 10 -146 10 -94 0 -143 -4 -139
-10z" />
        <path d="M7342 3154 c-31 -21 -29 -62 2 -70 47 -11 108 40 79 66 -18 17 -60
19 -81 4z" />
        <path
            d="M3653 1070 c-51 -12 -96 -43 -128 -89 -26 -38 -30 -51 -30 -113 0
-68 1 -70 41 -107 23 -22 61 -45 90 -53 27 -9 68 -21 91 -28 46 -14 63 -41 42
-67 -21 -25 -114 -13 -168 21 -35 22 -46 25 -52 15 -5 -8 -24 -42 -44 -76
l-35 -61 57 -29 c52 -25 71 -28 174 -31 103 -3 123 -1 168 19 59 25 96 64 111
117 35 129 -18 207 -175 253 -83 25 -104 41 -85 63 18 22 83 20 130 -4 l39
-20 40 73 40 72 -30 13 c-89 37 -200 50 -276 32z" />
        <path
            d="M4297 1069 c-99 -23 -202 -104 -240 -188 -68 -152 -2 -322 155 -400
57 -29 68 -31 173 -31 62 0 126 5 144 11 l31 11 0 109 0 110 -45 -31 c-62 -42
-134 -50 -198 -22 -59 26 -81 66 -74 136 4 41 11 55 39 81 63 58 173 55 243
-6 l35 -31 0 115 0 115 -65 16 c-69 17 -138 19 -198 5z" />
        <path
            d="M9712 1064 c-149 -40 -262 -173 -262 -309 0 -106 77 -220 186 -275
42 -21 65 -25 160 -28 62 -2 129 1 152 8 l42 11 0 111 0 110 -22 -16 c-58 -41
-84 -50 -148 -51 -75 0 -109 16 -140 68 -25 40 -25 82 -1 127 27 51 74 75 148
75 53 0 67 -4 107 -32 26 -18 49 -33 51 -33 3 0 5 49 5 109 l0 109 -69 16
c-84 19 -139 19 -209 0z" />
        <path
            d="M673 805 c-89 -207 -113 -274 -113 -309 l0 -46 88 0 88 0 21 50 21
50 110 0 109 0 21 -50 21 -50 106 0 c61 0 105 4 103 9 -1 5 -59 145 -128 310
l-125 301 -105 0 -105 0 -112 -265z m232 -22 c33 -79 32 -83 -19 -83 l-45 0
21 60 c12 33 23 60 25 60 1 0 10 -17 18 -37z" />
        <path
            d="M1322 782 c-30 -158 -56 -297 -59 -309 -5 -23 -4 -23 95 -23 116 0
100 -18 128 155 9 61 20 116 24 123 3 7 33 -49 70 -133 l64 -145 43 0 44 0 71
148 71 147 18 -125 c28 -190 13 -170 130 -170 91 0 100 2 95 18 -2 9 -26 149
-53 310 l-48 293 -98 -3 -99 -3 -61 -137 c-34 -76 -64 -138 -67 -138 -3 0 -32
63 -64 140 l-59 140 -96 0 -96 0 -53 -288z" />
        <path
            d="M2190 759 l0 -311 188 4 c181 3 189 4 244 31 65 32 98 76 105 140 6
53 -29 123 -72 146 l-30 16 17 35 c10 19 18 55 18 80 0 69 -26 110 -89 143
-53 26 -60 27 -218 27 l-163 0 0 -311z m272 144 c10 -9 18 -22 18 -29 0 -17
-32 -34 -64 -34 -24 0 -26 4 -26 40 0 37 2 40 27 40 14 0 35 -7 45 -17z m48
-228 c29 -35 -13 -75 -82 -75 l-38 0 0 45 0 45 54 0 c35 0 58 -5 66 -15z" />
        <path
            d="M2975 1038 c-7 -18 -65 -154 -129 -303 -64 -148 -116 -273 -116 -277
0 -5 46 -8 103 -8 l104 0 23 50 23 50 107 0 108 0 21 -50 22 -50 104 0 c58 0
105 3 105 7 0 4 -57 144 -127 310 l-127 303 -104 0 -103 0 -14 -32z m144 -280
l21 -58 -49 0 -49 0 20 52 c21 56 28 71 33 66 1 -2 12 -29 24 -60z" />
        <path d="M4640 760 l0 -310 100 0 100 0 0 310 0 310 -100 0 -100 0 0 -310z" />
        <path
            d="M5014 769 c-71 -166 -130 -305 -132 -310 -2 -5 44 -9 103 -9 l106 0
22 50 22 50 107 0 108 0 25 -50 25 -50 105 0 c89 0 104 2 99 15 -4 8 -61 147
-129 308 l-122 292 -105 3 -104 3 -130 -302z m271 -46 c6 -22 3 -23 -39 -23
-25 0 -46 2 -46 5 0 2 10 30 22 62 l21 58 18 -40 c9 -22 20 -50 24 -62z" />
        <path
            d="M5560 990 l0 -80 70 0 70 0 0 -230 0 -230 100 0 100 0 0 230 0 230
70 0 70 0 0 80 0 80 -240 0 -240 0 0 -80z" />
        <path
            d="M6138 798 c-65 -150 -124 -290 -133 -310 l-15 -38 105 0 105 0 25 50
25 50 108 0 108 0 21 -50 21 -50 106 0 c58 0 106 1 106 3 0 1 -58 139 -129
307 l-128 305 -104 3 -105 3 -116 -273z m261 -85 c1 -9 -14 -13 -44 -13 -25 0
-45 2 -45 4 0 2 10 30 22 62 l22 58 22 -50 c13 -27 23 -55 23 -61z" />
        <path
            d="M7010 760 l0 -312 173 4 c172 3 173 3 239 36 250 123 250 421 0 544
-66 33 -67 33 -239 36 l-173 4 0 -312z m320 125 c43 -22 70 -71 70 -125 0 -84
-52 -135 -151 -147 l-49 -6 0 153 0 153 49 -6 c28 -3 64 -13 81 -22z" />
        <path d="M7690 760 l0 -310 100 0 100 0 0 310 0 310 -100 0 -100 0 0 -310z" />
        <path
            d="M8250 761 l0 -311 100 0 100 0 0 99 0 99 93 4 c111 5 164 28 204 90
24 35 28 52 28 108 0 88 -37 152 -110 189 -47 25 -59 26 -232 29 l-183 4 0
-311z m302 132 c43 -39 6 -93 -64 -93 l-38 0 0 55 0 55 42 0 c24 0 49 -7 60
-17z" />
        <path
            d="M8996 1061 c-11 -18 -256 -595 -256 -603 0 -4 47 -8 104 -8 l104 0
21 50 22 50 108 0 108 0 21 -50 21 -50 107 0 c97 0 106 2 100 18 -4 9 -61 149
-128 310 l-122 292 -102 0 c-57 0 -105 -4 -108 -9z m135 -313 l19 -48 -50 0
-50 0 21 52 c26 67 32 75 37 58 3 -8 13 -36 23 -62z" />
        <path
            d="M10060 760 l0 -310 205 0 205 0 0 80 0 80 -105 0 -105 0 0 35 0 35
95 0 95 0 0 80 0 80 -95 0 -95 0 0 35 0 35 105 0 105 0 0 80 0 80 -205 0 -205
0 0 -310z" />
    </g>
</svg>