<?xml version="1.0" standalone="no"?>
<!DOCTYPE svg PUBLIC "-//W3C//DTD SVG 20010904//EN" "http://www.w3.org/TR/2001/REC-SVG-20010904/DTD/svg10.dtd">
<svg version="1.0" xmlns="http://www.w3.org/2000/svg"
    width="257.000000pt" height="240.000000pt" viewBox="0 0 257.000000 240.000000"
    preserveAspectRatio="xMidYMid meet">

    <g transform="translate(0.000000,240.000000) scale(0.100000,-0.100000)"
        fill="#fff" stroke="none">
        <path
            d="M1754 2358 c-9 -21 -17 -50 -18 -65 -1 -27 -6 -31 -75 -50 -20 -5 -6
-62 25 -94 22 -23 24 -30 13 -47 -10 -16 -9 -23 7 -39 10 -11 27 -23 37 -26
16 -6 16 -9 3 -29 -12 -19 -12 -26 -2 -40 24 -32 96 -54 172 -52 63 1 77 5
115 32 24 17 61 39 82 48 20 9 37 21 37 27 0 6 -22 32 -50 57 -65 60 -67 89
-9 116 68 30 89 51 89 90 0 56 -35 70 -193 78 -72 4 -136 11 -142 16 -5 4 -24
9 -42 12 -29 4 -33 1 -49 -34z" />
        <path
            d="M1140 2261 c-40 -16 -49 -17 -84 -5 -21 8 -41 13 -43 11 -1 -2 8 -14
22 -27 l25 -24 -22 -24 -23 -25 41 6 c38 4 44 2 65 -26 l23 -31 8 32 c8 31 9
31 53 25 25 -3 45 -3 45 0 0 3 -16 15 -36 27 -31 20 -34 26 -29 51 4 16 5 29
3 28 -2 0 -23 -8 -48 -18z" />
        <path
            d="M916 2100 c-123 -189 -331 -329 -551 -369 -70 -13 -241 -14 -305 -1
-25 4 -47 6 -49 4 -9 -9 154 -75 231 -94 102 -24 258 -27 343 -5 147 38 266
128 325 248 31 64 64 213 58 265 -3 24 -8 20 -52 -48z" />
        <path
            d="M577 2149 c-23 -13 -56 -84 -57 -119 0 -82 46 -150 103 -150 57 0 97
58 97 140 0 105 -72 170 -143 129z" />
        <path
            d="M1550 2091 c-39 -16 -49 -17 -82 -5 -39 13 -50 6 -23 -16 20 -16 19
-29 -2 -53 -17 -18 -17 -19 19 -16 30 3 43 -2 68 -26 l30 -29 0 32 0 33 53 -7
52 -6 -38 27 c-34 23 -37 30 -32 56 4 16 5 29 3 28 -2 0 -23 -8 -48 -18z" />
        <path
            d="M1275 2073 c-63 -27 -57 -27 -160 4 -20 6 -19 5 1 -18 37 -42 38 -49
8 -81 l-29 -30 54 7 55 7 38 -43 37 -44 1 32 c0 56 6 61 58 52 86 -14 90 -11
34 26 -53 36 -60 51 -41 87 6 11 9 21 7 23 -2 2 -30 -8 -63 -22z" />
        <path
            d="M1620 1874 c-14 -2 -56 -9 -95 -15 -111 -18 -315 -93 -315 -116 0 -4
7 -26 16 -49 l15 -41 92 35 c271 101 541 94 825 -24 96 -40 222 -110 299 -166
56 -40 57 -40 87 20 22 42 19 45 -97 123 -156 104 -330 178 -504 214 -76 16
-275 28 -323 19z" />
        <path
            d="M1780 1654 c-91 -82 -190 -287 -310 -639 -38 -114 -70 -213 -70 -220
0 -16 89 -50 99 -39 5 5 59 153 121 329 114 324 171 465 188 465 5 0 14 -6 20
-12 29 -36 53 -335 51 -643 l-1 -210 50 -3 50 -3 7 147 c5 88 3 230 -4 353
-17 294 -45 432 -98 485 -35 35 -55 33 -103 -10z" />
        <path
            d="M630 1625 c-248 -69 -455 -376 -499 -740 -5 -44 -8 -81 -6 -84 2 -2
17 18 32 44 86 145 223 294 374 408 145 108 287 160 380 139 96 -23 174 -98
224 -219 31 -75 32 -56 1 35 -106 312 -302 473 -506 417z" />
        <path
            d="M409 1091 c-20 -20 -29 -39 -29 -61 0 -39 47 -90 84 -90 84 0 128 93
71 154 -34 37 -87 36 -126 -3z m90 -7 c27 -34 27 -88 1 -114 -17 -17 -24 -18
-41 -10 -55 30 -45 147 13 150 4 0 16 -12 27 -26z" />
        <path
            d="M647 1085 c5 -30 3 -35 -14 -35 -41 0 -65 -50 -43 -90 10 -19 23 -20
104 -11 5 1 3 8 -4 16 -7 9 -10 40 -8 85 3 66 2 70 -19 70 -19 0 -21 -4 -16
-35z m1 -88 c2 -21 -1 -37 -7 -37 -16 0 -33 39 -26 61 10 31 30 17 33 -24z" />
        <path
            d="M700 1109 c0 -4 4 -10 9 -13 5 -3 21 -40 37 -82 31 -87 36 -86 79 19
15 37 32 67 37 67 4 0 8 3 8 8 0 4 -11 7 -25 7 -16 0 -23 -5 -20 -13 2 -7 -4
-34 -14 -60 l-19 -47 -12 30 c-7 17 -13 44 -13 60 -1 27 -4 30 -34 31 -18 0
-33 -3 -33 -7z" />
        <path
            d="M192 719 c-104 -52 -134 -201 -60 -295 28 -34 92 -64 142 -64 49 0
122 34 143 66 21 33 9 43 -20 17 -12 -12 -40 -27 -63 -33 -35 -11 -46 -10 -77
5 -43 20 -63 49 -77 110 -13 60 -3 120 27 156 49 57 150 29 183 -51 21 -52 33
-36 27 36 -7 71 -13 87 -26 65 -7 -11 -15 -11 -41 -2 -50 17 -111 13 -158 -10z" />
        <path
            d="M528 725 c-36 -20 -48 -44 -48 -95 0 -50 28 -81 97 -111 74 -31 93
-69 53 -109 -40 -40 -95 -20 -119 43 -6 15 -15 27 -20 27 -14 0 -24 -91 -12
-103 8 -8 11 -8 11 0 0 8 12 7 37 -4 93 -38 183 12 183 103 0 40 -5 51 -34 79
-19 18 -47 36 -63 39 -48 12 -73 34 -73 64 0 37 17 52 56 52 31 0 65 -28 76
-62 9 -27 23 4 20 44 l-4 43 -66 2 c-44 2 -76 -3 -94 -12z" />
        <path
            d="M1313 733 c-64 -2 -113 -8 -113 -13 0 -6 11 -10 25 -10 l25 0 0 -160
c0 -153 -1 -160 -20 -160 -11 0 -20 -4 -20 -10 0 -6 40 -10 100 -10 60 0 100
4 100 10 0 6 -13 10 -30 10 l-30 0 0 70 0 70 35 0 c25 0 43 -7 59 -25 13 -14
26 -25 30 -25 3 0 6 27 6 60 0 66 -10 75 -42 35 -14 -18 -29 -25 -54 -25 l-34
0 0 80 0 80 60 0 c57 0 63 -3 104 -40 24 -22 46 -40 50 -40 9 0 7 28 -6 71
l-11 39 -61 -2 c-34 -1 -112 -4 -173 -5z" />
        <path
            d="M730 724 c0 -4 7 -12 16 -18 8 -7 39 -75 68 -151 77 -201 75 -197 88
-193 7 3 44 78 83 169 51 118 76 167 93 175 41 20 36 24 -36 24 -41 0 -72 -4
-72 -10 0 -5 6 -10 14 -10 8 0 18 -5 21 -11 7 -10 -60 -204 -75 -222 -10 -11
-84 209 -75 223 3 5 15 10 26 10 10 0 19 5 19 10 0 6 -35 10 -85 10 -47 0 -85
-3 -85 -6z" />
        <path d="M2180 595 c-15 -18 -5 -35 21 -35 24 0 37 29 18 41 -19 12 -25 11
-39 -6z" />
        <path
            d="M1609 501 c-31 -31 -36 -55 -18 -94 36 -79 163 -49 163 38 0 78 -89
112 -145 56z m81 -10 c21 -40 5 -111 -24 -111 -17 0 -26 22 -26 65 0 63 27 88
50 46z" />
        <path
            d="M1813 520 c-27 -11 -39 -51 -23 -80 9 -16 9 -25 0 -36 -7 -7 -10 -24
-7 -36 4 -12 2 -28 -4 -34 -6 -7 -9 -23 -7 -35 6 -46 116 -48 159 -3 19 20 21
27 11 49 -12 27 -56 49 -79 41 -16 -7 -43 3 -43 15 0 5 11 9 25 9 28 0 75 40
75 63 0 8 9 17 21 20 28 8 14 27 -19 27 -15 0 -40 2 -57 4 -16 3 -40 1 -52 -4z
m52 -51 c0 -24 -5 -34 -15 -34 -16 0 -25 37 -16 62 10 26 31 8 31 -28z m33
-153 c4 -21 -13 -36 -44 -36 -27 0 -48 24 -40 45 9 24 80 16 84 -9z" />
        <path
            d="M1994 506 c-28 -24 -29 -26 -13 -53 14 -26 14 -31 1 -52 -12 -18 -13
-27 -4 -41 9 -14 8 -21 -3 -30 -48 -40 28 -84 105 -61 44 13 65 41 56 76 -6
23 -59 50 -77 39 -12 -7 -49 5 -49 17 0 5 9 9 21 9 23 0 60 18 71 34 4 6 8 21
8 33 0 16 5 20 20 16 14 -4 20 0 20 11 0 12 -9 16 -32 16 -18 0 -47 2 -64 6
-24 4 -37 0 -60 -20z m64 -33 c-3 -43 -31 -54 -36 -15 -5 32 4 52 23 52 13 0
15 -9 13 -37z m32 -148 c10 -12 10 -18 0 -30 -27 -33 -101 -7 -86 30 7 20 70
20 86 0z" />
        <path
            d="M2188 518 c-29 -10 -35 -22 -18 -33 15 -9 13 -102 -2 -108 -7 -3 10
-5 37 -5 28 0 44 2 38 5 -9 3 -13 29 -13 79 0 41 -3 74 -7 73 -5 0 -20 -5 -35
-11z" />
        <path
            d="M2298 514 c-17 -8 -28 -23 -28 -35 0 -28 34 -21 38 9 4 26 27 30 36
6 7 -18 -10 -44 -29 -44 -19 0 -45 -34 -45 -59 0 -28 24 -37 57 -22 18 9 29 9
39 0 17 -14 54 -2 54 17 0 8 -4 13 -9 10 -10 -6 -21 41 -21 89 0 47 -38 59
-92 29z m50 -96 c-4 -27 -28 -36 -28 -10 0 20 8 32 22 32 5 0 8 -10 6 -22z" />
    </g>
</svg>