<?xml version="1.0" standalone="no"?>
<!DOCTYPE svg PUBLIC "-//W3C//DTD SVG 20010904//EN" "http://www.w3.org/TR/2001/REC-SVG-20010904/DTD/svg10.dtd">
<svg version="1.0" xmlns="http://www.w3.org/2000/svg"
    width="411.000000pt" height="409.000000pt" viewBox="0 0 411.000000 409.000000"
    preserveAspectRatio="xMidYMid meet">

    <g transform="translate(0.000000,409.000000) scale(0.100000,-0.100000)"
        fill="#fff" stroke="none">
        <path
            d="M805 3065 c-16 -20 -31 -48 -33 -63 -2 -14 -8 -30 -14 -33 -6 -4 -8
-14 -5 -22 3 -9 -1 -21 -9 -27 -8 -7 -14 -20 -14 -29 0 -27 -35 -72 -46 -61
-7 7 -14 2 -22 -14 -7 -16 -8 -28 -2 -31 6 -4 10 1 10 9 0 9 5 16 10 16 13 0
2 -73 -11 -78 -5 -2 -7 -8 -3 -13 3 -5 1 -9 -4 -9 -6 0 -9 -8 -8 -17 0 -10 -4
-17 -11 -16 -16 4 -53 -45 -47 -62 3 -7 -4 -19 -16 -25 -15 -8 -20 -8 -16 -1
4 6 1 11 -6 11 -12 0 -31 -43 -45 -100 -3 -14 -14 -31 -25 -38 -10 -7 -18 -24
-18 -38 0 -15 -13 -38 -30 -56 -17 -16 -28 -33 -25 -38 3 -5 1 -11 -5 -15 -5
-3 -10 1 -10 10 0 9 -5 13 -11 10 -6 -4 -8 -10 -5 -13 3 -3 -3 -11 -14 -19
-26 -18 -25 -31 3 -36 l22 -4 -22 -2 c-25 -1 -48 -35 -39 -57 3 -8 1 -14 -4
-14 -5 0 -7 -7 -4 -15 4 -8 1 -15 -5 -15 -6 0 -11 -7 -11 -15 0 -8 -4 -15 -10
-15 -5 0 -10 -8 -10 -18 0 -10 -11 -41 -25 -69 -13 -28 -27 -64 -31 -80 -4
-15 -9 -32 -13 -38 -20 -35 -16 -134 7 -157 7 -7 12 -19 12 -28 0 -32 32 -49
83 -44 26 2 56 8 66 14 11 5 74 28 141 50 67 22 128 47 136 55 17 17 39 21 29
5 -3 -6 1 -7 9 -4 18 7 22 34 5 34 -5 0 -8 4 -4 10 3 5 12 7 19 4 8 -3 16 4
19 16 3 11 9 20 14 19 23 -4 31 3 26 21 -3 12 -8 19 -10 16 -3 -2 -18 0 -35 6
-22 8 -26 13 -16 19 7 5 9 9 4 9 -5 0 -3 7 4 15 7 9 10 18 7 21 -10 10 -39 -5
-32 -16 8 -12 -27 -13 -41 -1 -10 10 -104 -9 -104 -21 0 -5 -9 -8 -20 -8 -11
0 -20 -4 -20 -9 0 -5 -10 -7 -22 -3 -16 4 -19 2 -13 -8 5 -9 4 -11 -4 -6 -6 4
-18 3 -25 -3 -10 -8 -12 -4 -8 22 2 17 11 37 19 44 9 7 17 28 20 48 2 20 13
50 25 65 12 16 22 46 24 67 1 21 2 44 3 51 1 6 7 12 14 12 18 0 40 57 33 85
-4 17 0 31 13 44 11 11 19 28 19 38 -1 16 12 49 72 178 10 22 29 67 41 100 12
33 27 67 33 75 24 33 36 61 36 83 0 13 8 49 19 81 l18 57 -21 -7 c-18 -6 -19
-5 -8 9 8 9 19 14 26 11 8 -3 16 4 19 15 6 24 -3 27 -22 9 -11 -11 -12 -9 -8
7 13 43 19 75 16 75 -2 0 -17 -16 -34 -35z m-175 -440 c0 -8 -4 -15 -10 -15
-5 0 -10 7 -10 15 0 8 5 15 10 15 6 0 10 -7 10 -15z m114 -720 c-25 -19 -35
-19 -28 0 4 8 16 15 27 15 20 0 20 0 1 -15z" />
        <path
            d="M3139 3046 c-2 -3 -40 -7 -84 -10 -85 -5 -163 -19 -207 -39 -29 -12
-63 -93 -47 -113 9 -11 17 -45 18 -77 1 -14 5 -16 20 -7 11 5 29 10 40 10 11
0 32 5 48 11 22 8 25 12 13 21 -12 8 -10 8 5 2 11 -4 29 -7 40 -6 133 8 194 7
223 -4 17 -7 32 -11 32 -8 0 3 9 0 19 -6 28 -14 16 -44 -33 -82 -22 -18 -45
-38 -51 -44 -10 -12 -99 -64 -223 -132 l-63 -34 6 38 c4 22 12 55 18 74 6 19
11 37 12 40 0 3 6 26 14 52 19 66 9 80 -20 27 -13 -24 -27 -42 -29 -39 -11 10
-58 -43 -53 -58 4 -10 2 -13 -5 -8 -8 5 -12 -1 -13 -16 0 -13 -3 -17 -6 -10
-7 17 -23 15 -23 -3 0 -8 -4 -15 -10 -15 -5 0 -10 -9 -10 -20 0 -11 -7 -20
-15 -20 -8 0 -15 -4 -15 -9 0 -6 -11 -22 -25 -37 -14 -15 -25 -33 -25 -40 0
-8 -7 -14 -15 -14 -9 0 -16 -14 -20 -37 -3 -21 -10 -46 -16 -55 -7 -15 -5 -18
12 -18 15 0 19 -4 15 -16 -3 -9 -6 -18 -6 -20 0 -2 -11 -4 -25 -4 -14 0 -25
-4 -25 -10 0 -5 7 -7 15 -4 8 4 15 2 15 -4 0 -5 -8 -12 -18 -14 -24 -7 -55
-73 -47 -98 4 -11 2 -20 -3 -20 -12 0 -32 -46 -32 -75 0 -14 -4 -25 -8 -25 -4
0 -8 -8 -9 -17 -1 -10 -5 -30 -9 -45 -3 -17 -2 -28 4 -28 9 0 7 -59 -4 -69 -3
-3 -9 0 -13 7 -4 7 -18 14 -29 15 -12 1 -22 5 -22 9 0 4 -7 8 -16 8 -10 0 -14
5 -10 15 4 12 0 14 -21 9 -17 -5 -24 -3 -19 4 10 17 -16 27 -28 11 -6 -8 -17
-14 -23 -15 -29 -2 -33 -5 -33 -20 0 -10 -6 -14 -15 -10 -8 3 -15 2 -15 -2 0
-10 -50 -32 -71 -32 -10 0 -42 -14 -71 -31 -29 -16 -65 -35 -80 -42 -16 -6
-28 -17 -28 -24 0 -7 -11 -13 -26 -13 -20 0 -24 4 -19 19 3 11 8 29 10 40 2
12 6 25 9 30 3 5 8 28 11 52 3 24 11 47 18 51 7 4 8 8 2 8 -14 0 69 55 145 96
36 19 72 38 80 44 8 5 53 26 100 46 47 20 87 41 88 46 2 4 8 6 12 3 5 -3 34 7
64 22 43 21 52 29 41 36 -9 4 -13 12 -10 16 2 5 -4 11 -15 14 -14 4 -20 14
-20 35 0 20 -8 36 -21 46 -19 13 -24 13 -45 -1 -22 -14 -24 -14 -24 1 0 21 0
21 -51 -9 -24 -14 -53 -25 -65 -25 -25 0 -86 -44 -76 -55 4 -5 1 -5 -6 -1 -8
5 -30 -3 -53 -19 -23 -14 -44 -24 -47 -21 -3 4 4 27 16 51 12 25 22 52 22 59
0 8 14 26 32 41 32 27 169 96 218 110 47 13 199 84 215 100 14 14 13 40 -2 41
-7 1 -18 2 -25 3 -7 1 -5 8 5 19 22 24 22 42 0 42 -16 0 -16 2 -3 10 13 9 12
12 -5 26 -11 8 -19 20 -17 25 4 16 -22 10 -79 -18 -30 -15 -58 -26 -62 -25
-10 3 -91 -40 -95 -51 -2 -4 -7 -5 -12 -2 -14 9 -81 -25 -74 -37 4 -7 3 -8 -4
-4 -18 11 -95 -35 -80 -47 9 -6 7 -7 -7 -2 -23 7 -83 -23 -90 -46 -3 -9 -1
-29 5 -44 11 -29 5 -65 -11 -65 -5 0 -9 -5 -9 -11 0 -6 7 -9 15 -5 9 3 15 0
15 -9 0 -9 -6 -12 -15 -9 -9 4 -15 0 -15 -10 0 -9 -4 -16 -8 -16 -9 0 -32 -44
-32 -61 0 -6 5 -7 10 -4 6 3 10 2 10 -3 0 -5 -9 -12 -20 -15 -11 -3 -24 -6
-28 -8 -12 -4 -42 -59 -42 -77 0 -10 5 -23 12 -30 9 -9 9 -12 0 -12 -7 0 -12
5 -12 10 0 23 -28 7 -43 -25 -11 -22 -13 -35 -6 -35 8 0 7 -5 -1 -15 -9 -10
-9 -15 -1 -15 6 0 11 -5 11 -11 0 -6 -6 -9 -13 -6 -7 3 -19 -4 -25 -14 -13
-20 -41 -98 -47 -129 -2 -10 -10 -37 -18 -62 -18 -52 -37 -180 -37 -248 l0
-48 59 19 c58 17 70 22 118 47 13 7 36 12 53 12 16 0 30 5 30 10 0 6 8 10 18
10 9 0 37 10 62 21 25 12 59 25 75 29 17 5 102 41 189 80 108 48 166 70 182
66 13 -4 24 -1 26 6 3 9 6 9 12 0 4 -7 2 -12 -3 -12 -6 0 -11 -4 -11 -8 0 -15
41 -52 57 -52 12 0 9 7 -11 25 -15 14 -26 25 -24 26 20 5 58 3 58 -4 0 -21 19
7 25 36 7 35 45 156 80 252 12 33 25 68 28 77 6 16 11 15 49 -11 24 -15 72
-43 108 -62 36 -18 66 -34 68 -35 6 -4 -65 -106 -102 -149 -57 -65 -76 -92
-76 -108 0 -8 -13 -27 -30 -40 -16 -14 -30 -31 -30 -37 0 -6 -13 -25 -30 -41
-16 -17 -29 -34 -27 -39 1 -5 -7 -15 -18 -23 -29 -22 -24 -82 9 -108 14 -11
24 -24 21 -29 -7 -11 31 -23 45 -15 6 4 8 15 5 26 -4 11 -2 19 5 19 6 0 8 5 5
10 -3 6 -1 10 5 10 6 0 8 4 5 10 -3 5 -1 10 4 10 6 0 11 6 11 14 0 8 9 24 19
37 l20 24 -6 -22 c-3 -14 -1 -23 6 -23 6 0 11 5 11 11 0 5 4 8 9 4 10 -6 23
26 19 45 -2 6 4 15 12 19 8 4 23 12 33 17 10 5 17 13 15 17 -2 5 5 13 15 18 9
6 15 14 12 20 -4 5 2 12 12 16 10 3 40 28 67 54 34 35 47 54 43 68 -3 14 -1
18 9 14 9 -3 14 1 14 12 0 9 -5 13 -11 9 -7 -4 -10 -1 -7 7 3 8 15 15 29 17
13 2 29 10 36 19 10 13 16 13 50 -5 21 -11 68 -32 105 -47 43 -17 68 -33 71
-46 3 -10 1 -19 -3 -19 -20 0 -44 -138 -31 -174 4 -11 2 -31 -5 -46 -28 -55
-23 -70 36 -111 31 -22 67 -39 83 -39 15 0 27 -4 27 -10 0 -5 5 -10 11 -10 7
0 9 15 5 41 -4 26 1 63 10 97 13 42 14 60 5 74 -15 24 -14 25 10 31 16 4 20
12 17 30 -3 16 1 28 13 35 14 9 30 5 79 -19 62 -32 92 -31 54 0 -21 17 -21 18
-3 29 11 7 19 9 18 5 -3 -19 2 -27 9 -15 7 10 15 9 38 -4 23 -12 24 -15 7 -11
-28 6 -40 -9 -13 -16 29 -7 66 3 48 14 -9 6 -9 9 -1 9 6 0 15 -4 18 -10 9 -15
25 -12 25 4 0 23 66 25 79 3 10 -15 15 -16 27 -7 10 9 14 9 14 1 0 -6 14 -10
35 -8 19 1 35 6 35 11 0 4 -8 6 -19 3 -12 -3 -18 1 -17 11 0 9 -7 18 -17 20
-11 2 -27 12 -38 23 -10 10 -25 19 -33 19 -7 0 -19 7 -27 16 -7 8 -21 13 -31
11 -10 -3 -15 -1 -12 5 3 5 -3 12 -15 15 -12 3 -21 9 -21 13 0 5 -16 14 -35
20 -19 6 -35 15 -35 20 0 4 -29 20 -64 35 l-64 27 5 42 c2 22 4 56 4 75 0 18
6 43 14 55 7 11 14 41 15 66 3 70 6 95 13 107 4 6 9 41 12 77 9 122 32 199 73
243 43 46 68 90 58 100 -4 5 -21 -8 -36 -27 l-29 -35 4 35 c10 76 18 110 26
116 5 3 9 9 9 14 0 5 -16 2 -35 -8 -25 -12 -33 -22 -29 -35 3 -10 -1 -20 -10
-23 -9 -3 -16 -15 -16 -25 0 -10 -5 -19 -11 -19 -22 0 -69 -42 -69 -62 0 -13
-5 -18 -14 -15 -8 3 -31 -9 -52 -29 -21 -19 -42 -34 -47 -34 -15 0 -39 -29
-32 -40 3 -5 -1 -10 -10 -10 -17 0 -39 -18 -44 -35 -13 -42 -25 -58 -53 -70
-31 -13 -68 -47 -68 -63 0 -4 -12 -18 -25 -31 -14 -12 -22 -27 -19 -32 3 -5
-4 -9 -15 -9 -12 0 -22 -9 -26 -22 -4 -13 -23 -38 -41 -56 -33 -31 -35 -32
-59 -16 -14 9 -25 12 -25 8 0 -5 -7 -1 -15 10 -12 16 -18 17 -46 7 -44 -15
-49 -14 -49 9 0 11 5 20 10 20 6 0 10 5 10 11 0 13 -26 40 -37 38 -4 -1 -22 2
-39 6 -42 9 -36 45 7 45 38 0 98 31 99 51 0 21 28 33 44 20 8 -7 16 -4 24 10
7 10 21 19 31 19 10 0 21 7 25 15 3 8 15 15 26 15 12 0 18 5 15 10 -3 6 -1 10
5 10 6 0 8 5 5 10 -3 6 -1 10 6 10 21 0 96 86 110 125 7 19 17 35 21 35 8 0 2
155 -7 170 -4 6 -14 10 -25 10 -15 0 -17 6 -14 40 2 22 -1 40 -6 40 -6 0 -10
-4 -10 -9 0 -5 -7 -12 -16 -15 -15 -6 -15 -4 -3 10 13 16 11 17 -12 11 -20 -5
-29 -3 -33 9 -4 10 -14 14 -26 11 -11 -3 -20 -1 -20 4 0 9 -23 13 -31 5z m16
-116 c3 -5 1 -10 -4 -10 -6 0 -11 5 -11 10 0 6 2 10 4 10 3 0 8 -4 11 -10z
m-158 -6 c-3 -3 -12 -4 -19 -1 -8 3 -5 6 6 6 11 1 17 -2 13 -5z m493 -494 c0
-5 -5 -10 -11 -10 -5 0 -7 5 -4 10 3 6 8 10 11 10 2 0 4 -4 4 -10z m90 -30 c0
-13 -5 -18 -15 -14 -8 4 -15 12 -15 20 0 8 7 14 15 14 8 0 15 -9 15 -20z
m-114 1 c-4 -5 -1 -11 6 -13 13 -5 22 -48 9 -48 -4 0 -7 -17 -5 -37 2 -25 0
-32 -7 -23 -7 12 -9 11 -10 -5 -1 -11 -1 -26 0 -33 1 -8 -3 -20 -10 -28 -6 -7
-9 -25 -7 -39 8 -37 -7 -40 -58 -11 -26 14 -51 23 -57 19 -14 -8 1 16 27 45
12 13 20 25 19 28 -8 12 -1 34 10 34 7 0 28 17 46 37 27 30 31 41 22 54 -7 13
-7 19 2 22 18 8 19 8 13 -2z m-1096 -65 c0 -3 -4 -8 -10 -11 -5 -3 -10 -1 -10
4 0 6 5 11 10 11 6 0 10 -2 10 -4z m530 -6 c0 -5 -5 -10 -11 -10 -5 0 -7 5 -4
10 3 6 8 10 11 10 2 0 4 -4 4 -10z m60 0 c0 -5 -2 -10 -4 -10 -3 0 -8 5 -11
10 -3 6 -1 10 4 10 6 0 11 -4 11 -10z m-560 -20 c0 -5 -4 -10 -10 -10 -5 0
-10 5 -10 10 0 6 5 10 10 10 6 0 10 -4 10 -10z m110 1 c0 -5 -7 -14 -15 -21
-12 -10 -15 -10 -15 2 0 8 3 18 7 21 9 10 23 9 23 -2z m590 -82 c0 -14 -27
-10 -33 5 -4 10 0 12 14 9 10 -3 19 -9 19 -14z m-494 -18 c-4 -5 0 -12 6 -14
8 -3 6 -6 -4 -6 -10 -1 -18 6 -18 14 0 8 5 15 11 15 5 0 8 -4 5 -9z m66 -23
c-7 -7 -12 -8 -12 -2 0 14 12 26 19 19 2 -3 -1 -11 -7 -17z m815 6 c-3 -3 -12
-4 -19 -1 -8 3 -5 6 6 6 11 1 17 -2 13 -5z m-1506 -27 c-10 -9 -11 -8 -5 6 3
10 9 15 12 12 3 -3 0 -11 -7 -18z m374 -226 c-3 -6 -13 -11 -21 -11 -8 0 -12
5 -9 10 4 6 11 8 16 5 5 -4 9 -1 9 6 0 7 3 10 6 6 3 -3 3 -10 -1 -16z m-438 3
c-3 -3 -12 -4 -19 -1 -8 3 -5 6 6 6 11 1 17 -2 13 -5z m1136 -14 c-3 -11 -9
-17 -15 -14 -5 3 -4 12 3 20 16 19 18 18 12 -6z m-658 -20 c-3 -5 -13 -10 -21
-10 -8 0 -14 5 -14 10 0 6 9 10 21 10 11 0 17 -4 14 -10z m1038 -50 c-3 -11
-9 -20 -14 -20 -10 0 -12 33 -3 43 12 12 22 -3 17 -23z m307 13 c0 -10 -4 -14
-8 -8 -4 6 -11 13 -16 18 -5 4 -2 7 7 7 10 0 17 -8 17 -17z m-1370 -3 c0 -5
-4 -10 -10 -10 -5 0 -10 5 -10 10 0 6 5 10 10 10 6 0 10 -4 10 -10z m1103 -35
c-3 -9 -8 -14 -10 -11 -3 3 -2 9 2 15 9 16 15 13 8 -4z m-563 -15 c0 -5 -5
-10 -11 -10 -5 0 -7 5 -4 10 3 6 8 10 11 10 2 0 4 -4 4 -10z m-55 -99 c3 -5 1
-12 -5 -16 -5 -3 -10 1 -10 9 0 18 6 21 15 7z" />
        <path d="M695 3009 c-4 -6 -5 -13 -2 -16 7 -7 27 6 27 18 0 12 -17 12 -25 -2z" />
        <path d="M675 2959 c-4 -6 -5 -13 -2 -16 7 -7 27 6 27 18 0 12 -17 12 -25 -2z" />
        <path
            d="M667 2918 c-2 -7 -5 -17 -6 -23 -1 -5 -9 -20 -17 -32 -12 -20 -12
-23 0 -23 8 0 17 15 20 35 4 19 11 35 16 35 6 0 10 5 10 10 0 14 -17 12 -23
-2z" />
        <path
            d="M1210 2866 c-7 -19 -16 -33 -20 -31 -4 2 -17 -14 -31 -35 -13 -22
-32 -40 -41 -40 -10 0 -18 -7 -18 -15 0 -9 -7 -18 -15 -21 -8 -3 -17 -14 -20
-25 -4 -10 -12 -19 -19 -19 -7 0 -17 -15 -23 -32 -10 -36 -3 -48 49 -81 20
-12 28 -13 31 -4 4 7 6 6 6 -4 1 -22 35 -51 52 -44 8 3 21 31 28 63 7 31 19
69 27 84 8 15 15 36 17 46 1 10 10 31 20 45 9 15 17 32 17 38 0 7 11 32 25 56
24 40 25 43 7 43 -11 0 -33 3 -49 6 -26 5 -30 2 -43 -30z" />
        <path
            d="M1844 2851 c-9 -10 -3 -21 12 -21 23 0 8 -17 -21 -22 -14 -3 -41 3
-60 13 -19 11 -36 15 -36 9 -1 -5 -2 -16 -3 -22 0 -8 -18 -14 -41 -15 l-40 -2
35 14 c27 10 30 14 13 14 -30 1 -53 -9 -53 -24 0 -14 -29 -29 -38 -20 -3 3 0
5 7 5 7 0 9 5 6 10 -5 8 -11 8 -19 1 -7 -6 -16 -8 -19 -4 -4 3 -12 1 -19 -5
-7 -5 -30 -13 -50 -17 -21 -4 -38 -11 -38 -16 0 -5 -11 -7 -25 -5 -14 3 -23 1
-20 -4 3 -5 -11 -14 -31 -22 -31 -11 -35 -16 -29 -38 3 -14 6 -31 7 -37 1 -7
5 -13 10 -13 5 0 9 -10 8 -22 -1 -13 1 -33 5 -46 6 -18 10 -20 21 -11 12 10
13 9 8 -5 -4 -11 -15 -16 -33 -14 -33 4 -61 -44 -42 -74 9 -15 8 -20 -3 -24
-7 -3 -21 -25 -31 -50 -9 -24 -22 -44 -27 -44 -6 0 -8 -3 -5 -7 4 -3 3 -11 -3
-18 -5 -6 -11 -27 -13 -46 -2 -19 -6 -40 -10 -45 -13 -21 -15 -83 -4 -88 7 -3
2 -3 -10 0 -17 4 -23 1 -23 -11 0 -9 4 -13 10 -10 6 3 7 -1 4 -9 -3 -9 -11
-16 -16 -16 -6 0 -7 -11 -4 -25 4 -14 2 -25 -3 -25 -8 0 -24 -37 -22 -52 1 -5
-3 -8 -8 -8 -5 0 -11 -9 -14 -20 -3 -11 -13 -20 -22 -20 -12 0 -15 -5 -10 -20
4 -13 1 -22 -9 -26 -9 -3 -16 -12 -16 -20 0 -8 -6 -23 -12 -34 -11 -17 -10
-22 2 -30 12 -8 13 -11 1 -19 -9 -6 -10 -11 -2 -15 6 -4 9 -11 6 -16 -4 -7 36
-40 50 -40 4 0 3 9 0 20 -6 20 7 24 88 23 10 0 17 8 17 18 0 10 10 28 23 40
12 12 15 18 7 14 -8 -4 -5 2 7 14 12 11 27 21 33 21 5 0 10 6 10 13 0 9 3 8 9
-2 7 -11 13 -11 32 0 20 11 21 14 7 17 -10 2 -18 7 -18 12 0 12 26 19 50 13
15 -4 26 0 32 11 6 11 16 14 34 10 14 -4 24 -2 24 5 0 6 16 11 35 11 19 0 35
5 35 11 0 5 16 17 35 25 19 8 35 21 35 29 0 9 10 15 23 16 21 0 21 1 2 9 -18
8 -17 9 8 9 15 1 30 8 34 17 3 8 12 13 20 10 8 -3 11 -2 8 4 -3 5 4 14 15 20
29 15 95 81 109 108 17 31 5 99 -17 105 -13 4 -12 5 4 6 18 1 21 7 19 44 -3
63 -11 74 -61 82 -28 4 -44 11 -44 21 0 8 7 14 15 14 8 0 15 5 15 10 0 7 -6 7
-20 0 -11 -6 -20 -16 -20 -22 0 -7 -5 -6 -15 2 -17 14 -20 40 -4 40 5 0 7 -4
4 -10 -13 -21 50 1 66 24 4 4 20 9 36 10 45 2 203 120 203 151 0 13 -5 27 -11
31 -8 5 -8 8 0 14 7 3 14 23 18 43 5 35 4 37 -20 37 -30 0 -40 -20 -18 -37 9
-7 13 -13 10 -13 -3 0 -22 13 -42 28 l-36 29 41 1 c75 3 77 32 2 32 -28 0 -43
-4 -39 -10 3 -5 0 -10 -9 -10 -8 0 -17 -6 -19 -12 -3 -8 -6 -6 -6 5 -1 9 -4
17 -8 18 -34 3 -75 3 -79 0z m83 -47 c-3 -3 -12 -4 -19 -1 -8 3 -5 6 6 6 11 1
17 -2 13 -5z m-152 -44 c-11 -5 -27 -9 -35 -9 -9 0 -8 4 5 9 11 5 27 9 35 9 9
0 8 -4 -5 -9z m-60 -10 c3 -5 -1 -10 -10 -10 -9 0 -13 5 -10 10 3 6 8 10 10
10 2 0 7 -4 10 -10z m-105 -30 c-20 -13 -33 -13 -25 0 3 6 14 10 23 10 15 0
15 -2 2 -10z m-128 -45 c0 -5 -5 -11 -11 -13 -6 -2 -11 4 -11 13 0 9 5 15 11
13 6 -2 11 -8 11 -13z m434 -2 c-2 -2 -6 -4 -8 -2 -1 1 -22 -10 -45 -24 -24
-15 -48 -27 -54 -27 -16 0 -143 -71 -147 -82 -2 -4 -10 -8 -18 -8 -8 0 -52
-20 -98 -44 l-84 -43 15 50 c31 104 35 108 106 121 21 4 35 11 32 15 -5 9 28
16 113 28 24 3 54 10 66 17 21 10 133 10 122 -1z m-206 -187 c0 -2 -7 -7 -16
-10 -8 -3 -12 -2 -9 4 6 10 25 14 25 6z m110 -90 c0 -9 -30 -14 -35 -6 -4 6 3
10 14 10 12 0 21 -2 21 -4z m-10 -43 c-8 -3 -20 -12 -27 -20 -10 -13 -12 -12
-10 6 1 16 8 21 27 20 15 0 19 -3 10 -6z m-135 -26 c-11 -9 -15 -19 -10 -27 6
-10 10 -9 17 4 10 18 29 22 26 4 -2 -6 12 -15 30 -18 18 -4 36 -10 39 -13 3
-4 15 -1 26 4 18 10 19 10 6 -8 -35 -50 -259 -213 -292 -213 -8 0 -20 -6 -26
-14 -7 -8 -37 -22 -67 -32 -30 -9 -54 -21 -54 -25 0 -5 -11 -9 -24 -9 -19 0
-23 4 -19 20 3 11 9 20 14 20 5 0 8 3 7 8 -3 15 15 108 24 119 5 7 7 16 5 21
-8 12 30 92 54 113 11 9 19 21 17 25 -2 4 8 9 21 11 20 3 22 1 11 -12 -15 -18
-15 -18 29 -5 18 5 53 10 77 11 24 2 44 8 44 13 0 6 4 5 9 -2 7 -11 9 -11 14
2 4 9 14 16 24 16 15 0 15 -1 -2 -13z m66 0 c-1 -12 -15 -9 -19 4 -3 6 1 10 8
8 6 -3 11 -8 11 -12z m89 -17 c0 -5 -4 -10 -10 -10 -5 0 -10 5 -10 10 0 6 5
10 10 10 6 0 10 -4 10 -10z" />
        <path
            d="M620 2805 c-10 -12 -9 -15 4 -15 10 0 15 4 12 9 -4 5 0 12 6 14 8 4
9 6 2 6 -6 1 -17 -6 -24 -14z" />
        <path d="M600 2725 c-11 -13 -10 -14 4 -9 9 3 16 10 16 15 0 13 -6 11 -20 -6z" />
        <path
            d="M572 2683 c2 -10 -3 -23 -11 -29 -8 -6 -12 -18 -8 -28 8 -21 27 -11
27 14 0 10 4 21 10 25 11 7 2 35 -12 35 -5 0 -8 -8 -6 -17z" />
        <path d="M2737 2613 c-10 -9 -9 -23 2 -23 5 0 11 7 15 15 5 15 -5 20 -17 8z" />
        <path d="M455 2470 c-3 -5 -1 -10 4 -10 6 0 11 5 11 10 0 6 -2 10 -4 10 -3 0
-8 -4 -11 -10z" />
        <path d="M410 2434 c0 -14 3 -14 15 -4 8 7 15 14 15 16 0 2 -7 4 -15 4 -8 0
-15 -7 -15 -16z" />
        <path d="M2505 2430 c3 -5 8 -10 11 -10 2 0 4 5 4 10 0 6 -5 10 -11 10 -5 0
-7 -4 -4 -10z" />
        <path d="M405 2390 c3 -5 8 -10 11 -10 2 0 4 5 4 10 0 6 -5 10 -11 10 -5 0 -7
-4 -4 -10z" />
        <path
            d="M1062 2283 c-13 -14 -21 -32 -18 -39 3 -8 -1 -14 -10 -14 -11 0 -13
-6 -9 -20 4 -13 1 -22 -9 -26 -9 -3 -23 -21 -32 -40 -9 -19 -19 -32 -23 -30
-17 11 -34 -15 -33 -50 1 -21 -3 -43 -9 -51 -8 -9 -8 -13 0 -13 6 0 11 -4 11
-10 0 -5 -7 -7 -15 -4 -11 4 -19 -3 -26 -24 -6 -17 -17 -33 -26 -36 -13 -5
-14 -4 -4 8 8 9 8 16 2 20 -11 7 -20 -5 -26 -34 -2 -11 1 -20 7 -20 7 0 7 -5
-1 -14 -6 -8 -11 -18 -9 -22 1 -5 -6 -24 -16 -42 -17 -33 -14 -60 4 -32 6 8
10 11 10 5 -1 -5 -7 -18 -14 -28 -8 -10 -12 -27 -9 -37 3 -11 0 -20 -6 -20 -6
0 -11 7 -11 15 0 9 -6 12 -15 9 -8 -4 -13 -10 -10 -14 3 -5 1 -11 -5 -15 -5
-3 -10 -17 -10 -30 0 -16 7 -25 25 -29 14 -4 25 -11 25 -16 0 -6 6 -10 13 -10
8 0 30 -17 51 -37 44 -44 46 -42 77 62 11 39 24 81 29 95 104 320 163 510 164
530 1 9 5 21 10 28 5 9 -2 12 -26 12 -23 0 -40 -8 -56 -27z m-155 -439 c-9 -9
-28 6 -21 18 4 6 10 6 17 -1 6 -6 8 -13 4 -17z" />
    </g>
</svg>