<?xml version="1.0" standalone="no"?>
<!DOCTYPE svg PUBLIC "-//W3C//DTD SVG 20010904//EN" "http://www.w3.org/TR/2001/REC-SVG-20010904/DTD/svg10.dtd">
<svg version="1.0" xmlns="http://www.w3.org/2000/svg"
    width="640.000000pt" height="360.000000pt" viewBox="0 0 640.000000 360.000000"
    preserveAspectRatio="xMidYMid meet">

    <g transform="translate(0.000000,360.000000) scale(0.100000,-0.100000)"
        fill="#fff" stroke="none">
        <path
            d="M3155 3559 c-3 -8 -25 -75 -49 -149 l-44 -135 -161 -3 c-140 -2 -161
-5 -161 -19 0 -18 8 -25 105 -91 39 -26 75 -52 80 -58 6 -6 22 -18 37 -27 27
-17 30 -31 15 -67 -20 -44 -77 -227 -77 -243 0 -16 5 -18 28 -12 15 3 29 11
30 16 2 5 9 9 15 9 11 0 127 82 180 126 10 8 22 14 26 12 4 -2 57 -39 119 -82
105 -75 162 -101 162 -75 0 16 -52 182 -60 194 -4 6 -13 27 -19 47 -14 42 -7
78 15 78 8 0 14 5 14 10 0 6 5 10 10 10 6 0 16 4 23 10 7 5 49 37 95 70 46 34
82 66 79 73 -2 8 -51 14 -162 17 l-158 5 -38 110 c-20 61 -40 125 -44 143 -3
17 -10 32 -15 32 -4 0 -15 3 -24 6 -9 3 -18 0 -21 -7z" />
        <path
            d="M4465 3188 c-16 -51 -30 -97 -30 -103 -1 -5 -7 -23 -14 -40 -6 -16
-14 -36 -16 -42 -3 -10 -45 -13 -165 -13 -159 0 -160 0 -160 -22 0 -14 10 -29
24 -38 14 -8 71 -48 126 -88 77 -56 100 -78 95 -90 -25 -64 -85 -256 -85 -272
0 -12 7 -20 17 -20 19 0 83 41 83 53 0 4 7 7 15 7 8 0 15 5 15 10 0 6 7 10 15
10 8 0 15 4 15 8 0 5 18 18 40 31 22 12 40 26 40 31 0 16 37 21 64 9 14 -7 26
-16 26 -20 0 -4 15 -16 33 -27 17 -12 60 -41 95 -66 64 -47 102 -58 102 -31 0
8 -20 75 -45 149 -25 75 -45 139 -45 143 0 4 30 28 65 52 36 24 65 48 65 53 0
4 6 8 14 8 8 0 28 13 45 29 18 17 35 29 39 28 4 -1 8 10 10 25 l3 27 -162 3
c-153 3 -162 4 -165 23 -2 11 -21 74 -42 140 -35 106 -42 120 -63 123 -22 3
-26 -4 -54 -90z" />
        <path
            d="M1877 3243 c-2 -5 -14 -39 -27 -78 -12 -38 -34 -103 -47 -142 l-26
-73 -158 0 c-145 0 -159 -2 -159 -17 1 -16 78 -83 95 -83 4 0 13 -7 21 -15 8
-8 42 -33 75 -56 43 -31 58 -47 54 -58 -22 -56 -85 -258 -85 -274 0 -16 5 -18
27 -13 25 7 104 56 131 83 7 7 26 20 42 30 17 9 30 21 30 25 0 4 7 8 15 8 8 0
15 5 15 10 0 6 4 10 10 10 8 0 94 -58 179 -122 69 -53 101 -56 101 -10 0 33
-21 92 -33 92 -5 0 -7 7 -4 15 4 8 2 17 -4 20 -5 4 -7 11 -4 16 4 5 1 9 -5 9
-7 0 -10 7 -6 15 3 8 -1 33 -9 56 -15 41 -14 42 10 65 15 13 30 24 35 24 4 0
10 4 12 8 2 4 20 18 41 31 20 12 37 27 37 32 0 5 5 9 12 9 21 0 78 51 78 70 0
18 -10 20 -157 22 l-157 3 -45 135 c-25 74 -50 141 -54 148 -9 13 -33 16 -40
5z" />
        <path
            d="M786 2120 l-48 -150 -159 0 c-158 0 -159 0 -159 -22 0 -16 17 -35 56
-63 80 -56 137 -97 164 -117 l24 -18 -42 -128 c-45 -136 -52 -182 -27 -182 17
0 105 60 105 72 0 4 5 8 12 8 6 0 27 12 47 28 33 25 59 42 87 57 12 6 22 0
172 -107 92 -66 112 -72 112 -29 0 17 -5 33 -10 36 -6 4 -8 10 -5 15 3 5 -5
35 -18 68 -13 32 -30 83 -37 112 -12 52 -12 54 11 71 13 10 32 25 42 33 9 9
19 16 22 16 6 0 105 71 133 95 12 11 22 27 22 37 0 17 -13 18 -159 18 l-159 0
-49 148 c-67 201 -72 201 -137 2z" />
        <path
            d="M5443 2093 l-48 -148 -157 -3 c-156 -2 -158 -3 -158 -25 1 -20 56
-67 81 -67 5 0 9 -4 9 -9 0 -5 21 -23 48 -40 26 -17 60 -42 76 -55 l28 -23
-22 -74 c-13 -41 -27 -83 -32 -94 -5 -12 -10 -27 -12 -35 -2 -8 -8 -28 -14
-43 -29 -70 3 -76 90 -14 33 23 78 54 100 68 22 15 43 31 47 37 14 23 42 14
112 -35 41 -29 77 -53 81 -53 4 -1 21 -14 39 -31 34 -32 79 -39 79 -13 0 20
-22 97 -30 104 -3 3 -6 12 -7 20 -1 8 -13 50 -26 92 l-25 77 54 35 c30 20 54
40 54 45 0 5 10 11 23 15 12 3 40 21 61 41 21 19 42 35 47 35 5 0 9 9 9 20 0
19 -7 20 -163 20 -124 0 -164 3 -164 13 0 15 -55 188 -79 246 -10 27 -22 41
-34 41 -14 0 -28 -30 -67 -147z" />
        <path
            d="M3922 2048 c2 -106 -1 -129 -19 -168 -38 -82 -48 -142 -35 -211 13
-68 38 -103 89 -125 53 -23 85 -18 119 19 53 55 69 102 68 192 -1 44 -3 87 -6
95 -3 8 -8 27 -13 43 -4 15 -11 27 -15 27 -5 0 -11 8 -14 18 -3 9 -16 28 -29
42 -28 31 -107 162 -107 178 0 7 -9 12 -20 12 -19 0 -20 -6 -18 -122z" />
        <path
            d="M2181 2049 c-47 -55 -94 -135 -109 -185 -16 -56 -15 -150 3 -210 28
-94 133 -164 178 -117 122 126 130 176 57 338 -44 96 -58 146 -52 183 4 28 1
32 -19 32 -16 0 -36 -14 -58 -41z" />
        <path
            d="M2520 1722 c-37 -11 -41 -65 -6 -87 56 -37 67 -131 41 -350 -8 -66
-16 -142 -17 -170 -1 -27 -4 57 -7 187 l-6 238 -30 30 c-34 34 -102 49 -147
31 -37 -14 -38 -55 -1 -93 43 -45 45 -110 14 -448 -6 -63 -8 -131 -6 -150 7
-52 35 -84 79 -88 45 -4 66 15 66 62 0 19 5 38 10 41 6 3 11 36 12 73 l1 67 6
-65 c7 -71 20 -101 53 -124 50 -35 109 -5 112 57 1 12 5 27 9 34 21 33 31 530
14 657 -8 59 -53 96 -120 101 -28 2 -63 1 -77 -3z" />
        <path
            d="M1960 1573 c-46 -59 -67 -162 -38 -191 16 -16 80 -15 104 2 19 14 19
19 13 129 -1 12 2 37 6 55 7 32 7 32 -28 32 -27 0 -41 -7 -57 -27z" />
        <path
            d="M4733 1550 c-24 -10 -43 -24 -43 -30 0 -5 -7 -10 -15 -10 -22 0 -55
-59 -55 -98 0 -26 5 -35 21 -39 16 -5 19 -11 14 -32 -7 -27 -8 -31 -24 -96
-43 -171 34 -288 189 -289 107 -1 175 48 228 163 20 44 24 64 20 116 -5 61
-52 185 -69 185 -5 0 -8 3 -8 8 1 4 1 12 0 18 -1 16 -81 98 -108 113 -33 17
-103 13 -150 -9z m162 -261 c20 -37 19 -65 -5 -116 -23 -52 -58 -72 -95 -55
-66 30 5 229 73 204 7 -2 19 -17 27 -33z" />
        <path
            d="M4122 1515 c-7 -14 -12 -49 -12 -78 l-1 -52 -14 38 c-20 59 -46 77
-104 77 -80 0 -80 0 -79 -303 1 -142 5 -260 10 -263 4 -3 8 -14 8 -24 0 -11 9
-24 19 -30 27 -14 96 -13 109 3 11 13 37 205 49 357 l7 95 13 -110 c14 -113
34 -199 59 -247 12 -23 21 -28 49 -28 19 0 35 5 35 10 0 19 2 25 10 35 4 6 18
57 29 115 29 139 51 207 74 228 18 16 20 16 31 0 7 -9 25 -72 40 -140 34 -149
45 -170 89 -166 45 4 57 35 57 146 0 89 -23 209 -43 223 -5 3 -7 9 -5 12 5 11
-43 81 -70 102 -16 12 -47 21 -83 23 -47 4 -63 0 -88 -17 l-30 -21 -33 20
c-19 11 -51 20 -74 20 -34 0 -43 -4 -52 -25z" />
        <path
            d="M1550 1522 c-9 -4 -32 -19 -51 -34 -36 -28 -59 -35 -59 -20 0 13 -47
32 -80 32 -59 0 -76 -85 -60 -299 19 -260 49 -334 127 -319 28 5 48 102 60
293 3 50 9 94 14 99 18 20 41 -67 44 -172 5 -132 16 -152 84 -152 79 0 94 33
107 235 3 49 7 92 9 94 10 10 35 -79 54 -195 12 -74 31 -148 44 -174 20 -42
25 -45 61 -45 36 0 40 3 53 40 23 64 12 231 -22 324 -35 98 -57 141 -92 177
-41 42 -67 54 -118 54 -34 0 -47 4 -52 17 -18 48 -72 67 -123 45z" />
        <path
            d="M2139 1468 c-17 -28 -19 -43 -14 -98 3 -36 8 -150 11 -255 7 -251 22
-295 102 -295 49 0 61 24 72 151 20 224 10 469 -19 469 -5 0 -11 9 -14 20 -6
22 -44 40 -88 40 -22 0 -34 -8 -50 -32z" />
        <path
            d="M2831 1439 c-16 -22 -44 -77 -62 -122 -26 -66 -33 -101 -37 -179 -4
-93 -3 -99 28 -167 59 -126 144 -162 248 -101 28 17 52 35 52 40 0 6 4 10 8
10 12 0 42 -67 42 -93 0 -33 19 -47 63 -47 60 0 69 17 75 131 3 69 1 107 -8
123 -9 18 -10 46 -1 125 27 246 5 321 -91 321 -61 0 -66 -10 -102 -198 -33
-168 -44 -194 -94 -221 -20 -11 -27 -10 -44 6 -17 15 -19 26 -14 68 8 66 33
136 54 151 32 22 64 101 56 136 -9 44 -30 57 -91 58 -50 0 -54 -2 -82 -41z" />
        <path
            d="M3485 1424 c-16 -8 -37 -22 -47 -30 -14 -14 -20 -14 -47 0 -16 9 -46
16 -66 16 -32 0 -38 -4 -51 -35 -29 -71 -7 -389 33 -457 16 -28 26 -33 60 -36
40 -3 41 -2 58 40 9 24 17 51 19 58 2 8 7 26 13 40 6 14 14 43 18 65 8 39 9
38 16 -31 10 -103 18 -114 83 -114 67 0 78 15 96 120 12 72 32 121 43 103 3
-4 8 -30 12 -58 13 -100 27 -158 48 -198 19 -36 27 -42 59 -45 36 -3 37 -2 49
40 36 127 -10 327 -97 425 -32 36 -70 53 -116 53 -20 0 -39 9 -58 30 -32 35
-76 40 -125 14z" />
        <path
            d="M5763 799 l-48 -149 -158 0 c-158 0 -158 0 -155 -22 2 -12 19 -34 39
-48 192 -134 200 -141 194 -163 -4 -12 -18 -58 -32 -101 -13 -44 -25 -88 -26
-98 -1 -10 -5 -18 -9 -18 -4 0 -8 -16 -8 -35 0 -49 21 -46 99 13 35 26 72 52
83 58 10 6 32 23 48 38 16 14 33 26 37 26 3 0 59 -38 124 -85 122 -88 159
-103 159 -63 0 26 -45 162 -65 200 -8 14 -15 35 -15 46 0 11 -6 23 -12 26 -10
3 -8 8 4 16 9 6 24 17 32 25 8 8 18 15 23 15 11 0 117 79 121 91 2 5 10 9 18
9 8 0 14 5 14 10 0 6 6 10 14 10 13 0 26 20 26 41 0 5 -69 9 -159 9 l-159 0
-12 33 c-7 17 -16 46 -20 62 -5 17 -22 68 -38 115 -24 69 -34 85 -51 86 -18 1
-27 -17 -68 -147z" />
        <path
            d="M554 922 c-6 -4 -31 -70 -56 -147 l-45 -140 -162 -3 -161 -2 0 -25
c0 -22 5 -27 27 -24 3 0 10 -6 15 -14 4 -8 53 -47 107 -86 l100 -71 -45 -132
c-54 -163 -55 -173 -12 -164 18 3 34 10 38 14 3 4 12 12 21 17 9 6 54 36 99
68 46 32 89 56 96 53 7 -3 63 -41 123 -86 104 -75 151 -96 151 -67 0 6 -21 77
-47 156 -44 138 -46 145 -28 155 10 6 28 20 40 31 12 11 33 26 48 34 15 8 35
21 44 30 10 9 35 27 55 41 25 16 38 33 38 48 0 22 -1 22 -158 22 l-158 0 -49
150 c-46 143 -56 159 -81 142z" />
        <path
            d="M2685 778 c-60 -67 -75 -105 -75 -193 0 -58 4 -78 23 -106 28 -42 64
-56 114 -43 54 13 76 58 70 140 -3 34 -8 68 -13 75 -19 30 -34 87 -34 132 0
40 -3 47 -19 47 -11 0 -40 -23 -66 -52z" />
        <path
            d="M2481 768 c-8 -24 -51 -230 -51 -244 0 -1 -21 -4 -46 -7 -59 -6 -92
-38 -139 -132 -60 -121 -58 -247 4 -317 38 -42 117 -51 176 -19 22 12 57 21
78 21 55 0 61 20 44 160 -8 63 -12 140 -10 170 4 58 36 209 53 254 5 15 10 47
10 70 0 53 -22 76 -73 76 -31 0 -37 -4 -46 -32z m-72 -450 c25 -95 13 -138
-39 -138 -32 0 -56 40 -40 69 5 10 6 21 3 25 -3 3 -1 6 5 6 7 0 12 8 12 18 0
18 29 62 41 62 4 0 12 -19 18 -42z" />
        <path
            d="M3215 668 c-11 -6 -30 -20 -42 -31 l-22 -20 -32 27 c-26 22 -37 25
-68 20 -20 -4 -39 -12 -43 -18 -21 -30 -28 -96 -28 -256 0 -247 24 -340 85
-340 32 0 44 19 56 86 5 33 15 74 21 93 6 18 16 64 22 102 10 63 13 68 28 57
14 -11 17 -33 19 -128 1 -135 9 -150 74 -150 61 0 74 15 96 110 22 95 38 140
49 140 4 0 11 -33 15 -72 17 -189 29 -219 91 -234 59 -15 73 16 70 156 -3 114
-5 124 -40 230 -39 115 -95 171 -168 166 -15 -1 -28 2 -28 6 0 5 -13 22 -29
38 -22 23 -37 30 -67 30 -21 0 -48 -6 -59 -12z" />
        <path
            d="M4587 630 c-37 -32 -83 -118 -102 -188 l-11 -44 -13 54 c-16 71 -59
148 -96 169 -38 22 -104 24 -133 3 -21 -14 -25 -14 -57 6 -46 28 -95 24 -112
-10 -7 -14 -13 -47 -13 -74 l0 -49 -22 33 c-13 18 -32 38 -43 44 -10 6 -25 17
-33 24 -21 19 -120 15 -167 -8 -51 -24 -83 -60 -127 -137 -31 -55 -33 -63 -33
-158 0 -114 15 -152 76 -193 32 -22 41 -23 139 -19 161 7 214 30 208 91 l-3
31 -131 5 c-90 3 -136 9 -147 19 -33 27 -11 92 23 71 28 -18 113 -11 155 11
42 23 95 72 95 89 0 5 5 10 10 10 6 0 10 -24 10 -52 1 -69 25 -205 40 -224 18
-20 67 -18 79 4 10 19 61 212 56 212 -2 0 9 23 24 52 44 87 55 78 77 -67 8
-49 19 -105 25 -122 9 -30 14 -33 49 -33 37 0 40 2 49 38 6 20 11 43 11 50 0
7 5 10 10 7 6 -4 8 -10 5 -15 -9 -15 60 -105 100 -128 33 -19 51 -22 102 -19
36 3 74 12 89 21 62 41 81 164 44 286 -24 78 -23 70 -6 70 19 0 19 68 0 98 -8
13 -25 27 -37 33 -12 5 -33 16 -47 24 -44 26 -105 19 -143 -15z m-677 -179 c0
-20 -50 -43 -69 -32 -23 15 0 41 35 41 19 0 34 -4 34 -9z m768 -48 c18 -26 42
-86 42 -104 0 -19 -39 -47 -58 -42 -35 9 -66 98 -50 143 13 38 40 39 66 3z" />
        <path
            d="M2621 402 c-5 -10 -14 -49 -19 -87 -6 -39 -16 -103 -23 -142 -18 -99
-8 -127 47 -131 l40 -3 21 68 c56 178 65 260 33 298 -18 22 -87 19 -99 -3z" />
    </g>
</svg>