<?xml version="1.0" standalone="no"?>
<!DOCTYPE svg PUBLIC "-//W3C//DTD SVG 20010904//EN" "http://www.w3.org/TR/2001/REC-SVG-20010904/DTD/svg10.dtd">
<svg version="1.0" xmlns="http://www.w3.org/2000/svg"
    width="500.000000pt" height="500.000000pt" viewBox="0 0 500.000000 500.000000"
    preserveAspectRatio="xMidYMid meet">

    <g transform="translate(0.000000,500.000000) scale(0.100000,-0.100000)"
        fill="#fff" stroke="none">
        <path
            d="M2435 3403 c-11 -2 -29 -8 -40 -13 -11 -5 -65 -22 -120 -39 -55 -16
-158 -48 -230 -70 -71 -22 -146 -44 -164 -49 -49 -11 -55 -42 -48 -252 11
-320 77 -529 227 -717 99 -124 214 -207 363 -263 53 -20 61 -21 90 -7 18 8 59
27 92 42 156 70 315 231 394 399 80 169 110 308 118 542 7 186 1 229 -30 246
-12 6 -107 37 -212 69 -104 32 -234 71 -289 88 -97 31 -112 33 -151 24z m203
-127 c48 -8 91 -43 113 -90 17 -38 19 -72 19 -439 0 -325 -3 -404 -14 -432 -8
-19 -20 -35 -25 -35 -6 0 -11 -7 -11 -15 0 -9 -19 -25 -42 -35 -36 -16 -66
-20 -178 -20 -160 0 -202 14 -241 76 l-24 39 0 420 c0 402 1 421 20 454 38 65
63 75 193 81 118 6 131 6 190 -4z" />
        <path
            d="M2432 3094 c-22 -15 -22 -16 -22 -343 0 -247 3 -331 13 -344 9 -13
29 -18 72 -20 101 -5 95 -26 95 359 0 289 -2 335 -16 348 -21 21 -112 21 -142
0z" />
        <path
            d="M1421 1721 c-28 -28 -34 -73 -29 -226 5 -126 7 -136 28 -155 32 -28
117 -28 154 1 l26 20 0 169 c0 161 -1 170 -22 190 -30 28 -129 29 -157 1z
m114 -63 c3 -13 4 -77 3 -143 l-3 -120 -37 -3 -38 -3 0 139 c0 76 3 142 7 145
3 4 19 7 34 7 21 0 30 -6 34 -22z" />
        <path
            d="M1730 1711 c0 -26 4 -30 33 -33 l32 -3 3 -177 2 -178 30 0 30 0 2
178 3 177 33 3 c28 3 32 7 32 33 l0 29 -100 0 -100 0 0 -29z" />
        <path
            d="M2050 1711 c0 -26 4 -30 33 -33 l32 -3 3 -177 2 -178 35 0 35 0 2
178 3 177 33 3 c28 3 32 7 32 33 l0 29 -105 0 -105 0 0 -29z" />
        <path
            d="M2466 1723 c-7 -26 -86 -387 -86 -396 0 -5 15 -7 32 -5 29 3 33 7 41
46 l8 42 49 0 49 0 8 -42 c8 -39 12 -43 41 -46 17 -2 32 0 32 3 0 8 -78 374
-86 403 -6 20 -82 16 -88 -5z m66 -174 c12 -65 12 -82 2 -86 -17 -6 -59 0 -58
10 16 103 27 157 33 157 4 0 14 -36 23 -81z" />
        <path
            d="M2764 1723 c6 -21 86 -391 86 -398 0 -3 15 -5 34 -5 l34 0 21 93 c47
207 71 316 71 322 0 3 -15 5 -32 3 l-33 -3 -25 -127 c-14 -69 -28 -130 -32
-133 -8 -8 -9 -3 -41 150 l-22 110 -33 3 c-29 3 -33 1 -28 -15z" />
        <path
            d="M3140 1530 l0 -210 30 0 c17 0 30 1 31 3 6 26 9 236 4 313 l-7 104
-29 0 -29 0 0 -210z" />
        <path
            d="M3425 1728 c-3 -7 -12 -47 -21 -88 -9 -41 -20 -91 -24 -110 -13 -59
-40 -195 -40 -202 0 -5 13 -8 30 -8 24 0 31 5 36 28 14 63 13 62 64 62 l48 0
6 -45 c7 -43 9 -45 41 -45 33 0 34 1 29 33 -3 17 -8 38 -10 45 -2 8 -18 78
-34 155 -17 78 -33 152 -35 165 -5 18 -12 22 -46 22 -23 0 -42 -5 -44 -12z
m61 -103 c4 -14 4 -28 2 -31 -3 -3 0 -33 8 -67 7 -34 11 -63 10 -65 -2 -1 -19
-5 -38 -9 -31 -4 -36 -2 -41 18 -3 13 -2 28 4 35 5 6 12 41 16 78 6 69 27 90
39 41z" />
    </g>
</svg>