<?xml version="1.0" standalone="no"?>
<!DOCTYPE svg PUBLIC "-//W3C//DTD SVG 20010904//EN" "http://www.w3.org/TR/2001/REC-SVG-20010904/DTD/svg10.dtd">
<svg version="1.0" xmlns="http://www.w3.org/2000/svg"
    width="2083.000000pt" height="2083.000000pt" viewBox="0 0 2083.000000 2083.000000"
    preserveAspectRatio="xMidYMid meet">

    <g transform="translate(0.000000,2083.000000) scale(0.100000,-0.100000)"
        fill="#fff" stroke="none">
        <path
            d="M10105 19584 c-31 -5 -120 -24 -235 -51 -73 -17 -224 -66 -285 -93
-84 -37 -373 -135 -690 -234 -66 -21 -131 -41 -145 -46 -14 -4 -70 -22 -125
-38 -99 -31 -313 -95 -370 -113 -16 -5 -100 -30 -185 -55 -85 -25 -204 -61
-265 -80 -60 -19 -123 -38 -140 -43 -16 -5 -84 -26 -150 -46 -66 -20 -131 -40
-145 -44 -14 -5 -59 -19 -100 -31 -41 -13 -93 -29 -115 -35 -22 -7 -74 -23
-115 -35 -41 -13 -115 -35 -165 -51 -49 -15 -130 -40 -180 -55 -49 -15 -137
-42 -195 -60 -208 -65 -564 -173 -605 -184 -16 -5 -52 -16 -80 -25 -53 -17
-359 -109 -435 -131 -25 -7 -115 -33 -200 -59 -85 -25 -177 -52 -205 -60 -293
-80 -341 -99 -412 -160 -188 -161 -240 -559 -214 -1639 7 -281 12 -518 12
-526 -1 -53 38 -732 59 -1035 19 -265 50 -550 109 -990 12 -88 66 -420 81
-500 58 -300 84 -419 146 -675 56 -229 89 -347 156 -565 90 -294 248 -722 341
-927 13 -29 37 -82 52 -118 70 -160 294 -593 400 -774 302 -516 656 -1004
1054 -1456 200 -226 620 -633 842 -816 258 -212 544 -417 809 -579 52 -32 123
-75 157 -97 34 -21 64 -38 67 -38 2 0 46 -24 98 -53 137 -78 475 -244 648
-319 25 -11 60 -26 77 -34 79 -34 107 -45 258 -103 88 -34 171 -67 185 -72 48
-21 266 -90 325 -105 88 -20 204 -18 274 6 57 19 160 63 301 128 36 16 88 40
115 52 28 12 82 37 120 55 152 71 300 139 440 202 420 189 861 453 1235 740
180 138 205 158 375 304 277 237 659 612 844 830 303 357 485 591 662 854 89
131 208 316 219 339 3 6 30 54 61 106 100 168 262 482 349 675 30 67 63 140
88 196 12 25 30 68 40 95 11 27 34 79 51 117 17 37 31 73 31 80 0 7 4 17 9 23
8 9 130 322 166 429 46 132 114 337 133 400 12 39 31 101 43 138 11 37 29 100
39 140 10 40 35 135 55 212 51 198 134 593 164 778 44 269 72 468 91 642 6 55
15 138 21 185 12 104 36 383 49 585 6 83 14 200 19 260 5 61 9 162 10 225 1
63 6 180 11 260 5 80 14 363 21 630 20 836 -5 1273 -86 1491 -66 176 -137 243
-328 311 -156 55 -513 174 -757 252 -113 36 -225 72 -250 80 -25 8 -112 36
-195 61 -82 26 -190 60 -240 75 -49 16 -144 45 -210 65 -66 20 -131 40 -145
45 -14 5 -79 25 -145 45 -66 20 -131 40 -145 45 -14 4 -59 18 -100 30 -41 12
-109 32 -150 45 -69 22 -140 43 -370 112 -47 14 -110 33 -140 43 -30 10 -89
28 -130 40 -41 12 -93 28 -115 35 -22 7 -58 17 -80 23 -22 7 -89 27 -150 46
-60 19 -148 46 -195 60 -47 13 -123 36 -170 51 -47 15 -123 38 -170 51 -47 14
-132 40 -190 58 -58 18 -139 43 -180 55 -98 30 -271 83 -445 138 -518 165
-688 204 -895 208 -80 2 -158 1 -175 -1z m1320 -1158 c22 -3 78 -11 125 -16
145 -19 330 -54 425 -82 84 -25 238 -97 315 -147 230 -150 412 -350 533 -589
189 -370 201 -594 201 -3867 1 -2637 -7 -3259 -51 -3790 -9 -104 -19 -266 -23
-360 -12 -282 -52 -439 -147 -582 -109 -164 -273 -283 -460 -334 -43 -11 -125
-37 -183 -57 -105 -37 -105 -37 -287 -38 -100 -1 -226 -6 -280 -12 -258 -29
-428 -33 -1083 -30 -665 4 -1042 19 -1185 48 -34 7 -68 7 -104 0 -77 -14 -235
-12 -311 5 -36 8 -106 24 -156 34 -180 38 -290 97 -419 226 -171 171 -235 333
-237 595 -1 69 -1 1696 -2 3615 -1 3200 1 3514 17 3780 21 361 38 515 68 611
5 17 9 36 9 42 0 41 142 290 240 422 57 77 174 192 245 242 159 111 379 179
695 213 30 3 71 8 90 11 86 10 277 24 405 29 77 3 201 10 275 15 74 5 223 12
330 15 107 4 197 9 200 12 7 7 705 -3 755 -11z" />
        <path
            d="M10430 16830 c-270 -18 -467 -79 -572 -178 -94 -88 -111 -159 -140
-587 -19 -273 -19 -4357 0 -4760 29 -631 39 -761 70 -884 36 -143 136 -207
387 -245 190 -29 721 -43 842 -22 193 33 274 196 319 646 23 225 27 493 31
2160 8 2988 -11 3549 -126 3707 -44 61 -161 114 -311 143 -60 11 -306 31 -355
29 -16 -1 -82 -5 -145 -9z" />
        <path
            d="M1095 4175 c-164 -17 -224 -28 -305 -54 -118 -39 -187 -80 -254 -152
-105 -110 -162 -233 -205 -439 -42 -204 -46 -278 -46 -915 0 -910 17 -1349 66
-1735 28 -215 85 -331 212 -426 125 -94 293 -153 485 -170 39 -4 72 -11 72
-15 0 -5 52 -9 115 -9 63 0 115 4 115 9 0 4 33 11 73 15 89 9 205 32 307 62
72 21 228 114 345 205 72 56 133 106 137 113 11 17 10 1928 -2 2401 -16 679
-36 770 -199 916 -95 86 -221 139 -411 174 -68 12 -110 16 -315 29 -33 3 -118
-2 -190 -9z m358 -585 c46 -14 112 -71 132 -114 8 -17 19 -53 25 -80 14 -62
29 -508 30 -841 0 -394 -29 -1558 -40 -1569 -9 -9 -79 -16 -310 -31 -52 -3
-131 -11 -175 -16 -44 -5 -106 -9 -138 -9 l-59 0 6 1007 c3 555 8 1051 10
1103 9 186 27 406 38 457 11 52 17 58 83 82 83 30 314 36 398 11z" />
        <path
            d="M10545 4170 c-135 -15 -264 -65 -305 -117 -19 -24 -44 -122 -126
-493 -8 -36 -19 -85 -25 -110 -34 -148 -130 -581 -138 -624 -8 -40 -87 -402
-96 -441 -3 -11 -23 -103 -45 -205 -22 -102 -45 -203 -50 -225 -25 -107 -40
-177 -56 -250 -9 -44 -20 -98 -25 -120 -5 -22 -13 -60 -18 -85 -5 -25 -23
-110 -40 -190 -18 -80 -40 -185 -51 -235 -10 -49 -35 -164 -54 -255 -31 -146
-73 -357 -89 -446 -13 -69 82 -94 280 -75 300 29 327 64 418 541 15 74 32 164
39 200 l13 65 450 3 450 2 12 -57 c6 -32 29 -149 51 -260 85 -431 113 -465
410 -494 129 -13 249 -4 273 20 11 11 -14 162 -68 416 -14 66 -39 185 -55 265
-16 80 -41 199 -55 265 -41 190 -45 207 -55 260 -5 28 -19 93 -30 145 -12 52
-28 129 -37 170 -8 41 -19 91 -23 110 -4 19 -17 80 -28 135 -12 55 -30 141
-41 190 -11 50 -25 115 -32 145 -6 30 -15 73 -19 95 -5 22 -21 94 -35 160 -28
130 -38 175 -54 245 -6 25 -31 142 -56 260 -25 118 -50 233 -55 255 -5 22 -16
69 -24 105 -22 100 -56 251 -66 295 -5 22 -19 84 -31 137 -28 122 -53 152
-154 183 -60 17 -264 26 -360 15z m95 -1050 c25 -46 107 -336 140 -490 42
-198 69 -340 89 -462 6 -38 16 -98 23 -135 7 -38 12 -137 13 -220 0 -151 0
-153 -26 -178 -34 -34 -82 -45 -199 -45 -104 -1 -186 11 -267 36 -62 20 -93
46 -93 79 0 22 31 221 60 385 5 30 14 87 20 125 18 113 60 345 90 495 20 104
68 305 85 355 26 77 45 93 65 55z" />
        <path
            d="M3413 4154 c-3 -9 -3 -105 0 -214 4 -170 8 -202 25 -236 41 -81 138
-107 472 -130 47 -3 91 -11 97 -18 10 -8 13 -121 16 -456 5 -682 27 -2338 35
-2590 l7 -225 275 0 275 0 7 445 c3 245 11 765 17 1155 6 391 14 925 17 1187
4 262 10 481 13 486 3 5 49 12 101 16 339 22 430 47 471 132 21 44 22 60 23
253 l1 206 -923 3 c-841 2 -923 1 -929 -14z" />
        <path
            d="M6374 4156 c-3 -8 -4 -101 -2 -208 3 -174 5 -198 25 -241 19 -40 30
-51 75 -71 29 -13 91 -29 138 -35 47 -6 120 -15 163 -21 43 -5 102 -10 132
-10 30 0 57 -4 60 -10 3 -5 10 -256 15 -557 5 -302 12 -672 15 -823 4 -233 24
-1666 25 -1843 l0 -57 323 2 322 3 7 265 c4 146 12 663 18 1150 14 1121 28
1848 35 1860 3 6 29 10 56 10 132 0 412 43 457 70 17 11 41 39 54 62 21 40 23
58 26 256 l4 212 -971 0 c-831 0 -972 -2 -977 -14z" />
        <path
            d="M13028 4161 c-77 -16 -83 -44 -44 -199 14 -53 37 -151 52 -217 14
-66 34 -156 44 -200 10 -44 39 -174 65 -290 25 -115 50 -228 55 -250 5 -22 24
-105 41 -185 17 -80 35 -161 39 -180 4 -19 17 -80 29 -135 11 -55 27 -129 35
-165 25 -111 56 -253 66 -300 5 -25 21 -99 35 -165 14 -66 31 -142 36 -170 6
-27 15 -66 19 -85 4 -19 19 -89 33 -155 14 -66 35 -163 47 -215 11 -52 25
-117 30 -145 5 -27 18 -90 29 -140 11 -49 45 -213 76 -364 31 -151 58 -278 60
-282 15 -22 125 -33 369 -33 l259 -1 12 50 c11 45 23 97 87 380 11 50 28 126
38 170 10 44 30 132 45 195 14 63 30 134 35 158 6 23 14 61 19 85 15 65 60
267 72 317 6 25 14 63 19 85 5 22 21 90 34 150 14 61 35 153 46 205 22 98 24
106 63 280 14 58 34 150 47 205 12 55 33 150 46 210 14 61 30 130 35 155 16
68 24 107 74 335 56 255 69 316 94 425 10 47 24 110 30 140 6 30 20 98 31 150
37 173 36 174 -134 175 -151 0 -433 -25 -446 -40 -8 -10 -15 -43 -40 -185 -13
-75 -229 -1154 -260 -1300 -11 -52 -27 -129 -35 -170 -9 -41 -25 -113 -36
-160 -11 -47 -26 -112 -34 -145 -93 -399 -125 -483 -171 -445 -13 12 -52 129
-78 240 -46 197 -73 316 -80 355 -3 17 -15 73 -26 125 -35 160 -141 671 -181
870 -6 30 -15 75 -20 100 -20 99 -60 298 -70 350 -22 109 -31 156 -40 195 -5
22 -14 68 -20 102 -6 35 -17 67 -23 72 -6 5 -99 16 -206 25 -107 9 -211 18
-230 20 -19 3 -52 1 -72 -3z" />
        <path
            d="M16452 2228 l3 -1943 262 1 c318 1 307 -2 317 106 3 40 11 165 16
278 44 929 37 2328 -14 2865 -6 61 -38 545 -40 600 l-1 30 -273 3 -272 2 2
-1942z" />
        <path
            d="M19267 4150 c-128 -27 -177 -62 -197 -141 -40 -160 -82 -331 -89
-364 -15 -67 -33 -148 -41 -185 -4 -19 -26 -120 -49 -225 -23 -104 -46 -208
-51 -230 -5 -22 -26 -114 -45 -205 -20 -91 -40 -183 -45 -205 -5 -22 -19 -85
-31 -140 -11 -55 -30 -140 -40 -190 -11 -49 -30 -142 -44 -205 -13 -63 -34
-160 -46 -215 -12 -55 -25 -118 -29 -140 -4 -22 -30 -152 -58 -290 -27 -137
-52 -261 -55 -275 -2 -14 -18 -95 -36 -180 -17 -85 -36 -180 -42 -210 -54
-270 -72 -399 -59 -415 27 -33 111 -49 260 -49 160 -1 201 8 255 55 50 44 67
91 125 344 66 286 94 346 189 392 l56 28 375 0 375 0 7 -35 c6 -32 21 -140 32
-235 19 -164 55 -355 79 -420 18 -50 47 -84 90 -108 39 -20 55 -22 232 -22
206 0 234 4 265 37 17 18 20 35 20 107 0 109 -23 229 -119 636 -49 202 -68
286 -116 505 -35 161 -45 205 -65 293 -10 46 -70 328 -94 447 -9 41 -23 107
-31 145 -9 39 -21 93 -26 120 -6 28 -15 66 -19 85 -4 19 -22 100 -39 180 -17
80 -42 195 -55 255 -13 61 -34 155 -45 210 -12 55 -33 152 -47 215 -13 63 -29
140 -35 170 -12 58 -17 85 -44 220 -44 220 -109 260 -425 259 -111 0 -180 -6
-243 -19z m292 -838 c25 -26 44 -62 63 -117 43 -130 50 -168 49 -266 -3 -279
-1 -359 8 -409 6 -30 17 -95 26 -145 9 -49 20 -103 25 -120 15 -48 58 -287 85
-469 18 -119 22 -172 15 -181 -6 -7 -52 -22 -103 -34 -51 -12 -110 -26 -132
-31 -107 -25 -169 -33 -265 -34 -94 -1 -108 1 -136 21 -62 45 -99 168 -92 310
3 79 8 96 40 153 63 115 107 328 158 770 36 318 92 511 166 569 37 29 52 27
93 -17z" />
    </g>
</svg>