<?xml version="1.0" standalone="no"?>
<!DOCTYPE svg PUBLIC "-//W3C//DTD SVG 20010904//EN"
 "http://www.w3.org/TR/2001/REC-SVG-20010904/DTD/svg10.dtd">
<svg version="1.0" xmlns="http://www.w3.org/2000/svg"
 width="544.000000pt" height="548.000000pt" viewBox="0 0 544.000000 548.000000"
 preserveAspectRatio="xMidYMid meet">

<g transform="translate(0.000000,548.000000) scale(0.100000,-0.100000)"
fill="#000000" stroke="none">
<path d="M2720 5418 c0 -7 -6 -25 -14 -39 -7 -14 -16 -37 -20 -52 -6 -25 -10
-26 -74 -29 -61 -3 -67 -5 -70 -25 -2 -16 3 -26 20 -32 13 -5 35 -22 49 -39
29 -31 29 -68 3 -107 -8 -11 -14 -30 -14 -42 0 -32 41 -31 74 2 14 14 30 25
36 25 5 0 10 5 10 10 0 27 66 -2 124 -56 6 -5 19 -13 29 -17 15 -6 16 -2 11
36 -4 23 -10 47 -14 52 -4 6 -10 24 -13 42 -7 36 3 50 65 89 60 38 49 59 -30
59 -74 1 -88 12 -106 81 -10 42 -16 49 -39 52 -17 2 -27 -1 -27 -10z"/>
<path d="M1509 5138 c-27 -82 -33 -85 -132 -87 -55 -1 -58 -2 -55 -23 2 -13
11 -24 20 -26 10 -2 31 -17 49 -33 17 -16 35 -29 40 -29 12 0 12 -43 0 -55
-13 -15 -38 -99 -34 -112 9 -27 39 -13 100 45 34 32 61 28 122 -19 57 -43 88
-46 77 -6 -4 12 -13 46 -21 76 -13 52 -12 54 14 80 14 15 38 35 54 44 15 10
27 26 27 37 0 17 -7 20 -54 20 -78 0 -116 10 -116 29 0 32 -38 126 -52 129
-10 2 -22 -21 -39 -70z"/>
<path d="M3916 5182 c-3 -5 -14 -33 -26 -64 -11 -31 -28 -60 -38 -64 -9 -4
-42 -6 -73 -5 -45 2 -58 -1 -63 -14 -7 -20 0 -35 17 -35 7 0 19 -9 27 -20 8
-11 18 -20 23 -20 4 0 17 -8 28 -19 20 -18 20 -18 -1 -65 -11 -26 -20 -56 -20
-66 0 -21 42 -39 48 -21 2 6 9 11 16 11 7 0 21 9 31 20 27 30 68 25 121 -15
25 -19 49 -35 54 -35 17 0 17 28 -2 88 -11 34 -18 69 -15 77 3 7 22 21 41 30
20 10 36 21 36 26 0 5 6 9 14 9 24 0 30 22 10 33 -22 13 -24 14 -91 15 -47 2
-54 5 -67 31 -9 16 -18 47 -22 70 -5 31 -11 41 -25 41 -10 0 -20 -4 -23 -8z"/>
<path d="M1265 4969 c-10 -15 3 -25 16 -12 7 7 7 13 1 17 -6 3 -14 1 -17 -5z"/>
<path d="M1266 4881 c-4 -5 -2 -12 3 -15 5 -4 12 -2 15 3 4 5 2 12 -3 15 -5 4
-12 2 -15 -3z"/>
<path d="M1260 4790 c0 -5 7 -10 15 -10 8 0 15 5 15 10 0 6 -7 10 -15 10 -8 0
-15 -4 -15 -10z"/>
<path d="M1260 4700 c0 -5 5 -10 10 -10 6 0 10 5 10 10 0 6 -4 10 -10 10 -5 0
-10 -4 -10 -10z"/>
<path d="M1260 4610 c0 -5 7 -10 15 -10 8 0 15 5 15 10 0 6 -7 10 -15 10 -8 0
-15 -4 -15 -10z"/>
<path d="M1266 4531 c-4 -5 -2 -12 3 -15 5 -4 12 -2 15 3 4 5 2 12 -3 15 -5 4
-12 2 -15 -3z"/>
<path d="M700 4503 c-45 -124 -45 -123 -142 -123 -43 0 -78 -3 -78 -7 0 -5 22
-24 48 -43 83 -62 85 -65 77 -107 -4 -20 -13 -50 -21 -65 -8 -15 -14 -32 -14
-38 0 -17 46 -11 70 10 12 11 31 22 41 25 11 4 19 11 19 16 0 16 31 10 63 -13
18 -12 34 -26 35 -30 2 -4 10 -8 18 -8 8 0 14 -4 14 -10 0 -5 11 -10 25 -10
30 0 31 14 5 71 -35 77 -29 98 40 143 83 53 80 66 -19 66 -91 0 -93 2 -119 86
-20 68 -46 83 -62 37z"/>
<path d="M4715 4460 c-19 -62 -34 -83 -57 -79 -7 1 -39 1 -70 0 -49 -1 -58 -4
-58 -19 0 -10 12 -25 28 -33 15 -8 33 -22 40 -31 7 -10 20 -18 28 -18 16 0 20
-76 4 -82 -14 -4 -26 -108 -13 -108 11 0 106 71 111 83 7 15 34 6 83 -28 87
-60 106 -45 70 53 -20 54 -19 82 3 82 6 0 18 9 26 20 8 11 20 20 27 20 14 0
33 31 33 53 0 12 -11 14 -57 10 -70 -6 -113 8 -113 37 0 11 -6 38 -12 60 -10
30 -18 40 -34 40 -17 0 -24 -12 -39 -60z"/>
<path d="M1266 4441 c-4 -5 -2 -12 3 -15 5 -4 12 -2 15 3 4 5 2 12 -3 15 -5 4
-12 2 -15 -3z"/>
<path d="M1260 4350 c0 -5 7 -10 16 -10 8 0 12 5 9 10 -3 6 -10 10 -16 10 -5
0 -9 -4 -9 -10z"/>
<path d="M1260 4260 c0 -5 7 -10 16 -10 8 0 12 5 9 10 -3 6 -10 10 -16 10 -5
0 -9 -4 -9 -10z"/>
<path d="M1260 4170 c0 -5 4 -10 9 -10 6 0 13 5 16 10 3 6 -1 10 -9 10 -9 0
-16 -4 -16 -10z"/>
<path d="M1266 4091 c-4 -5 -2 -12 3 -15 5 -4 12 -2 15 3 4 5 2 12 -3 15 -5 4
-12 2 -15 -3z"/>
<path d="M1262 4001 c2 -7 7 -12 11 -12 12 1 9 15 -3 20 -7 2 -11 -2 -8 -8z"/>
<path d="M1260 3910 c0 -5 7 -10 15 -10 8 0 15 5 15 10 0 6 -7 10 -15 10 -8 0
-15 -4 -15 -10z"/>
<path d="M1260 3820 c0 -5 4 -10 9 -10 6 0 13 5 16 10 3 6 -1 10 -9 10 -9 0
-16 -4 -16 -10z"/>
<path d="M1265 3739 c-10 -15 3 -25 16 -12 7 7 7 13 1 17 -6 3 -14 1 -17 -5z"/>
<path d="M2899 3676 c-14 -7 -36 -16 -50 -19 -13 -3 -42 -22 -63 -42 -38 -34
-38 -36 -32 -89 10 -77 8 -525 -2 -560 -10 -36 -28 -44 -37 -17 -10 32 -114
135 -178 175 -126 81 -261 112 -443 103 -193 -8 -328 -65 -465 -194 -144 -136
-250 -346 -307 -605 -16 -71 -21 -83 -40 -86 -27 -4 -28 -19 -2 -27 27 -8 25
-39 -3 -58 -19 -14 -20 -18 -7 -26 30 -21 38 -11 50 62 30 181 72 321 136 453
72 150 157 256 270 334 139 95 240 125 424 125 129 -1 192 -13 290 -57 76 -34
167 -105 230 -180 75 -89 77 -103 35 -243 -13 -44 -24 -107 -24 -140 0 -51
-23 -157 -56 -262 -5 -16 -1 -26 16 -40 12 -10 33 -28 47 -41 13 -13 31 -22
40 -20 21 4 65 115 93 238 12 52 25 99 30 104 25 28 64 -289 39 -319 -10 -13
-10 -19 2 -33 8 -9 21 -57 27 -107 59 -436 278 -726 622 -821 98 -28 337 -25
444 4 303 84 505 339 570 724 20 117 23 220 8 225 -10 3 -13 -11 -13 -54 0
-69 -14 -159 -40 -266 -56 -224 -176 -409 -332 -514 -106 -70 -213 -102 -389
-117 -51 -5 -221 16 -284 34 -175 51 -341 195 -437 380 -87 167 -123 322 -148
633 -10 124 -22 201 -40 242 -17 38 -22 125 -11 192 5 38 15 106 21 153 20
156 21 160 36 160 8 0 14 -3 14 -7 0 -5 9 -42 20 -83 11 -41 25 -104 31 -140
17 -112 19 -119 40 -174 21 -56 85 -126 115 -126 24 0 104 62 144 111 57 70
85 120 189 328 133 263 143 282 161 279 16 -3 59 -102 79 -183 15 -58 22 -105
56 -355 33 -246 34 -249 55 -296 19 -45 71 -90 116 -103 36 -10 85 3 107 27
16 18 16 20 -1 43 -69 88 -125 249 -152 434 -5 39 -21 145 -34 236 -39 264
-98 469 -135 469 -35 0 -98 -24 -139 -52 -59 -41 -96 -102 -186 -313 -75 -177
-168 -336 -203 -349 -9 -4 -20 -1 -25 6 -15 23 -67 200 -98 338 -82 354 -121
490 -144 509 -8 7 -20 6 -37 -3z"/>
<path d="M1266 3651 c-4 -5 -2 -12 3 -15 5 -4 12 -2 15 3 4 5 2 12 -3 15 -5 4
-12 2 -15 -3z"/>
<path d="M1260 3560 c0 -5 7 -10 16 -10 8 0 12 5 9 10 -3 6 -10 10 -16 10 -5
0 -9 -4 -9 -10z"/>
<path d="M5192 3473 c-4 -10 -15 -38 -22 -63 -7 -25 -17 -49 -22 -54 -4 -5
-40 -12 -80 -15 -54 -5 -73 -10 -75 -21 -3 -13 10 -25 92 -80 l22 -15 -18 -65
c-10 -36 -18 -71 -19 -77 0 -24 38 -13 84 22 45 34 71 43 78 28 7 -17 85 -63
106 -63 28 0 28 19 3 88 -23 61 -21 72 17 94 94 56 93 88 -1 88 -75 0 -80 4
-105 86 -19 61 -43 81 -60 47z"/>
<path d="M1260 3470 c0 -5 7 -10 15 -10 8 0 15 5 15 10 0 6 -7 10 -15 10 -8 0
-15 -4 -15 -10z"/>
<path d="M223 3413 c-22 -64 -32 -70 -120 -72 -44 -1 -53 -4 -53 -19 0 -18 69
-82 88 -82 17 0 21 -27 9 -68 -7 -22 -16 -44 -20 -48 -4 -4 -7 -18 -7 -31 0
-33 26 -30 87 12 29 19 56 35 61 35 5 0 31 -16 58 -35 52 -37 84 -45 84 -20 0
8 -9 39 -21 70 -22 59 -20 85 6 85 8 0 15 3 15 8 0 4 16 18 35 31 19 13 35 32
35 42 0 17 -8 19 -69 19 -77 0 -81 3 -108 75 -13 36 -25 51 -40 53 -18 3 -24
-6 -40 -55z"/>
<path d="M1266 3391 c-4 -7 -5 -15 -2 -18 9 -9 19 4 14 18 -4 11 -6 11 -12 0z"/>
<path d="M1265 3299 c-10 -15 3 -25 16 -12 7 7 7 13 1 17 -6 3 -14 1 -17 -5z"/>
<path d="M1262 3211 c2 -7 7 -12 11 -12 12 1 9 15 -3 20 -7 2 -11 -2 -8 -8z"/>
<path d="M2105 3145 c-156 -49 -297 -162 -351 -279 -41 -89 -66 -204 -60 -269
6 -62 35 -138 64 -170 41 -46 165 -86 267 -87 86 0 199 39 298 102 64 41 59
50 92 -162 18 -118 13 -367 -10 -440 -44 -142 -138 -263 -225 -289 -63 -19
-194 -16 -260 6 -107 36 -219 131 -293 248 -33 52 -72 71 -83 41 -10 -25 62
-237 96 -283 35 -47 108 -103 160 -122 87 -32 150 -40 306 -41 l161 0 39 42
c113 123 176 255 218 454 23 110 26 377 5 549 -4 39 -10 95 -13 125 -3 30 -12
118 -21 195 -8 77 -15 168 -15 202 0 55 -4 66 -30 97 -67 76 -236 116 -345 81z
m121 -181 c52 -25 63 -88 22 -131 -25 -26 -28 -72 -13 -164 13 -81 -19 -108
-160 -135 -132 -26 -151 -20 -191 56 -41 80 -3 249 69 302 49 36 117 67 167
77 65 13 69 13 106 -5z"/>
<path d="M1260 3120 c0 -5 7 -10 15 -10 8 0 15 5 15 10 0 6 -7 10 -15 10 -8 0
-15 -4 -15 -10z"/>
<path d="M1260 3030 c0 -5 7 -10 15 -10 8 0 15 5 15 10 0 6 -7 10 -15 10 -8 0
-15 -4 -15 -10z"/>
<path d="M1266 2951 c-4 -5 -2 -12 3 -15 5 -4 12 -2 15 3 4 5 2 12 -3 15 -5 4
-12 2 -15 -3z"/>
<path d="M1262 2861 c2 -7 7 -12 11 -12 12 1 9 15 -3 20 -7 2 -11 -2 -8 -8z"/>
<path d="M1260 2770 c0 -5 7 -10 16 -10 8 0 12 5 9 10 -3 6 -10 10 -16 10 -5
0 -9 -4 -9 -10z"/>
<path d="M1260 2680 c0 -5 7 -10 16 -10 8 0 12 5 9 10 -3 6 -10 10 -16 10 -5
0 -9 -4 -9 -10z"/>
<path d="M1260 2590 c0 -5 4 -10 9 -10 6 0 13 5 16 10 3 6 -1 10 -9 10 -9 0
-16 -4 -16 -10z"/>
<path d="M1262 2511 c2 -7 7 -12 11 -12 12 1 9 15 -3 20 -7 2 -11 -2 -8 -8z"/>
<path d="M1260 2420 c0 -5 7 -10 16 -10 8 0 12 5 9 10 -3 6 -10 10 -16 10 -5
0 -9 -4 -9 -10z"/>
<path d="M250 2226 c-5 -13 -12 -40 -15 -60 -4 -20 -11 -39 -16 -42 -5 -3 -43
-5 -84 -5 -96 0 -100 -22 -15 -79 19 -13 38 -29 43 -35 9 -12 -1 -75 -15 -92
-6 -7 -7 -24 -4 -38 6 -22 9 -23 32 -15 14 6 40 21 58 35 18 14 38 25 44 25 7
0 32 -16 58 -35 25 -19 55 -35 66 -35 22 0 22 6 -3 103 -12 44 -11 49 9 67 12
11 25 20 30 20 17 0 52 41 52 61 0 18 -6 20 -70 18 -76 -2 -100 9 -100 46 0
12 -5 36 -11 54 -13 38 -45 42 -59 7z"/>
<path d="M5172 2233 c-5 -10 -15 -39 -23 -65 l-13 -48 -73 0 c-63 0 -73 -2
-73 -18 0 -26 28 -62 49 -62 10 0 26 -9 36 -20 17 -19 17 -23 2 -80 -10 -33
-17 -67 -17 -75 0 -20 49 -20 56 0 4 8 12 15 19 15 6 0 20 9 30 20 10 11 26
20 35 20 9 0 25 -9 35 -20 10 -11 24 -20 30 -20 7 0 15 -7 19 -15 7 -20 42
-19 50 0 3 9 -1 43 -10 76 -15 56 -14 62 2 80 9 10 25 19 35 19 21 0 49 36 49
62 0 16 -10 18 -72 18 l-73 0 -20 63 c-16 48 -25 63 -42 65 -13 2 -25 -4 -31
-15z"/>
<path d="M405 2231 c-6 -11 9 -23 19 -14 9 9 7 23 -3 23 -6 0 -12 -4 -16 -9z"/>
<path d="M495 2230 c-3 -5 1 -10 9 -10 9 0 16 5 16 10 0 6 -4 10 -9 10 -6 0
-13 -4 -16 -10z"/>
<path d="M580 2230 c0 -5 7 -10 15 -10 8 0 15 5 15 10 0 6 -7 10 -15 10 -8 0
-15 -4 -15 -10z"/>
<path d="M670 2230 c0 -5 7 -10 16 -10 8 0 12 5 9 10 -3 6 -10 10 -16 10 -5 0
-9 -4 -9 -10z"/>
<path d="M760 2230 c0 -5 5 -10 10 -10 6 0 10 5 10 10 0 6 -4 10 -10 10 -5 0
-10 -4 -10 -10z"/>
<path d="M850 2224 c0 -8 5 -12 10 -9 6 3 10 10 10 16 0 5 -4 9 -10 9 -5 0
-10 -7 -10 -16z"/>
<path d="M935 2230 c-3 -5 1 -10 9 -10 9 0 16 5 16 10 0 6 -4 10 -9 10 -6 0
-13 -4 -16 -10z"/>
<path d="M1020 2230 c0 -5 7 -10 15 -10 8 0 15 5 15 10 0 6 -7 10 -15 10 -8 0
-15 -4 -15 -10z"/>
<path d="M1110 2231 c0 -6 5 -13 10 -16 6 -3 10 1 10 9 0 9 -4 16 -10 16 -5 0
-10 -4 -10 -9z"/>
<path d="M1200 2230 c0 -5 7 -10 16 -10 8 0 12 5 9 10 -3 6 -10 10 -16 10 -5
0 -9 -4 -9 -10z"/>
<path d="M1380 2230 c0 -5 5 -10 10 -10 6 0 10 5 10 10 0 6 -4 10 -10 10 -5 0
-10 -4 -10 -10z"/>
<path d="M1460 2230 c0 -5 7 -10 15 -10 8 0 15 5 15 10 0 6 -7 10 -15 10 -8 0
-15 -4 -15 -10z"/>
<path d="M1550 2230 c0 -5 7 -10 15 -10 8 0 15 5 15 10 0 6 -7 10 -15 10 -8 0
-15 -4 -15 -10z"/>
<path d="M1640 2230 c0 -5 7 -10 16 -10 8 0 12 5 9 10 -3 6 -10 10 -16 10 -5
0 -9 -4 -9 -10z"/>
<path d="M1730 2230 c0 -5 5 -10 10 -10 6 0 10 5 10 10 0 6 -4 10 -10 10 -5 0
-10 -4 -10 -10z"/>
<path d="M1820 2231 c0 -6 5 -13 10 -16 6 -3 10 1 10 9 0 9 -4 16 -10 16 -5 0
-10 -4 -10 -9z"/>
<path d="M1905 2230 c-3 -5 1 -10 9 -10 9 0 16 5 16 10 0 6 -4 10 -9 10 -6 0
-13 -4 -16 -10z"/>
<path d="M1992 2229 c2 -6 8 -10 13 -10 5 0 11 4 13 10 2 6 -4 11 -13 11 -9 0
-15 -5 -13 -11z"/>
<path d="M2080 2230 c0 -5 7 -10 15 -10 8 0 15 5 15 10 0 6 -7 10 -15 10 -8 0
-15 -4 -15 -10z"/>
<path d="M2170 2231 c0 -6 5 -13 10 -16 6 -3 10 1 10 9 0 9 -4 16 -10 16 -5 0
-10 -4 -10 -9z"/>
<path d="M2260 2230 c0 -5 5 -10 10 -10 6 0 10 5 10 10 0 6 -4 10 -10 10 -5 0
-10 -4 -10 -10z"/>
<path d="M2345 2231 c-6 -11 9 -23 19 -14 9 9 7 23 -3 23 -6 0 -12 -4 -16 -9z"/>
<path d="M2610 2230 c0 -5 7 -10 16 -10 8 0 12 5 9 10 -3 6 -10 10 -16 10 -5
0 -9 -4 -9 -10z"/>
<path d="M2790 2224 c0 -8 5 -12 10 -9 6 3 10 10 10 16 0 5 -4 9 -10 9 -5 0
-10 -7 -10 -16z"/>
<path d="M2960 2230 c0 -5 7 -10 15 -10 8 0 15 5 15 10 0 6 -7 10 -15 10 -8 0
-15 -4 -15 -10z"/>
<path d="M3050 2230 c0 -5 7 -10 15 -10 8 0 15 5 15 10 0 6 -7 10 -15 10 -8 0
-15 -4 -15 -10z"/>
<path d="M3140 2230 c0 -5 5 -10 10 -10 6 0 10 5 10 10 0 6 -4 10 -10 10 -5 0
-10 -4 -10 -10z"/>
<path d="M3230 2224 c0 -8 5 -12 10 -9 6 3 10 10 10 16 0 5 -4 9 -10 9 -5 0
-10 -7 -10 -16z"/>
<path d="M3320 2230 c0 -5 5 -10 10 -10 6 0 10 5 10 10 0 6 -4 10 -10 10 -5 0
-10 -4 -10 -10z"/>
<path d="M3402 2229 c2 -6 8 -10 13 -10 5 0 11 4 13 10 2 6 -4 11 -13 11 -9 0
-15 -5 -13 -11z"/>
<path d="M3490 2230 c0 -5 7 -10 15 -10 8 0 15 5 15 10 0 6 -7 10 -15 10 -8 0
-15 -4 -15 -10z"/>
<path d="M3582 2231 c4 -13 18 -16 19 -4 0 4 -5 9 -11 12 -7 2 -11 -2 -8 -8z"/>
<path d="M3670 2230 c0 -5 5 -10 10 -10 6 0 10 5 10 10 0 6 -4 10 -10 10 -5 0
-10 -4 -10 -10z"/>
<path d="M3760 2230 c0 -5 5 -10 10 -10 6 0 10 5 10 10 0 6 -4 10 -10 10 -5 0
-10 -4 -10 -10z"/>
<path d="M3840 2230 c0 -5 7 -10 15 -10 8 0 15 5 15 10 0 6 -7 10 -15 10 -8 0
-15 -4 -15 -10z"/>
<path d="M3932 2229 c2 -6 8 -10 13 -10 5 0 11 4 13 10 2 6 -4 11 -13 11 -9 0
-15 -5 -13 -11z"/>
<path d="M4020 2230 c0 -5 7 -10 15 -10 8 0 15 5 15 10 0 6 -7 10 -15 10 -8 0
-15 -4 -15 -10z"/>
<path d="M4110 2230 c0 -5 7 -10 16 -10 8 0 12 5 9 10 -3 6 -10 10 -16 10 -5
0 -9 -4 -9 -10z"/>
<path d="M4200 2230 c0 -5 5 -10 10 -10 6 0 10 5 10 10 0 6 -4 10 -10 10 -5 0
-10 -4 -10 -10z"/>
<path d="M4285 2230 c-3 -5 1 -10 9 -10 9 0 16 5 16 10 0 6 -4 10 -9 10 -6 0
-13 -4 -16 -10z"/>
<path d="M4370 2230 c0 -5 7 -10 15 -10 8 0 15 5 15 10 0 6 -7 10 -15 10 -8 0
-15 -4 -15 -10z"/>
<path d="M4460 2230 c0 -5 7 -10 16 -10 8 0 12 5 9 10 -3 6 -10 10 -16 10 -5
0 -9 -4 -9 -10z"/>
<path d="M4640 2230 c0 -5 5 -10 10 -10 6 0 10 5 10 10 0 6 -4 10 -10 10 -5 0
-10 -4 -10 -10z"/>
<path d="M4725 2230 c-3 -5 1 -10 9 -10 9 0 16 5 16 10 0 6 -4 10 -9 10 -6 0
-13 -4 -16 -10z"/>
<path d="M4815 2230 c-3 -5 1 -10 9 -10 9 0 16 5 16 10 0 6 -4 10 -9 10 -6 0
-13 -4 -16 -10z"/>
<path d="M4900 2230 c0 -5 7 -10 15 -10 8 0 15 5 15 10 0 6 -7 10 -15 10 -8 0
-15 -4 -15 -10z"/>
<path d="M4990 2230 c0 -5 7 -10 15 -10 8 0 15 5 15 10 0 6 -7 10 -15 10 -8 0
-15 -4 -15 -10z"/>
<path d="M1265 2159 c-10 -15 3 -25 16 -12 7 7 7 13 1 17 -6 3 -14 1 -17 -5z"/>
<path d="M1260 2070 c0 -5 7 -10 16 -10 8 0 12 5 9 10 -3 6 -10 10 -16 10 -5
0 -9 -4 -9 -10z"/>
<path d="M1260 1980 c0 -5 7 -10 15 -10 8 0 15 5 15 10 0 6 -7 10 -15 10 -8 0
-15 -4 -15 -10z"/>
<path d="M1260 1890 c0 -5 7 -10 16 -10 8 0 12 5 9 10 -3 6 -10 10 -16 10 -5
0 -9 -4 -9 -10z"/>
<path d="M1265 1809 c-10 -15 3 -25 16 -12 7 7 7 13 1 17 -6 3 -14 1 -17 -5z"/>
<path d="M1266 1721 c-4 -5 -2 -12 3 -15 5 -4 12 -2 15 3 4 5 2 12 -3 15 -5 4
-12 2 -15 -3z"/>
<path d="M1262 1631 c2 -7 7 -12 11 -12 12 1 9 15 -3 20 -7 2 -11 -2 -8 -8z"/>
<path d="M1260 1540 c0 -5 7 -10 16 -10 8 0 12 5 9 10 -3 6 -10 10 -16 10 -5
0 -9 -4 -9 -10z"/>
<path d="M1260 1450 c0 -5 7 -10 15 -10 8 0 15 5 15 10 0 6 -7 10 -15 10 -8 0
-15 -4 -15 -10z"/>
<path d="M1265 1369 c-10 -15 3 -25 16 -12 7 7 7 13 1 17 -6 3 -14 1 -17 -5z"/>
<path d="M758 1278 c-8 -18 -24 -51 -34 -73 l-19 -40 -72 -3 c-49 -2 -73 -7
-73 -15 0 -18 41 -60 74 -77 38 -20 41 -31 22 -87 -31 -89 -16 -127 32 -83 12
11 25 20 30 20 5 0 17 9 27 20 26 28 44 25 90 -15 25 -21 51 -35 68 -35 32 0
32 1 7 75 -11 32 -18 66 -15 74 3 9 30 33 60 54 80 55 74 67 -30 67 -75 0 -85
2 -85 18 0 9 -9 34 -20 55 -11 20 -20 46 -20 57 0 31 -25 24 -42 -12z"/>
<path d="M4677 1283 c-8 -16 -20 -49 -28 -75 l-13 -48 -83 0 c-46 0 -83 -3
-83 -7 0 -15 58 -73 72 -73 8 0 23 -9 33 -20 18 -20 18 -22 -3 -88 -12 -37
-22 -70 -22 -74 0 -13 47 -9 62 5 32 29 78 57 95 57 10 0 25 -9 33 -20 8 -11
20 -20 27 -20 6 0 19 -10 27 -21 20 -29 46 -18 46 18 0 15 -9 47 -20 71 -19
41 -18 72 2 72 16 0 98 72 98 86 0 11 -18 14 -78 14 l-77 0 -13 38 c-7 20 -18
54 -25 75 -13 44 -31 47 -50 10z"/>
<path d="M1262 1281 c2 -7 7 -12 11 -12 12 1 9 15 -3 20 -7 2 -11 -2 -8 -8z"/>
<path d="M1260 1190 c0 -5 7 -10 15 -10 8 0 15 5 15 10 0 6 -7 10 -15 10 -8 0
-15 -4 -15 -10z"/>
<path d="M1265 1109 c-10 -15 3 -25 16 -12 7 7 7 13 1 17 -6 3 -14 1 -17 -5z"/>
<path d="M1265 1020 c-8 -13 -1 -24 14 -19 6 3 7 10 2 18 -6 10 -10 10 -16 1z"/>
<path d="M1266 931 c-4 -5 -2 -12 3 -15 5 -4 12 -2 15 3 4 5 2 12 -3 15 -5 4
-12 2 -15 -3z"/>
<path d="M1262 841 c4 -13 18 -16 19 -4 0 4 -5 9 -11 12 -7 2 -11 -2 -8 -8z"/>
<path d="M1731 612 c-5 -9 -12 -34 -16 -54 -10 -51 -23 -59 -99 -62 -81 -2
-103 -18 -66 -47 42 -33 56 -44 76 -55 22 -13 21 -71 -2 -116 -19 -37 -18 -48
7 -48 22 0 79 30 79 41 0 4 11 10 25 13 32 8 88 -17 115 -51 12 -15 26 -23 35
-19 17 6 20 57 4 73 -16 16 -27 78 -17 97 5 9 15 16 23 16 7 0 15 4 17 8 2 4
18 18 36 31 59 42 38 63 -61 58 -66 -2 -68 0 -92 81 -12 39 -20 52 -35 52 -11
0 -24 -8 -29 -18z"/>
<path d="M3696 622 c-3 -5 -8 -29 -12 -53 -10 -62 -21 -69 -103 -69 -68 0 -71
-1 -71 -24 0 -15 10 -30 26 -41 15 -9 39 -28 54 -42 l28 -24 -19 -50 c-11 -27
-19 -59 -19 -70 0 -19 4 -21 32 -15 18 3 41 15 53 25 37 35 71 37 109 5 62
-54 76 -64 86 -64 15 0 12 31 -10 95 -20 58 -18 105 4 105 7 0 21 8 32 18 10
10 27 21 37 25 24 9 33 37 16 48 -8 5 -45 8 -82 6 -75 -2 -80 1 -97 68 -6 22
-13 46 -15 53 -5 14 -41 17 -49 4z"/>
<path d="M2720 396 c0 -30 -27 -79 -55 -98 -5 -4 -34 -8 -62 -8 -50 0 -53 -2
-53 -25 0 -16 6 -25 15 -25 8 0 15 -4 15 -8 0 -4 14 -16 30 -25 35 -21 37 -39
10 -107 -11 -28 -18 -55 -15 -59 8 -13 52 0 71 20 9 10 22 19 27 19 5 0 15 8
22 17 12 16 14 16 41 -2 16 -10 35 -27 42 -37 8 -10 25 -18 43 -18 25 0 29 4
29 28 0 16 -7 37 -15 48 -31 41 -8 90 57 123 44 22 48 47 9 56 -17 4 -44 4
-61 0 -39 -8 -70 2 -70 23 0 10 -6 26 -14 37 -7 11 -16 32 -20 48 -4 18 -13
27 -26 27 -16 0 -20 -7 -20 -34z"/>
</g>
</svg>
